<?xml version="1.0" encoding="utf-8" standalone="no"?>
<!DOCTYPE svg PUBLIC "-//W3C//DTD SVG 1.1//EN"
  "http://www.w3.org/Graphics/SVG/1.1/DTD/svg11.dtd">
<svg xmlns:xlink="http://www.w3.org/1999/xlink" width="295.2pt" height="216pt" viewBox="0 0 295.2 216" xmlns="http://www.w3.org/2000/svg" version="1.1">
 <metadata>
  <rdf:RDF xmlns:dc="http://purl.org/dc/elements/1.1/" xmlns:cc="http://creativecommons.org/ns#" xmlns:rdf="http://www.w3.org/1999/02/22-rdf-syntax-ns#">
   <cc:Work>
    <dc:type rdf:resource="http://purl.org/dc/dcmitype/StillImage"/>
    <dc:date>2024-04-24T20:34:57.058794</dc:date>
    <dc:format>image/svg+xml</dc:format>
    <dc:creator>
     <cc:Agent>
      <dc:title>Matplotlib v3.8.2, https://matplotlib.org/</dc:title>
     </cc:Agent>
    </dc:creator>
   </cc:Work>
  </rdf:RDF>
 </metadata>
 <defs>
  <style type="text/css">*{stroke-linejoin: round; stroke-linecap: butt}</style>
 </defs>
 <g id="figure_1">
  <g id="patch_1">
   <path d="M 0 216 
L 295.2 216 
L 295.2 0 
L 0 0 
z
" style="fill: #ffffff"/>
  </g>
  <g id="axes_1">
   <g id="patch_2">
    <path d="M 234.45 109.08 
C 234.45 98.159529 232.298905 87.345246 228.119822 77.256046 
C 223.940739 67.166846 217.814939 57.998939 210.093 50.277 
C 202.371061 42.555061 193.203154 36.429261 183.113954 32.250178 
C 173.024754 28.071095 162.210471 25.92 151.29 25.92 
C 140.369529 25.92 129.555246 28.071095 119.466046 32.250178 
C 109.376846 36.429261 100.208939 42.555061 92.487 50.277 
C 84.765061 57.998939 78.639261 67.166846 74.460178 77.256046 
C 70.281095 87.345246 68.13 98.159529 68.13 109.08 
C 68.13 120.000471 70.281095 130.814754 74.460178 140.903954 
C 78.639261 150.993154 84.765061 160.161061 92.487 167.883 
C 100.208939 175.604939 109.376846 181.730739 119.466046 185.909822 
C 129.555246 190.088905 140.369529 192.24 151.29 192.24 
C 162.210471 192.24 173.024754 190.088905 183.113954 185.909822 
C 193.203154 181.730739 202.371061 175.604939 210.093 167.883 
C 217.814939 160.161061 223.940739 150.993154 228.119822 140.903954 
C 232.298905 130.814754 234.45 120.000471 234.45 109.08 
M 151.29 109.08 
C 151.29 109.08 151.29 109.08 151.29 109.08 
C 151.29 109.08 151.29 109.08 151.29 109.08 
C 151.29 109.08 151.29 109.08 151.29 109.08 
C 151.29 109.08 151.29 109.08 151.29 109.08 
C 151.29 109.08 151.29 109.08 151.29 109.08 
C 151.29 109.08 151.29 109.08 151.29 109.08 
C 151.29 109.08 151.29 109.08 151.29 109.08 
C 151.29 109.08 151.29 109.08 151.29 109.08 
C 151.29 109.08 151.29 109.08 151.29 109.08 
C 151.29 109.08 151.29 109.08 151.29 109.08 
C 151.29 109.08 151.29 109.08 151.29 109.08 
C 151.29 109.08 151.29 109.08 151.29 109.08 
C 151.29 109.08 151.29 109.08 151.29 109.08 
C 151.29 109.08 151.29 109.08 151.29 109.08 
C 151.29 109.08 151.29 109.08 151.29 109.08 
C 151.29 109.08 151.29 109.08 151.29 109.08 
z
" style="fill: #ffffff"/>
   </g>
   <g id="patch_3">
    <path d="M 172.837984 109.08 
L 156.73578 104.510448 
L 153.522135 96.420932 
L 147.73552 102.923459 
L 130.667005 101.573844 
L 109.984054 124.114135 
L 151.29 109.08 
L 152.524458 116.08096 
L 151.29 109.08 
z
" clip-path="url(#p83f0413b2e)" style="fill: #0000ff; opacity: 0.1"/>
   </g>
   <g id="matplotlib.axis_1">
    <g id="xtick_1">
     <g id="line2d_1">
      <path d="M 151.29 109.08 
L 234.45 109.08 
" clip-path="url(#p83f0413b2e)" style="fill: none; stroke: #b0b0b0; stroke-width: 0.8; stroke-linecap: square"/>
     </g>
     <g id="text_1">
      <!-- MAE -->
      <g transform="translate(235.3775 112.39125) scale(0.12 -0.12)">
       <defs>
        <path id="DejaVuSans-4d" d="M 628 4666 
L 1569 4666 
L 2759 1491 
L 3956 4666 
L 4897 4666 
L 4897 0 
L 4281 0 
L 4281 4097 
L 3078 897 
L 2444 897 
L 1241 4097 
L 1241 0 
L 628 0 
L 628 4666 
z
" transform="scale(0.015625)"/>
        <path id="DejaVuSans-41" d="M 2188 4044 
L 1331 1722 
L 3047 1722 
L 2188 4044 
z
M 1831 4666 
L 2547 4666 
L 4325 0 
L 3669 0 
L 3244 1197 
L 1141 1197 
L 716 0 
L 50 0 
L 1831 4666 
z
" transform="scale(0.015625)"/>
        <path id="DejaVuSans-45" d="M 628 4666 
L 3578 4666 
L 3578 4134 
L 1259 4134 
L 1259 2753 
L 3481 2753 
L 3481 2222 
L 1259 2222 
L 1259 531 
L 3634 531 
L 3634 0 
L 628 0 
L 628 4666 
z
" transform="scale(0.015625)"/>
       </defs>
       <use xlink:href="#DejaVuSans-4d"/>
       <use xlink:href="#DejaVuSans-41" x="86.279297"/>
       <use xlink:href="#DejaVuSans-45" x="154.6875"/>
      </g>
     </g>
    </g>
    <g id="xtick_2">
     <g id="line2d_2">
      <path d="M 151.29 109.08 
L 214.994256 55.625782 
" clip-path="url(#p83f0413b2e)" style="fill: none; stroke: #b0b0b0; stroke-width: 0.8; stroke-linecap: square"/>
     </g>
     <g id="text_2">
      <!-- MSE -->
      <g transform="translate(212.941691 49.938006) scale(0.12 -0.12)">
       <defs>
        <path id="DejaVuSans-53" d="M 3425 4513 
L 3425 3897 
Q 3066 4069 2747 4153 
Q 2428 4238 2131 4238 
Q 1616 4238 1336 4038 
Q 1056 3838 1056 3469 
Q 1056 3159 1242 3001 
Q 1428 2844 1947 2747 
L 2328 2669 
Q 3034 2534 3370 2195 
Q 3706 1856 3706 1288 
Q 3706 609 3251 259 
Q 2797 -91 1919 -91 
Q 1588 -91 1214 -16 
Q 841 59 441 206 
L 441 856 
Q 825 641 1194 531 
Q 1563 422 1919 422 
Q 2459 422 2753 634 
Q 3047 847 3047 1241 
Q 3047 1584 2836 1778 
Q 2625 1972 2144 2069 
L 1759 2144 
Q 1053 2284 737 2584 
Q 422 2884 422 3419 
Q 422 4038 858 4394 
Q 1294 4750 2059 4750 
Q 2388 4750 2728 4690 
Q 3069 4631 3425 4513 
z
" transform="scale(0.015625)"/>
       </defs>
       <use xlink:href="#DejaVuSans-4d"/>
       <use xlink:href="#DejaVuSans-53" x="86.279297"/>
       <use xlink:href="#DejaVuSans-45" x="149.755859"/>
      </g>
     </g>
    </g>
    <g id="xtick_3">
     <g id="line2d_3">
      <path d="M 151.29 109.08 
L 165.730582 27.183387 
" clip-path="url(#p83f0413b2e)" style="fill: none; stroke: #b0b0b0; stroke-width: 0.8; stroke-linecap: square"/>
     </g>
     <g id="text_3">
      <!-- RMSE -->
      <g transform="translate(151.215407 16.707329) scale(0.12 -0.12)">
       <defs>
        <path id="DejaVuSans-52" d="M 2841 2188 
Q 3044 2119 3236 1894 
Q 3428 1669 3622 1275 
L 4263 0 
L 3584 0 
L 2988 1197 
Q 2756 1666 2539 1819 
Q 2322 1972 1947 1972 
L 1259 1972 
L 1259 0 
L 628 0 
L 628 4666 
L 2053 4666 
Q 2853 4666 3247 4331 
Q 3641 3997 3641 3322 
Q 3641 2881 3436 2590 
Q 3231 2300 2841 2188 
z
M 1259 4147 
L 1259 2491 
L 2053 2491 
Q 2509 2491 2742 2702 
Q 2975 2913 2975 3322 
Q 2975 3731 2742 3939 
Q 2509 4147 2053 4147 
L 1259 4147 
z
" transform="scale(0.015625)"/>
       </defs>
       <use xlink:href="#DejaVuSans-52"/>
       <use xlink:href="#DejaVuSans-4d" x="69.482422"/>
       <use xlink:href="#DejaVuSans-53" x="155.761719"/>
       <use xlink:href="#DejaVuSans-45" x="219.238281"/>
      </g>
     </g>
    </g>
    <g id="xtick_4">
     <g id="line2d_4">
      <path d="M 151.29 109.08 
L 109.71 37.061327 
" clip-path="url(#p83f0413b2e)" style="fill: none; stroke: #b0b0b0; stroke-width: 0.8; stroke-linecap: square"/>
     </g>
     <g id="text_4">
      <!-- R2 -->
      <g transform="translate(94.723438 28.248222) scale(0.12 -0.12)">
       <defs>
        <path id="DejaVuSans-32" d="M 1228 531 
L 3431 531 
L 3431 0 
L 469 0 
L 469 531 
Q 828 903 1448 1529 
Q 2069 2156 2228 2338 
Q 2531 2678 2651 2914 
Q 2772 3150 2772 3378 
Q 2772 3750 2511 3984 
Q 2250 4219 1831 4219 
Q 1534 4219 1204 4116 
Q 875 4013 500 3803 
L 500 4441 
Q 881 4594 1212 4672 
Q 1544 4750 1819 4750 
Q 2544 4750 2975 4387 
Q 3406 4025 3406 3419 
Q 3406 3131 3298 2873 
Q 3191 2616 2906 2266 
Q 2828 2175 2409 1742 
Q 1991 1309 1228 531 
z
" transform="scale(0.015625)"/>
       </defs>
       <use xlink:href="#DejaVuSans-52"/>
       <use xlink:href="#DejaVuSans-32" x="69.482422"/>
      </g>
     </g>
    </g>
    <g id="xtick_5">
     <g id="line2d_5">
      <path d="M 151.29 109.08 
L 73.145162 80.637605 
" clip-path="url(#p83f0413b2e)" style="fill: none; stroke: #b0b0b0; stroke-width: 0.8; stroke-linecap: square"/>
     </g>
     <g id="text_5">
      <!-- MAPE -->
      <g transform="translate(43.299152 79.160573) scale(0.12 -0.12)">
       <defs>
        <path id="DejaVuSans-50" d="M 1259 4147 
L 1259 2394 
L 2053 2394 
Q 2494 2394 2734 2622 
Q 2975 2850 2975 3272 
Q 2975 3691 2734 3919 
Q 2494 4147 2053 4147 
L 1259 4147 
z
M 628 4666 
L 2053 4666 
Q 2838 4666 3239 4311 
Q 3641 3956 3641 3272 
Q 3641 2581 3239 2228 
Q 2838 1875 2053 1875 
L 1259 1875 
L 1259 0 
L 628 0 
L 628 4666 
z
" transform="scale(0.015625)"/>
       </defs>
       <use xlink:href="#DejaVuSans-4d"/>
       <use xlink:href="#DejaVuSans-41" x="86.279297"/>
       <use xlink:href="#DejaVuSans-50" x="154.6875"/>
       <use xlink:href="#DejaVuSans-45" x="214.990234"/>
      </g>
     </g>
    </g>
    <g id="xtick_6">
     <g id="line2d_6">
      <path d="M 151.29 109.08 
L 73.145162 137.522395 
" clip-path="url(#p83f0413b2e)" style="fill: none; stroke: #b0b0b0; stroke-width: 0.8; stroke-linecap: square"/>
     </g>
     <g id="text_6">
      <!-- MedAE -->
      <g transform="translate(39.416027 145.621927) scale(0.12 -0.12)">
       <defs>
        <path id="DejaVuSans-65" d="M 3597 1894 
L 3597 1613 
L 953 1613 
Q 991 1019 1311 708 
Q 1631 397 2203 397 
Q 2534 397 2845 478 
Q 3156 559 3463 722 
L 3463 178 
Q 3153 47 2828 -22 
Q 2503 -91 2169 -91 
Q 1331 -91 842 396 
Q 353 884 353 1716 
Q 353 2575 817 3079 
Q 1281 3584 2069 3584 
Q 2775 3584 3186 3129 
Q 3597 2675 3597 1894 
z
M 3022 2063 
Q 3016 2534 2758 2815 
Q 2500 3097 2075 3097 
Q 1594 3097 1305 2825 
Q 1016 2553 972 2059 
L 3022 2063 
z
" transform="scale(0.015625)"/>
        <path id="DejaVuSans-64" d="M 2906 2969 
L 2906 4863 
L 3481 4863 
L 3481 0 
L 2906 0 
L 2906 525 
Q 2725 213 2448 61 
Q 2172 -91 1784 -91 
Q 1150 -91 751 415 
Q 353 922 353 1747 
Q 353 2572 751 3078 
Q 1150 3584 1784 3584 
Q 2172 3584 2448 3432 
Q 2725 3281 2906 2969 
z
M 947 1747 
Q 947 1113 1208 752 
Q 1469 391 1925 391 
Q 2381 391 2643 752 
Q 2906 1113 2906 1747 
Q 2906 2381 2643 2742 
Q 2381 3103 1925 3103 
Q 1469 3103 1208 2742 
Q 947 2381 947 1747 
z
" transform="scale(0.015625)"/>
       </defs>
       <use xlink:href="#DejaVuSans-4d"/>
       <use xlink:href="#DejaVuSans-65" x="86.279297"/>
       <use xlink:href="#DejaVuSans-64" x="147.802734"/>
       <use xlink:href="#DejaVuSans-41" x="211.279297"/>
       <use xlink:href="#DejaVuSans-45" x="279.6875"/>
      </g>
     </g>
    </g>
    <g id="xtick_7">
     <g id="line2d_7">
      <path d="M 151.29 109.08 
L 109.71 181.098673 
" clip-path="url(#p83f0413b2e)" style="fill: none; stroke: #b0b0b0; stroke-width: 0.8; stroke-linecap: square"/>
     </g>
     <g id="text_7">
      <!-- EV -->
      <g transform="translate(94.814375 196.534278) scale(0.12 -0.12)">
       <defs>
        <path id="DejaVuSans-56" d="M 1831 0 
L 50 4666 
L 709 4666 
L 2188 738 
L 3669 4666 
L 4325 4666 
L 2547 0 
L 1831 0 
z
" transform="scale(0.015625)"/>
       </defs>
       <use xlink:href="#DejaVuSans-45"/>
       <use xlink:href="#DejaVuSans-56" x="63.183594"/>
      </g>
     </g>
    </g>
    <g id="xtick_8">
     <g id="line2d_8">
      <path d="M 151.29 109.08 
L 165.730582 190.976613 
" clip-path="url(#p83f0413b2e)" style="fill: none; stroke: #b0b0b0; stroke-width: 0.8; stroke-linecap: square"/>
     </g>
     <g id="text_8">
      <!-- NSE -->
      <g transform="translate(156.072594 208.075171) scale(0.12 -0.12)">
       <defs>
        <path id="DejaVuSans-4e" d="M 628 4666 
L 1478 4666 
L 3547 763 
L 3547 4666 
L 4159 4666 
L 4159 0 
L 3309 0 
L 1241 3903 
L 1241 0 
L 628 0 
L 628 4666 
z
" transform="scale(0.015625)"/>
       </defs>
       <use xlink:href="#DejaVuSans-4e"/>
       <use xlink:href="#DejaVuSans-53" x="74.804688"/>
       <use xlink:href="#DejaVuSans-45" x="138.28125"/>
      </g>
     </g>
    </g>
    <g id="xtick_9">
     <g id="line2d_9">
      <path d="M 151.29 109.08 
L 214.994256 162.534218 
" clip-path="url(#p83f0413b2e)" style="fill: none; stroke: #b0b0b0; stroke-width: 0.8; stroke-linecap: square"/>
     </g>
     <g id="text_9">
      <!-- Pearson_Corr -->
      <g transform="translate(186.194816 174.571682) scale(0.12 -0.12)">
       <defs>
        <path id="DejaVuSans-61" d="M 2194 1759 
Q 1497 1759 1228 1600 
Q 959 1441 959 1056 
Q 959 750 1161 570 
Q 1363 391 1709 391 
Q 2188 391 2477 730 
Q 2766 1069 2766 1631 
L 2766 1759 
L 2194 1759 
z
M 3341 1997 
L 3341 0 
L 2766 0 
L 2766 531 
Q 2569 213 2275 61 
Q 1981 -91 1556 -91 
Q 1019 -91 701 211 
Q 384 513 384 1019 
Q 384 1609 779 1909 
Q 1175 2209 1959 2209 
L 2766 2209 
L 2766 2266 
Q 2766 2663 2505 2880 
Q 2244 3097 1772 3097 
Q 1472 3097 1187 3025 
Q 903 2953 641 2809 
L 641 3341 
Q 956 3463 1253 3523 
Q 1550 3584 1831 3584 
Q 2591 3584 2966 3190 
Q 3341 2797 3341 1997 
z
" transform="scale(0.015625)"/>
        <path id="DejaVuSans-72" d="M 2631 2963 
Q 2534 3019 2420 3045 
Q 2306 3072 2169 3072 
Q 1681 3072 1420 2755 
Q 1159 2438 1159 1844 
L 1159 0 
L 581 0 
L 581 3500 
L 1159 3500 
L 1159 2956 
Q 1341 3275 1631 3429 
Q 1922 3584 2338 3584 
Q 2397 3584 2469 3576 
Q 2541 3569 2628 3553 
L 2631 2963 
z
" transform="scale(0.015625)"/>
        <path id="DejaVuSans-73" d="M 2834 3397 
L 2834 2853 
Q 2591 2978 2328 3040 
Q 2066 3103 1784 3103 
Q 1356 3103 1142 2972 
Q 928 2841 928 2578 
Q 928 2378 1081 2264 
Q 1234 2150 1697 2047 
L 1894 2003 
Q 2506 1872 2764 1633 
Q 3022 1394 3022 966 
Q 3022 478 2636 193 
Q 2250 -91 1575 -91 
Q 1294 -91 989 -36 
Q 684 19 347 128 
L 347 722 
Q 666 556 975 473 
Q 1284 391 1588 391 
Q 1994 391 2212 530 
Q 2431 669 2431 922 
Q 2431 1156 2273 1281 
Q 2116 1406 1581 1522 
L 1381 1569 
Q 847 1681 609 1914 
Q 372 2147 372 2553 
Q 372 3047 722 3315 
Q 1072 3584 1716 3584 
Q 2034 3584 2315 3537 
Q 2597 3491 2834 3397 
z
" transform="scale(0.015625)"/>
        <path id="DejaVuSans-6f" d="M 1959 3097 
Q 1497 3097 1228 2736 
Q 959 2375 959 1747 
Q 959 1119 1226 758 
Q 1494 397 1959 397 
Q 2419 397 2687 759 
Q 2956 1122 2956 1747 
Q 2956 2369 2687 2733 
Q 2419 3097 1959 3097 
z
M 1959 3584 
Q 2709 3584 3137 3096 
Q 3566 2609 3566 1747 
Q 3566 888 3137 398 
Q 2709 -91 1959 -91 
Q 1206 -91 779 398 
Q 353 888 353 1747 
Q 353 2609 779 3096 
Q 1206 3584 1959 3584 
z
" transform="scale(0.015625)"/>
        <path id="DejaVuSans-6e" d="M 3513 2113 
L 3513 0 
L 2938 0 
L 2938 2094 
Q 2938 2591 2744 2837 
Q 2550 3084 2163 3084 
Q 1697 3084 1428 2787 
Q 1159 2491 1159 1978 
L 1159 0 
L 581 0 
L 581 3500 
L 1159 3500 
L 1159 2956 
Q 1366 3272 1645 3428 
Q 1925 3584 2291 3584 
Q 2894 3584 3203 3211 
Q 3513 2838 3513 2113 
z
" transform="scale(0.015625)"/>
        <path id="DejaVuSans-5f" d="M 3263 -1063 
L 3263 -1509 
L -63 -1509 
L -63 -1063 
L 3263 -1063 
z
" transform="scale(0.015625)"/>
        <path id="DejaVuSans-43" d="M 4122 4306 
L 4122 3641 
Q 3803 3938 3442 4084 
Q 3081 4231 2675 4231 
Q 1875 4231 1450 3742 
Q 1025 3253 1025 2328 
Q 1025 1406 1450 917 
Q 1875 428 2675 428 
Q 3081 428 3442 575 
Q 3803 722 4122 1019 
L 4122 359 
Q 3791 134 3420 21 
Q 3050 -91 2638 -91 
Q 1578 -91 968 557 
Q 359 1206 359 2328 
Q 359 3453 968 4101 
Q 1578 4750 2638 4750 
Q 3056 4750 3426 4639 
Q 3797 4528 4122 4306 
z
" transform="scale(0.015625)"/>
       </defs>
       <use xlink:href="#DejaVuSans-50"/>
       <use xlink:href="#DejaVuSans-65" x="56.677734"/>
       <use xlink:href="#DejaVuSans-61" x="118.201172"/>
       <use xlink:href="#DejaVuSans-72" x="179.480469"/>
       <use xlink:href="#DejaVuSans-73" x="220.59375"/>
       <use xlink:href="#DejaVuSans-6f" x="272.693359"/>
       <use xlink:href="#DejaVuSans-6e" x="333.875"/>
       <use xlink:href="#DejaVuSans-5f" x="397.253906"/>
       <use xlink:href="#DejaVuSans-43" x="447.253906"/>
       <use xlink:href="#DejaVuSans-6f" x="517.078125"/>
       <use xlink:href="#DejaVuSans-72" x="578.259766"/>
       <use xlink:href="#DejaVuSans-72" x="617.623047"/>
      </g>
     </g>
    </g>
   </g>
   <g id="matplotlib.axis_2">
    <g id="ytick_1">
     <g id="line2d_10">
      <path d="M 167.922 109.08 
C 167.922 106.895906 167.491781 104.733049 166.655964 102.715209 
C 165.820148 100.697369 164.594988 98.863788 163.0506 97.3194 
C 161.506212 95.775012 159.672631 94.549852 157.654791 93.714036 
C 155.636951 92.878219 153.474094 92.448 151.29 92.448 
C 149.105906 92.448 146.943049 92.878219 144.925209 93.714036 
C 142.907369 94.549852 141.073788 95.775012 139.5294 97.3194 
C 137.985012 98.863788 136.759852 100.697369 135.924036 102.715209 
C 135.088219 104.733049 134.658 106.895906 134.658 109.08 
C 134.658 111.264094 135.088219 113.426951 135.924036 115.444791 
C 136.759852 117.462631 137.985012 119.296212 139.5294 120.8406 
C 141.073788 122.384988 142.907369 123.610148 144.925209 124.445964 
C 146.943049 125.281781 149.105906 125.712 151.29 125.712 
C 153.474094 125.712 155.636951 125.281781 157.654791 124.445964 
C 159.672631 123.610148 161.506212 122.384988 163.0506 120.8406 
C 164.594988 119.296212 165.820148 117.462631 166.655964 115.444791 
C 167.491781 113.426951 167.922 111.264094 167.922 109.08 
" clip-path="url(#p83f0413b2e)" style="fill: none; stroke: #b0b0b0; stroke-width: 0.8; stroke-linecap: square"/>
     </g>
     <g id="text_10">
      <!-- 0.2 -->
      <g style="fill: #808080" transform="translate(167.922 107.624219) scale(0.07 -0.07)">
       <defs>
        <path id="DejaVuSans-30" d="M 2034 4250 
Q 1547 4250 1301 3770 
Q 1056 3291 1056 2328 
Q 1056 1369 1301 889 
Q 1547 409 2034 409 
Q 2525 409 2770 889 
Q 3016 1369 3016 2328 
Q 3016 3291 2770 3770 
Q 2525 4250 2034 4250 
z
M 2034 4750 
Q 2819 4750 3233 4129 
Q 3647 3509 3647 2328 
Q 3647 1150 3233 529 
Q 2819 -91 2034 -91 
Q 1250 -91 836 529 
Q 422 1150 422 2328 
Q 422 3509 836 4129 
Q 1250 4750 2034 4750 
z
" transform="scale(0.015625)"/>
        <path id="DejaVuSans-2e" d="M 684 794 
L 1344 794 
L 1344 0 
L 684 0 
L 684 794 
z
" transform="scale(0.015625)"/>
       </defs>
       <use xlink:href="#DejaVuSans-30"/>
       <use xlink:href="#DejaVuSans-2e" x="63.623047"/>
       <use xlink:href="#DejaVuSans-32" x="95.410156"/>
      </g>
     </g>
    </g>
    <g id="ytick_2">
     <g id="line2d_11">
      <path d="M 184.554 109.08 
C 184.554 104.711812 183.693562 100.386098 182.021929 96.350418 
C 180.350295 92.314738 177.899976 88.647576 174.8112 85.5588 
C 171.722424 82.470024 168.055262 80.019705 164.019582 78.348071 
C 159.983902 76.676438 155.658188 75.816 151.29 75.816 
C 146.921812 75.816 142.596098 76.676438 138.560418 78.348071 
C 134.524738 80.019705 130.857576 82.470024 127.7688 85.5588 
C 124.680024 88.647576 122.229705 92.314738 120.558071 96.350418 
C 118.886438 100.386098 118.026 104.711812 118.026 109.08 
C 118.026 113.448188 118.886438 117.773902 120.558071 121.809582 
C 122.229705 125.845262 124.680024 129.512424 127.7688 132.6012 
C 130.857576 135.689976 134.524738 138.140295 138.560418 139.811929 
C 142.596098 141.483562 146.921812 142.344 151.29 142.344 
C 155.658188 142.344 159.983902 141.483562 164.019582 139.811929 
C 168.055262 138.140295 171.722424 135.689976 174.8112 132.6012 
C 177.899976 129.512424 180.350295 125.845262 182.021929 121.809582 
C 183.693562 117.773902 184.554 113.448188 184.554 109.08 
" clip-path="url(#p83f0413b2e)" style="fill: none; stroke: #b0b0b0; stroke-width: 0.8; stroke-linecap: square"/>
     </g>
     <g id="text_11">
      <!-- 0.4 -->
      <g style="fill: #808080" transform="translate(184.554 107.624219) scale(0.07 -0.07)">
       <defs>
        <path id="DejaVuSans-34" d="M 2419 4116 
L 825 1625 
L 2419 1625 
L 2419 4116 
z
M 2253 4666 
L 3047 4666 
L 3047 1625 
L 3713 1625 
L 3713 1100 
L 3047 1100 
L 3047 0 
L 2419 0 
L 2419 1100 
L 313 1100 
L 313 1709 
L 2253 4666 
z
" transform="scale(0.015625)"/>
       </defs>
       <use xlink:href="#DejaVuSans-30"/>
       <use xlink:href="#DejaVuSans-2e" x="63.623047"/>
       <use xlink:href="#DejaVuSans-34" x="95.410156"/>
      </g>
     </g>
    </g>
    <g id="ytick_3">
     <g id="line2d_12">
      <path d="M 201.186 109.08 
C 201.186 102.527717 199.895343 96.039147 197.387893 89.985627 
C 194.880443 83.932108 191.204963 78.431364 186.5718 73.7982 
C 181.938636 69.165037 176.437892 65.489557 170.384373 62.982107 
C 164.330853 60.474657 157.842283 59.184 151.29 59.184 
C 144.737717 59.184 138.249147 60.474657 132.195627 62.982107 
C 126.142108 65.489557 120.641364 69.165037 116.0082 73.7982 
C 111.375037 78.431364 107.699557 83.932108 105.192107 89.985627 
C 102.684657 96.039147 101.394 102.527717 101.394 109.08 
C 101.394 115.632283 102.684657 122.120853 105.192107 128.174373 
C 107.699557 134.227892 111.375037 139.728636 116.0082 144.3618 
C 120.641364 148.994963 126.142108 152.670443 132.195627 155.177893 
C 138.249147 157.685343 144.737717 158.976 151.29 158.976 
C 157.842283 158.976 164.330853 157.685343 170.384373 155.177893 
C 176.437892 152.670443 181.938636 148.994963 186.5718 144.3618 
C 191.204963 139.728636 194.880443 134.227892 197.387893 128.174373 
C 199.895343 122.120853 201.186 115.632283 201.186 109.08 
" clip-path="url(#p83f0413b2e)" style="fill: none; stroke: #b0b0b0; stroke-width: 0.8; stroke-linecap: square"/>
     </g>
     <g id="text_12">
      <!-- 0.6 -->
      <g style="fill: #808080" transform="translate(201.186 107.624219) scale(0.07 -0.07)">
       <defs>
        <path id="DejaVuSans-36" d="M 2113 2584 
Q 1688 2584 1439 2293 
Q 1191 2003 1191 1497 
Q 1191 994 1439 701 
Q 1688 409 2113 409 
Q 2538 409 2786 701 
Q 3034 994 3034 1497 
Q 3034 2003 2786 2293 
Q 2538 2584 2113 2584 
z
M 3366 4563 
L 3366 3988 
Q 3128 4100 2886 4159 
Q 2644 4219 2406 4219 
Q 1781 4219 1451 3797 
Q 1122 3375 1075 2522 
Q 1259 2794 1537 2939 
Q 1816 3084 2150 3084 
Q 2853 3084 3261 2657 
Q 3669 2231 3669 1497 
Q 3669 778 3244 343 
Q 2819 -91 2113 -91 
Q 1303 -91 875 529 
Q 447 1150 447 2328 
Q 447 3434 972 4092 
Q 1497 4750 2381 4750 
Q 2619 4750 2861 4703 
Q 3103 4656 3366 4563 
z
" transform="scale(0.015625)"/>
       </defs>
       <use xlink:href="#DejaVuSans-30"/>
       <use xlink:href="#DejaVuSans-2e" x="63.623047"/>
       <use xlink:href="#DejaVuSans-36" x="95.410156"/>
      </g>
     </g>
    </g>
    <g id="ytick_4">
     <g id="line2d_13">
      <path d="M 217.818 109.08 
C 217.818 100.343623 216.097124 91.692196 212.753858 83.620837 
C 209.410591 75.549477 204.509951 68.215151 198.3324 62.0376 
C 192.154849 55.860049 184.820523 50.959409 176.749163 47.616142 
C 168.677804 44.272876 160.026377 42.552 151.29 42.552 
C 142.553623 42.552 133.902196 44.272876 125.830837 47.616142 
C 117.759477 50.959409 110.425151 55.860049 104.2476 62.0376 
C 98.070049 68.215151 93.169409 75.549477 89.826142 83.620837 
C 86.482876 91.692196 84.762 100.343623 84.762 109.08 
C 84.762 117.816377 86.482876 126.467804 89.826142 134.539163 
C 93.169409 142.610523 98.070049 149.944849 104.2476 156.1224 
C 110.425151 162.299951 117.759477 167.200591 125.830837 170.543858 
C 133.902196 173.887124 142.553623 175.608 151.29 175.608 
C 160.026377 175.608 168.677804 173.887124 176.749163 170.543858 
C 184.820523 167.200591 192.154849 162.299951 198.3324 156.1224 
C 204.509951 149.944849 209.410591 142.610523 212.753858 134.539163 
C 216.097124 126.467804 217.818 117.816377 217.818 109.08 
" clip-path="url(#p83f0413b2e)" style="fill: none; stroke: #b0b0b0; stroke-width: 0.8; stroke-linecap: square"/>
     </g>
     <g id="text_13">
      <!-- 0.8 -->
      <g style="fill: #808080" transform="translate(217.818 107.624219) scale(0.07 -0.07)">
       <defs>
        <path id="DejaVuSans-38" d="M 2034 2216 
Q 1584 2216 1326 1975 
Q 1069 1734 1069 1313 
Q 1069 891 1326 650 
Q 1584 409 2034 409 
Q 2484 409 2743 651 
Q 3003 894 3003 1313 
Q 3003 1734 2745 1975 
Q 2488 2216 2034 2216 
z
M 1403 2484 
Q 997 2584 770 2862 
Q 544 3141 544 3541 
Q 544 4100 942 4425 
Q 1341 4750 2034 4750 
Q 2731 4750 3128 4425 
Q 3525 4100 3525 3541 
Q 3525 3141 3298 2862 
Q 3072 2584 2669 2484 
Q 3125 2378 3379 2068 
Q 3634 1759 3634 1313 
Q 3634 634 3220 271 
Q 2806 -91 2034 -91 
Q 1263 -91 848 271 
Q 434 634 434 1313 
Q 434 1759 690 2068 
Q 947 2378 1403 2484 
z
M 1172 3481 
Q 1172 3119 1398 2916 
Q 1625 2713 2034 2713 
Q 2441 2713 2670 2916 
Q 2900 3119 2900 3481 
Q 2900 3844 2670 4047 
Q 2441 4250 2034 4250 
Q 1625 4250 1398 4047 
Q 1172 3844 1172 3481 
z
" transform="scale(0.015625)"/>
       </defs>
       <use xlink:href="#DejaVuSans-30"/>
       <use xlink:href="#DejaVuSans-2e" x="63.623047"/>
       <use xlink:href="#DejaVuSans-38" x="95.410156"/>
      </g>
     </g>
    </g>
   </g>
   <g id="line2d_14">
    <path d="M 172.837984 109.08 
L 156.73578 104.510448 
L 153.522135 96.420932 
L 147.73552 102.923459 
L 130.667005 101.573844 
L 109.984054 124.114135 
L 151.29 109.08 
L 152.524458 116.08096 
L 151.29 109.08 
L 172.837984 109.08 
" clip-path="url(#p83f0413b2e)" style="fill: none; stroke: #1f77b4; stroke-linecap: square"/>
   </g>
   <g id="patch_4">
    <path d="M 234.45 109.08 
C 234.45 98.159529 232.298905 87.345246 228.119822 77.256046 
C 223.940739 67.166846 217.814939 57.998939 210.093 50.277 
C 202.371061 42.555061 193.203154 36.429261 183.113954 32.250178 
C 173.024754 28.071095 162.210471 25.92 151.29 25.92 
C 140.369529 25.92 129.555246 28.071095 119.466046 32.250178 
C 109.376846 36.429261 100.208939 42.555061 92.487 50.277 
C 84.765061 57.998939 78.639261 67.166846 74.460178 77.256046 
C 70.281095 87.345246 68.13 98.159529 68.13 109.08 
C 68.13 120.000471 70.281095 130.814754 74.460178 140.903954 
C 78.639261 150.993154 84.765061 160.161061 92.487 167.883 
C 100.208939 175.604939 109.376846 181.730739 119.466046 185.909822 
C 129.555246 190.088905 140.369529 192.24 151.29 192.24 
C 162.210471 192.24 173.024754 190.088905 183.113954 185.909822 
C 193.203154 181.730739 202.371061 175.604939 210.093 167.883 
C 217.814939 160.161061 223.940739 150.993154 228.119822 140.903954 
C 232.298905 130.814754 234.45 120.000471 234.45 109.08 
" style="fill: none; stroke: #000000; stroke-width: 0.8; stroke-linejoin: miter; stroke-linecap: square"/>
   </g>
   <g id="legend_1">
    <g id="patch_5">
     <path d="M 1.62825 203.1555 
L 76.362 203.1555 
Q 78.762 203.1555 78.762 200.7555 
L 78.762 184.008 
Q 78.762 181.608 76.362 181.608 
L 1.62825 181.608 
Q -0.77175 181.608 -0.77175 184.008 
L -0.77175 200.7555 
Q -0.77175 203.1555 1.62825 203.1555 
z
" style="fill: #ffffff; opacity: 0.8; stroke: #cccccc; stroke-linejoin: miter"/>
    </g>
    <g id="line2d_15">
     <path d="M 4.02825 191.326125 
L 16.02825 191.326125 
L 28.02825 191.326125 
" style="fill: none; stroke: #1f77b4; stroke-linecap: square"/>
    </g>
    <g id="text_14">
     <!-- H_M3 -->
     <g transform="translate(37.62825 195.526125) scale(0.12 -0.12)">
      <defs>
       <path id="DejaVuSans-Bold-48" d="M 588 4666 
L 1791 4666 
L 1791 2888 
L 3566 2888 
L 3566 4666 
L 4769 4666 
L 4769 0 
L 3566 0 
L 3566 1978 
L 1791 1978 
L 1791 0 
L 588 0 
L 588 4666 
z
" transform="scale(0.015625)"/>
       <path id="DejaVuSans-Bold-5f" d="M 3200 -916 
L 3200 -1509 
L 0 -1509 
L 0 -916 
L 3200 -916 
z
" transform="scale(0.015625)"/>
       <path id="DejaVuSans-Bold-4d" d="M 588 4666 
L 2119 4666 
L 3181 2169 
L 4250 4666 
L 5778 4666 
L 5778 0 
L 4641 0 
L 4641 3413 
L 3566 897 
L 2803 897 
L 1728 3413 
L 1728 0 
L 588 0 
L 588 4666 
z
" transform="scale(0.015625)"/>
       <path id="DejaVuSans-Bold-33" d="M 2981 2516 
Q 3453 2394 3698 2092 
Q 3944 1791 3944 1325 
Q 3944 631 3412 270 
Q 2881 -91 1863 -91 
Q 1503 -91 1142 -33 
Q 781 25 428 141 
L 428 1069 
Q 766 900 1098 814 
Q 1431 728 1753 728 
Q 2231 728 2486 893 
Q 2741 1059 2741 1369 
Q 2741 1688 2480 1852 
Q 2219 2016 1709 2016 
L 1228 2016 
L 1228 2791 
L 1734 2791 
Q 2188 2791 2409 2933 
Q 2631 3075 2631 3366 
Q 2631 3634 2415 3781 
Q 2200 3928 1806 3928 
Q 1516 3928 1219 3862 
Q 922 3797 628 3669 
L 628 4550 
Q 984 4650 1334 4700 
Q 1684 4750 2022 4750 
Q 2931 4750 3382 4451 
Q 3834 4153 3834 3553 
Q 3834 3144 3618 2883 
Q 3403 2622 2981 2516 
z
" transform="scale(0.015625)"/>
      </defs>
      <use xlink:href="#DejaVuSans-Bold-48"/>
      <use xlink:href="#DejaVuSans-Bold-5f" x="83.691406"/>
      <use xlink:href="#DejaVuSans-Bold-4d" x="133.691406"/>
      <use xlink:href="#DejaVuSans-Bold-33" x="233.203125"/>
     </g>
    </g>
   </g>
  </g>
 </g>
 <defs>
  <clipPath id="p83f0413b2e">
   <path d="M 234.45 109.08 
C 234.45 98.159529 232.298905 87.345246 228.119822 77.256046 
C 223.940739 67.166846 217.814939 57.998939 210.093 50.277 
C 202.371061 42.555061 193.203154 36.429261 183.113954 32.250178 
C 173.024754 28.071095 162.210471 25.92 151.29 25.92 
C 140.369529 25.92 129.555246 28.071095 119.466046 32.250178 
C 109.376846 36.429261 100.208939 42.555061 92.487 50.277 
C 84.765061 57.998939 78.639261 67.166846 74.460178 77.256046 
C 70.281095 87.345246 68.13 98.159529 68.13 109.08 
C 68.13 120.000471 70.281095 130.814754 74.460178 140.903954 
C 78.639261 150.993154 84.765061 160.161061 92.487 167.883 
C 100.208939 175.604939 109.376846 181.730739 119.466046 185.909822 
C 129.555246 190.088905 140.369529 192.24 151.29 192.24 
C 162.210471 192.24 173.024754 190.088905 183.113954 185.909822 
C 193.203154 181.730739 202.371061 175.604939 210.093 167.883 
C 217.814939 160.161061 223.940739 150.993154 228.119822 140.903954 
C 232.298905 130.814754 234.45 120.000471 234.45 109.08 
M 151.29 109.08 
C 151.29 109.08 151.29 109.08 151.29 109.08 
C 151.29 109.08 151.29 109.08 151.29 109.08 
C 151.29 109.08 151.29 109.08 151.29 109.08 
C 151.29 109.08 151.29 109.08 151.29 109.08 
C 151.29 109.08 151.29 109.08 151.29 109.08 
C 151.29 109.08 151.29 109.08 151.29 109.08 
C 151.29 109.08 151.29 109.08 151.29 109.08 
C 151.29 109.08 151.29 109.08 151.29 109.08 
C 151.29 109.08 151.29 109.08 151.29 109.08 
C 151.29 109.08 151.29 109.08 151.29 109.08 
C 151.29 109.08 151.29 109.08 151.29 109.08 
C 151.29 109.08 151.29 109.08 151.29 109.08 
C 151.29 109.08 151.29 109.08 151.29 109.08 
C 151.29 109.08 151.29 109.08 151.29 109.08 
C 151.29 109.08 151.29 109.08 151.29 109.08 
C 151.29 109.08 151.29 109.08 151.29 109.08 
z
"/>
  </clipPath>
 </defs>
</svg>
