<?xml version="1.0" encoding="utf-8" standalone="no"?>
<!DOCTYPE svg PUBLIC "-//W3C//DTD SVG 1.1//EN"
  "http://www.w3.org/Graphics/SVG/1.1/DTD/svg11.dtd">
<svg xmlns:xlink="http://www.w3.org/1999/xlink" width="1382.4pt" height="696.24pt" viewBox="0 0 1382.4 696.24" xmlns="http://www.w3.org/2000/svg" version="1.1">
 <metadata>
  <rdf:RDF xmlns:dc="http://purl.org/dc/elements/1.1/" xmlns:cc="http://creativecommons.org/ns#" xmlns:rdf="http://www.w3.org/1999/02/22-rdf-syntax-ns#">
   <cc:Work>
    <dc:type rdf:resource="http://purl.org/dc/dcmitype/StillImage"/>
    <dc:date>2024-04-23T22:17:11.127766</dc:date>
    <dc:format>image/svg+xml</dc:format>
    <dc:creator>
     <cc:Agent>
      <dc:title>Matplotlib v3.8.2, https://matplotlib.org/</dc:title>
     </cc:Agent>
    </dc:creator>
   </cc:Work>
  </rdf:RDF>
 </metadata>
 <defs>
  <style type="text/css">*{stroke-linejoin: round; stroke-linecap: butt}</style>
 </defs>
 <g id="figure_1">
  <g id="patch_1">
   <path d="M 0 696.24 
L 1382.4 696.24 
L 1382.4 0 
L 0 0 
z
" style="fill: #ffffff"/>
  </g>
  <g id="axes_1">
   <g id="patch_2">
    <path d="M 976.5324 619.6536 
C 976.5324 477.524297 920.011533 341.070854 819.51094 240.57026 
C 719.010346 140.069667 582.556903 83.5488 440.4276 83.5488 
L 440.4276 619.6536 
C 440.4276 619.6536 440.4276 619.6536 440.4276 619.6536 
C 440.4276 619.6536 440.4276 619.6536 440.4276 619.6536 
z
" style="fill: #ffffff"/>
   </g>
   <g id="matplotlib.axis_1">
    <g id="xtick_1">
     <g id="line2d_1">
      <path d="M 440.4276 619.6536 
L 440.4276 83.5488 
" clip-path="url(#p74d57c1657)" style="fill: none; stroke: #b0b0b0; stroke-width: 0.8; stroke-linecap: square"/>
     </g>
     <g id="text_1">
      <!-- 0.00 -->
      <g transform="translate(423.728381 73.687863) scale(0.15 -0.15)">
       <defs>
        <path id="DejaVuSans-30" d="M 2034 4250 
Q 1547 4250 1301 3770 
Q 1056 3291 1056 2328 
Q 1056 1369 1301 889 
Q 1547 409 2034 409 
Q 2525 409 2770 889 
Q 3016 1369 3016 2328 
Q 3016 3291 2770 3770 
Q 2525 4250 2034 4250 
z
M 2034 4750 
Q 2819 4750 3233 4129 
Q 3647 3509 3647 2328 
Q 3647 1150 3233 529 
Q 2819 -91 2034 -91 
Q 1250 -91 836 529 
Q 422 1150 422 2328 
Q 422 3509 836 4129 
Q 1250 4750 2034 4750 
z
" transform="scale(0.015625)"/>
        <path id="DejaVuSans-2e" d="M 684 794 
L 1344 794 
L 1344 0 
L 684 0 
L 684 794 
z
" transform="scale(0.015625)"/>
       </defs>
       <use xlink:href="#DejaVuSans-30"/>
       <use xlink:href="#DejaVuSans-2e" x="63.623047"/>
       <use xlink:href="#DejaVuSans-30" x="95.410156"/>
       <use xlink:href="#DejaVuSans-30" x="159.033203"/>
      </g>
     </g>
    </g>
    <g id="xtick_2">
     <g id="line2d_2">
      <path d="M 440.4276 619.6536 
L 494.03808 86.236059 
" clip-path="url(#p74d57c1657)" style="fill: none; stroke: #b0b0b0; stroke-width: 0.8; stroke-linecap: square"/>
     </g>
     <g id="text_2">
      <!-- 0.10 -->
      <g transform="translate(478.738861 76.445297) scale(0.15 -0.15)">
       <defs>
        <path id="DejaVuSans-31" d="M 794 531 
L 1825 531 
L 1825 4091 
L 703 3866 
L 703 4441 
L 1819 4666 
L 2450 4666 
L 2450 531 
L 3481 531 
L 3481 0 
L 794 0 
L 794 531 
z
" transform="scale(0.015625)"/>
       </defs>
       <use xlink:href="#DejaVuSans-30"/>
       <use xlink:href="#DejaVuSans-2e" x="63.623047"/>
       <use xlink:href="#DejaVuSans-31" x="95.410156"/>
       <use xlink:href="#DejaVuSans-30" x="159.033203"/>
      </g>
     </g>
    </g>
    <g id="xtick_3">
     <g id="line2d_3">
      <path d="M 440.4276 619.6536 
L 547.64856 94.380317 
" clip-path="url(#p74d57c1657)" style="fill: none; stroke: #b0b0b0; stroke-width: 0.8; stroke-linecap: square"/>
     </g>
     <g id="text_3">
      <!-- 0.20 -->
      <g transform="translate(533.749341 84.802236) scale(0.15 -0.15)">
       <defs>
        <path id="DejaVuSans-32" d="M 1228 531 
L 3431 531 
L 3431 0 
L 469 0 
L 469 531 
Q 828 903 1448 1529 
Q 2069 2156 2228 2338 
Q 2531 2678 2651 2914 
Q 2772 3150 2772 3378 
Q 2772 3750 2511 3984 
Q 2250 4219 1831 4219 
Q 1534 4219 1204 4116 
Q 875 4013 500 3803 
L 500 4441 
Q 881 4594 1212 4672 
Q 1544 4750 1819 4750 
Q 2544 4750 2975 4387 
Q 3406 4025 3406 3419 
Q 3406 3131 3298 2873 
Q 3191 2616 2906 2266 
Q 2828 2175 2409 1742 
Q 1991 1309 1228 531 
z
" transform="scale(0.015625)"/>
       </defs>
       <use xlink:href="#DejaVuSans-30"/>
       <use xlink:href="#DejaVuSans-2e" x="63.623047"/>
       <use xlink:href="#DejaVuSans-32" x="95.410156"/>
       <use xlink:href="#DejaVuSans-30" x="159.033203"/>
      </g>
     </g>
    </g>
    <g id="xtick_4">
     <g id="line2d_4">
      <path d="M 440.4276 619.6536 
L 601.25904 108.242215 
" clip-path="url(#p74d57c1657)" style="fill: none; stroke: #b0b0b0; stroke-width: 0.8; stroke-linecap: square"/>
     </g>
     <g id="text_4">
      <!-- 0.30 -->
      <g transform="translate(588.759821 99.026129) scale(0.15 -0.15)">
       <defs>
        <path id="DejaVuSans-33" d="M 2597 2516 
Q 3050 2419 3304 2112 
Q 3559 1806 3559 1356 
Q 3559 666 3084 287 
Q 2609 -91 1734 -91 
Q 1441 -91 1130 -33 
Q 819 25 488 141 
L 488 750 
Q 750 597 1062 519 
Q 1375 441 1716 441 
Q 2309 441 2620 675 
Q 2931 909 2931 1356 
Q 2931 1769 2642 2001 
Q 2353 2234 1838 2234 
L 1294 2234 
L 1294 2753 
L 1863 2753 
Q 2328 2753 2575 2939 
Q 2822 3125 2822 3475 
Q 2822 3834 2567 4026 
Q 2313 4219 1838 4219 
Q 1578 4219 1281 4162 
Q 984 4106 628 3988 
L 628 4550 
Q 988 4650 1302 4700 
Q 1616 4750 1894 4750 
Q 2613 4750 3031 4423 
Q 3450 4097 3450 3541 
Q 3450 3153 3228 2886 
Q 3006 2619 2597 2516 
z
" transform="scale(0.015625)"/>
       </defs>
       <use xlink:href="#DejaVuSans-30"/>
       <use xlink:href="#DejaVuSans-2e" x="63.623047"/>
       <use xlink:href="#DejaVuSans-33" x="95.410156"/>
       <use xlink:href="#DejaVuSans-30" x="159.033203"/>
      </g>
     </g>
    </g>
    <g id="xtick_5">
     <g id="line2d_5">
      <path d="M 440.4276 619.6536 
L 654.86952 128.305435 
" clip-path="url(#p74d57c1657)" style="fill: none; stroke: #b0b0b0; stroke-width: 0.8; stroke-linecap: square"/>
     </g>
     <g id="text_5">
      <!-- 0.40 -->
      <g transform="translate(643.770301 119.613285) scale(0.15 -0.15)">
       <defs>
        <path id="DejaVuSans-34" d="M 2419 4116 
L 825 1625 
L 2419 1625 
L 2419 4116 
z
M 2253 4666 
L 3047 4666 
L 3047 1625 
L 3713 1625 
L 3713 1100 
L 3047 1100 
L 3047 0 
L 2419 0 
L 2419 1100 
L 313 1100 
L 313 1709 
L 2253 4666 
z
" transform="scale(0.015625)"/>
       </defs>
       <use xlink:href="#DejaVuSans-30"/>
       <use xlink:href="#DejaVuSans-2e" x="63.623047"/>
       <use xlink:href="#DejaVuSans-34" x="95.410156"/>
       <use xlink:href="#DejaVuSans-30" x="159.033203"/>
      </g>
     </g>
    </g>
    <g id="xtick_6">
     <g id="line2d_6">
      <path d="M 440.4276 619.6536 
L 708.48 155.373224 
" clip-path="url(#p74d57c1657)" style="fill: none; stroke: #b0b0b0; stroke-width: 0.8; stroke-linecap: square"/>
     </g>
     <g id="text_6">
      <!-- 0.50 -->
      <g transform="translate(698.780781 147.387931) scale(0.15 -0.15)">
       <defs>
        <path id="DejaVuSans-35" d="M 691 4666 
L 3169 4666 
L 3169 4134 
L 1269 4134 
L 1269 2991 
Q 1406 3038 1543 3061 
Q 1681 3084 1819 3084 
Q 2600 3084 3056 2656 
Q 3513 2228 3513 1497 
Q 3513 744 3044 326 
Q 2575 -91 1722 -91 
Q 1428 -91 1123 -41 
Q 819 9 494 109 
L 494 744 
Q 775 591 1075 516 
Q 1375 441 1709 441 
Q 2250 441 2565 725 
Q 2881 1009 2881 1497 
Q 2881 1984 2565 2268 
Q 2250 2553 1709 2553 
Q 1456 2553 1204 2497 
Q 953 2441 691 2322 
L 691 4666 
z
" transform="scale(0.015625)"/>
       </defs>
       <use xlink:href="#DejaVuSans-30"/>
       <use xlink:href="#DejaVuSans-2e" x="63.623047"/>
       <use xlink:href="#DejaVuSans-35" x="95.410156"/>
       <use xlink:href="#DejaVuSans-30" x="159.033203"/>
      </g>
     </g>
    </g>
    <g id="xtick_7">
     <g id="line2d_7">
      <path d="M 440.4276 619.6536 
L 762.09048 190.76976 
" clip-path="url(#p74d57c1657)" style="fill: none; stroke: #b0b0b0; stroke-width: 0.8; stroke-linecap: square"/>
     </g>
     <g id="text_7">
      <!-- 0.60 -->
      <g transform="translate(753.791261 183.708823) scale(0.15 -0.15)">
       <defs>
        <path id="DejaVuSans-36" d="M 2113 2584 
Q 1688 2584 1439 2293 
Q 1191 2003 1191 1497 
Q 1191 994 1439 701 
Q 1688 409 2113 409 
Q 2538 409 2786 701 
Q 3034 994 3034 1497 
Q 3034 2003 2786 2293 
Q 2538 2584 2113 2584 
z
M 3366 4563 
L 3366 3988 
Q 3128 4100 2886 4159 
Q 2644 4219 2406 4219 
Q 1781 4219 1451 3797 
Q 1122 3375 1075 2522 
Q 1259 2794 1537 2939 
Q 1816 3084 2150 3084 
Q 2853 3084 3261 2657 
Q 3669 2231 3669 1497 
Q 3669 778 3244 343 
Q 2819 -91 2113 -91 
Q 1303 -91 875 529 
Q 447 1150 447 2328 
Q 447 3434 972 4092 
Q 1497 4750 2381 4750 
Q 2619 4750 2861 4703 
Q 3103 4656 3366 4563 
z
" transform="scale(0.015625)"/>
       </defs>
       <use xlink:href="#DejaVuSans-30"/>
       <use xlink:href="#DejaVuSans-2e" x="63.623047"/>
       <use xlink:href="#DejaVuSans-36" x="95.410156"/>
       <use xlink:href="#DejaVuSans-30" x="159.033203"/>
      </g>
     </g>
    </g>
    <g id="xtick_8">
     <g id="line2d_8">
      <path d="M 440.4276 619.6536 
L 815.70096 236.798194 
" clip-path="url(#p74d57c1657)" style="fill: none; stroke: #b0b0b0; stroke-width: 0.8; stroke-linecap: square"/>
     </g>
     <g id="text_8">
      <!-- 0.70 -->
      <g transform="translate(808.801741 230.939257) scale(0.15 -0.15)">
       <defs>
        <path id="DejaVuSans-37" d="M 525 4666 
L 3525 4666 
L 3525 4397 
L 1831 0 
L 1172 0 
L 2766 4134 
L 525 4134 
L 525 4666 
z
" transform="scale(0.015625)"/>
       </defs>
       <use xlink:href="#DejaVuSans-30"/>
       <use xlink:href="#DejaVuSans-2e" x="63.623047"/>
       <use xlink:href="#DejaVuSans-37" x="95.410156"/>
       <use xlink:href="#DejaVuSans-30" x="159.033203"/>
      </g>
     </g>
    </g>
    <g id="xtick_9">
     <g id="line2d_9">
      <path d="M 440.4276 619.6536 
L 869.31144 297.99072 
" clip-path="url(#p74d57c1657)" style="fill: none; stroke: #b0b0b0; stroke-width: 0.8; stroke-linecap: square"/>
     </g>
     <g id="text_9">
      <!-- 0.80 -->
      <g transform="translate(863.812221 293.729783) scale(0.15 -0.15)">
       <defs>
        <path id="DejaVuSans-38" d="M 2034 2216 
Q 1584 2216 1326 1975 
Q 1069 1734 1069 1313 
Q 1069 891 1326 650 
Q 1584 409 2034 409 
Q 2484 409 2743 651 
Q 3003 894 3003 1313 
Q 3003 1734 2745 1975 
Q 2488 2216 2034 2216 
z
M 1403 2484 
Q 997 2584 770 2862 
Q 544 3141 544 3541 
Q 544 4100 942 4425 
Q 1341 4750 2034 4750 
Q 2731 4750 3128 4425 
Q 3525 4100 3525 3541 
Q 3525 3141 3298 2862 
Q 3072 2584 2669 2484 
Q 3125 2378 3379 2068 
Q 3634 1759 3634 1313 
Q 3634 634 3220 271 
Q 2806 -91 2034 -91 
Q 1263 -91 848 271 
Q 434 634 434 1313 
Q 434 1759 690 2068 
Q 947 2378 1403 2484 
z
M 1172 3481 
Q 1172 3119 1398 2916 
Q 1625 2713 2034 2713 
Q 2441 2713 2670 2916 
Q 2900 3119 2900 3481 
Q 2900 3844 2670 4047 
Q 2441 4250 2034 4250 
Q 1625 4250 1398 4047 
Q 1172 3844 1172 3481 
z
" transform="scale(0.015625)"/>
       </defs>
       <use xlink:href="#DejaVuSans-30"/>
       <use xlink:href="#DejaVuSans-2e" x="63.623047"/>
       <use xlink:href="#DejaVuSans-38" x="95.410156"/>
       <use xlink:href="#DejaVuSans-30" x="159.033203"/>
      </g>
     </g>
    </g>
    <g id="xtick_10">
     <g id="line2d_10">
      <path d="M 440.4276 619.6536 
L 922.92192 385.970935 
" clip-path="url(#p74d57c1657)" style="fill: none; stroke: #b0b0b0; stroke-width: 0.8; stroke-linecap: square"/>
     </g>
     <g id="text_10">
      <!-- 0.90 -->
      <g transform="translate(918.822701 384.007539) scale(0.15 -0.15)">
       <defs>
        <path id="DejaVuSans-39" d="M 703 97 
L 703 672 
Q 941 559 1184 500 
Q 1428 441 1663 441 
Q 2288 441 2617 861 
Q 2947 1281 2994 2138 
Q 2813 1869 2534 1725 
Q 2256 1581 1919 1581 
Q 1219 1581 811 2004 
Q 403 2428 403 3163 
Q 403 3881 828 4315 
Q 1253 4750 1959 4750 
Q 2769 4750 3195 4129 
Q 3622 3509 3622 2328 
Q 3622 1225 3098 567 
Q 2575 -91 1691 -91 
Q 1453 -91 1209 -44 
Q 966 3 703 97 
z
M 1959 2075 
Q 2384 2075 2632 2365 
Q 2881 2656 2881 3163 
Q 2881 3666 2632 3958 
Q 2384 4250 1959 4250 
Q 1534 4250 1286 3958 
Q 1038 3666 1038 3163 
Q 1038 2656 1286 2365 
Q 1534 2075 1959 2075 
z
" transform="scale(0.015625)"/>
       </defs>
       <use xlink:href="#DejaVuSans-30"/>
       <use xlink:href="#DejaVuSans-2e" x="63.623047"/>
       <use xlink:href="#DejaVuSans-39" x="95.410156"/>
       <use xlink:href="#DejaVuSans-30" x="159.033203"/>
      </g>
     </g>
    </g>
    <g id="xtick_11">
     <g id="line2d_11">
      <path d="M 440.4276 619.6536 
L 976.5324 619.6536 
" clip-path="url(#p74d57c1657)" style="fill: none; stroke: #b0b0b0; stroke-width: 0.8; stroke-linecap: square"/>
     </g>
     <g id="text_11">
      <!-- 1.00 -->
      <g transform="translate(973.833181 623.792663) scale(0.15 -0.15)">
       <use xlink:href="#DejaVuSans-31"/>
       <use xlink:href="#DejaVuSans-2e" x="63.623047"/>
       <use xlink:href="#DejaVuSans-30" x="95.410156"/>
       <use xlink:href="#DejaVuSans-30" x="159.033203"/>
      </g>
     </g>
    </g>
    <g id="xtick_12">
     <g id="line2d_12">
      <path d="M 440.4276 619.6536 
L 922.92192 385.970935 
" clip-path="url(#p74d57c1657)" style="fill: none; stroke: #b0b0b0; stroke-width: 0.8; stroke-linecap: square"/>
     </g>
     <g id="text_12">
      <!-- 0.90 -->
      <g transform="translate(918.822701 384.007539) scale(0.15 -0.15)">
       <use xlink:href="#DejaVuSans-30"/>
       <use xlink:href="#DejaVuSans-2e" x="63.623047"/>
       <use xlink:href="#DejaVuSans-39" x="95.410156"/>
       <use xlink:href="#DejaVuSans-30" x="159.033203"/>
      </g>
     </g>
    </g>
    <g id="xtick_13">
     <g id="line2d_13">
      <path d="M 440.4276 619.6536 
L 933.644016 409.544287 
" clip-path="url(#p74d57c1657)" style="fill: none; stroke: #b0b0b0; stroke-width: 0.8; stroke-linecap: square"/>
     </g>
     <g id="text_13">
      <!-- 0.92 -->
      <g transform="translate(929.824797 408.196492) scale(0.15 -0.15)">
       <use xlink:href="#DejaVuSans-30"/>
       <use xlink:href="#DejaVuSans-2e" x="63.623047"/>
       <use xlink:href="#DejaVuSans-39" x="95.410156"/>
       <use xlink:href="#DejaVuSans-32" x="159.033203"/>
      </g>
     </g>
    </g>
    <g id="xtick_14">
     <g id="line2d_14">
      <path d="M 440.4276 619.6536 
L 944.366112 436.748344 
" clip-path="url(#p74d57c1657)" style="fill: none; stroke: #b0b0b0; stroke-width: 0.8; stroke-linecap: square"/>
     </g>
     <g id="text_14">
      <!-- 0.94 -->
      <g transform="translate(940.826893 436.110964) scale(0.15 -0.15)">
       <use xlink:href="#DejaVuSans-30"/>
       <use xlink:href="#DejaVuSans-2e" x="63.623047"/>
       <use xlink:href="#DejaVuSans-39" x="95.410156"/>
       <use xlink:href="#DejaVuSans-34" x="159.033203"/>
      </g>
     </g>
    </g>
    <g id="xtick_15">
     <g id="line2d_15">
      <path d="M 440.4276 619.6536 
L 955.088208 469.544256 
" clip-path="url(#p74d57c1657)" style="fill: none; stroke: #b0b0b0; stroke-width: 0.8; stroke-linecap: square"/>
     </g>
     <g id="text_15">
      <!-- 0.96 -->
      <g transform="translate(951.828989 469.763319) scale(0.15 -0.15)">
       <use xlink:href="#DejaVuSans-30"/>
       <use xlink:href="#DejaVuSans-2e" x="63.623047"/>
       <use xlink:href="#DejaVuSans-39" x="95.410156"/>
       <use xlink:href="#DejaVuSans-36" x="159.033203"/>
      </g>
     </g>
    </g>
    <g id="xtick_16">
     <g id="line2d_16">
      <path d="M 440.4276 619.6536 
L 965.810304 512.970092 
" clip-path="url(#p74d57c1657)" style="fill: none; stroke: #b0b0b0; stroke-width: 0.8; stroke-linecap: square"/>
     </g>
     <g id="text_16">
      <!-- 0.98 -->
      <g transform="translate(962.831085 514.323189) scale(0.15 -0.15)">
       <use xlink:href="#DejaVuSans-30"/>
       <use xlink:href="#DejaVuSans-2e" x="63.623047"/>
       <use xlink:href="#DejaVuSans-39" x="95.410156"/>
       <use xlink:href="#DejaVuSans-38" x="159.033203"/>
      </g>
     </g>
    </g>
    <g id="xtick_17">
     <g id="line2d_17">
      <path d="M 440.4276 619.6536 
L 976.5324 619.6536 
" clip-path="url(#p74d57c1657)" style="fill: none; stroke: #b0b0b0; stroke-width: 0.8; stroke-linecap: square"/>
     </g>
     <g id="text_17">
      <!-- 1.00 -->
      <g transform="translate(973.833181 623.792663) scale(0.15 -0.15)">
       <use xlink:href="#DejaVuSans-31"/>
       <use xlink:href="#DejaVuSans-2e" x="63.623047"/>
       <use xlink:href="#DejaVuSans-30" x="95.410156"/>
       <use xlink:href="#DejaVuSans-30" x="159.033203"/>
      </g>
     </g>
    </g>
    <g id="text_18">
     <!-- Standard Deviation of Predicted Values -->
     <g transform="translate(513.187813 662.109069) scale(0.2 -0.2)">
      <defs>
       <path id="DejaVuSans-53" d="M 3425 4513 
L 3425 3897 
Q 3066 4069 2747 4153 
Q 2428 4238 2131 4238 
Q 1616 4238 1336 4038 
Q 1056 3838 1056 3469 
Q 1056 3159 1242 3001 
Q 1428 2844 1947 2747 
L 2328 2669 
Q 3034 2534 3370 2195 
Q 3706 1856 3706 1288 
Q 3706 609 3251 259 
Q 2797 -91 1919 -91 
Q 1588 -91 1214 -16 
Q 841 59 441 206 
L 441 856 
Q 825 641 1194 531 
Q 1563 422 1919 422 
Q 2459 422 2753 634 
Q 3047 847 3047 1241 
Q 3047 1584 2836 1778 
Q 2625 1972 2144 2069 
L 1759 2144 
Q 1053 2284 737 2584 
Q 422 2884 422 3419 
Q 422 4038 858 4394 
Q 1294 4750 2059 4750 
Q 2388 4750 2728 4690 
Q 3069 4631 3425 4513 
z
" transform="scale(0.015625)"/>
       <path id="DejaVuSans-74" d="M 1172 4494 
L 1172 3500 
L 2356 3500 
L 2356 3053 
L 1172 3053 
L 1172 1153 
Q 1172 725 1289 603 
Q 1406 481 1766 481 
L 2356 481 
L 2356 0 
L 1766 0 
Q 1100 0 847 248 
Q 594 497 594 1153 
L 594 3053 
L 172 3053 
L 172 3500 
L 594 3500 
L 594 4494 
L 1172 4494 
z
" transform="scale(0.015625)"/>
       <path id="DejaVuSans-61" d="M 2194 1759 
Q 1497 1759 1228 1600 
Q 959 1441 959 1056 
Q 959 750 1161 570 
Q 1363 391 1709 391 
Q 2188 391 2477 730 
Q 2766 1069 2766 1631 
L 2766 1759 
L 2194 1759 
z
M 3341 1997 
L 3341 0 
L 2766 0 
L 2766 531 
Q 2569 213 2275 61 
Q 1981 -91 1556 -91 
Q 1019 -91 701 211 
Q 384 513 384 1019 
Q 384 1609 779 1909 
Q 1175 2209 1959 2209 
L 2766 2209 
L 2766 2266 
Q 2766 2663 2505 2880 
Q 2244 3097 1772 3097 
Q 1472 3097 1187 3025 
Q 903 2953 641 2809 
L 641 3341 
Q 956 3463 1253 3523 
Q 1550 3584 1831 3584 
Q 2591 3584 2966 3190 
Q 3341 2797 3341 1997 
z
" transform="scale(0.015625)"/>
       <path id="DejaVuSans-6e" d="M 3513 2113 
L 3513 0 
L 2938 0 
L 2938 2094 
Q 2938 2591 2744 2837 
Q 2550 3084 2163 3084 
Q 1697 3084 1428 2787 
Q 1159 2491 1159 1978 
L 1159 0 
L 581 0 
L 581 3500 
L 1159 3500 
L 1159 2956 
Q 1366 3272 1645 3428 
Q 1925 3584 2291 3584 
Q 2894 3584 3203 3211 
Q 3513 2838 3513 2113 
z
" transform="scale(0.015625)"/>
       <path id="DejaVuSans-64" d="M 2906 2969 
L 2906 4863 
L 3481 4863 
L 3481 0 
L 2906 0 
L 2906 525 
Q 2725 213 2448 61 
Q 2172 -91 1784 -91 
Q 1150 -91 751 415 
Q 353 922 353 1747 
Q 353 2572 751 3078 
Q 1150 3584 1784 3584 
Q 2172 3584 2448 3432 
Q 2725 3281 2906 2969 
z
M 947 1747 
Q 947 1113 1208 752 
Q 1469 391 1925 391 
Q 2381 391 2643 752 
Q 2906 1113 2906 1747 
Q 2906 2381 2643 2742 
Q 2381 3103 1925 3103 
Q 1469 3103 1208 2742 
Q 947 2381 947 1747 
z
" transform="scale(0.015625)"/>
       <path id="DejaVuSans-72" d="M 2631 2963 
Q 2534 3019 2420 3045 
Q 2306 3072 2169 3072 
Q 1681 3072 1420 2755 
Q 1159 2438 1159 1844 
L 1159 0 
L 581 0 
L 581 3500 
L 1159 3500 
L 1159 2956 
Q 1341 3275 1631 3429 
Q 1922 3584 2338 3584 
Q 2397 3584 2469 3576 
Q 2541 3569 2628 3553 
L 2631 2963 
z
" transform="scale(0.015625)"/>
       <path id="DejaVuSans-20" transform="scale(0.015625)"/>
       <path id="DejaVuSans-44" d="M 1259 4147 
L 1259 519 
L 2022 519 
Q 2988 519 3436 956 
Q 3884 1394 3884 2338 
Q 3884 3275 3436 3711 
Q 2988 4147 2022 4147 
L 1259 4147 
z
M 628 4666 
L 1925 4666 
Q 3281 4666 3915 4102 
Q 4550 3538 4550 2338 
Q 4550 1131 3912 565 
Q 3275 0 1925 0 
L 628 0 
L 628 4666 
z
" transform="scale(0.015625)"/>
       <path id="DejaVuSans-65" d="M 3597 1894 
L 3597 1613 
L 953 1613 
Q 991 1019 1311 708 
Q 1631 397 2203 397 
Q 2534 397 2845 478 
Q 3156 559 3463 722 
L 3463 178 
Q 3153 47 2828 -22 
Q 2503 -91 2169 -91 
Q 1331 -91 842 396 
Q 353 884 353 1716 
Q 353 2575 817 3079 
Q 1281 3584 2069 3584 
Q 2775 3584 3186 3129 
Q 3597 2675 3597 1894 
z
M 3022 2063 
Q 3016 2534 2758 2815 
Q 2500 3097 2075 3097 
Q 1594 3097 1305 2825 
Q 1016 2553 972 2059 
L 3022 2063 
z
" transform="scale(0.015625)"/>
       <path id="DejaVuSans-76" d="M 191 3500 
L 800 3500 
L 1894 563 
L 2988 3500 
L 3597 3500 
L 2284 0 
L 1503 0 
L 191 3500 
z
" transform="scale(0.015625)"/>
       <path id="DejaVuSans-69" d="M 603 3500 
L 1178 3500 
L 1178 0 
L 603 0 
L 603 3500 
z
M 603 4863 
L 1178 4863 
L 1178 4134 
L 603 4134 
L 603 4863 
z
" transform="scale(0.015625)"/>
       <path id="DejaVuSans-6f" d="M 1959 3097 
Q 1497 3097 1228 2736 
Q 959 2375 959 1747 
Q 959 1119 1226 758 
Q 1494 397 1959 397 
Q 2419 397 2687 759 
Q 2956 1122 2956 1747 
Q 2956 2369 2687 2733 
Q 2419 3097 1959 3097 
z
M 1959 3584 
Q 2709 3584 3137 3096 
Q 3566 2609 3566 1747 
Q 3566 888 3137 398 
Q 2709 -91 1959 -91 
Q 1206 -91 779 398 
Q 353 888 353 1747 
Q 353 2609 779 3096 
Q 1206 3584 1959 3584 
z
" transform="scale(0.015625)"/>
       <path id="DejaVuSans-66" d="M 2375 4863 
L 2375 4384 
L 1825 4384 
Q 1516 4384 1395 4259 
Q 1275 4134 1275 3809 
L 1275 3500 
L 2222 3500 
L 2222 3053 
L 1275 3053 
L 1275 0 
L 697 0 
L 697 3053 
L 147 3053 
L 147 3500 
L 697 3500 
L 697 3744 
Q 697 4328 969 4595 
Q 1241 4863 1831 4863 
L 2375 4863 
z
" transform="scale(0.015625)"/>
       <path id="DejaVuSans-50" d="M 1259 4147 
L 1259 2394 
L 2053 2394 
Q 2494 2394 2734 2622 
Q 2975 2850 2975 3272 
Q 2975 3691 2734 3919 
Q 2494 4147 2053 4147 
L 1259 4147 
z
M 628 4666 
L 2053 4666 
Q 2838 4666 3239 4311 
Q 3641 3956 3641 3272 
Q 3641 2581 3239 2228 
Q 2838 1875 2053 1875 
L 1259 1875 
L 1259 0 
L 628 0 
L 628 4666 
z
" transform="scale(0.015625)"/>
       <path id="DejaVuSans-63" d="M 3122 3366 
L 3122 2828 
Q 2878 2963 2633 3030 
Q 2388 3097 2138 3097 
Q 1578 3097 1268 2742 
Q 959 2388 959 1747 
Q 959 1106 1268 751 
Q 1578 397 2138 397 
Q 2388 397 2633 464 
Q 2878 531 3122 666 
L 3122 134 
Q 2881 22 2623 -34 
Q 2366 -91 2075 -91 
Q 1284 -91 818 406 
Q 353 903 353 1747 
Q 353 2603 823 3093 
Q 1294 3584 2113 3584 
Q 2378 3584 2631 3529 
Q 2884 3475 3122 3366 
z
" transform="scale(0.015625)"/>
       <path id="DejaVuSans-56" d="M 1831 0 
L 50 4666 
L 709 4666 
L 2188 738 
L 3669 4666 
L 4325 4666 
L 2547 0 
L 1831 0 
z
" transform="scale(0.015625)"/>
       <path id="DejaVuSans-6c" d="M 603 4863 
L 1178 4863 
L 1178 0 
L 603 0 
L 603 4863 
z
" transform="scale(0.015625)"/>
       <path id="DejaVuSans-75" d="M 544 1381 
L 544 3500 
L 1119 3500 
L 1119 1403 
Q 1119 906 1312 657 
Q 1506 409 1894 409 
Q 2359 409 2629 706 
Q 2900 1003 2900 1516 
L 2900 3500 
L 3475 3500 
L 3475 0 
L 2900 0 
L 2900 538 
Q 2691 219 2414 64 
Q 2138 -91 1772 -91 
Q 1169 -91 856 284 
Q 544 659 544 1381 
z
M 1991 3584 
L 1991 3584 
z
" transform="scale(0.015625)"/>
       <path id="DejaVuSans-73" d="M 2834 3397 
L 2834 2853 
Q 2591 2978 2328 3040 
Q 2066 3103 1784 3103 
Q 1356 3103 1142 2972 
Q 928 2841 928 2578 
Q 928 2378 1081 2264 
Q 1234 2150 1697 2047 
L 1894 2003 
Q 2506 1872 2764 1633 
Q 3022 1394 3022 966 
Q 3022 478 2636 193 
Q 2250 -91 1575 -91 
Q 1294 -91 989 -36 
Q 684 19 347 128 
L 347 722 
Q 666 556 975 473 
Q 1284 391 1588 391 
Q 1994 391 2212 530 
Q 2431 669 2431 922 
Q 2431 1156 2273 1281 
Q 2116 1406 1581 1522 
L 1381 1569 
Q 847 1681 609 1914 
Q 372 2147 372 2553 
Q 372 3047 722 3315 
Q 1072 3584 1716 3584 
Q 2034 3584 2315 3537 
Q 2597 3491 2834 3397 
z
" transform="scale(0.015625)"/>
      </defs>
      <use xlink:href="#DejaVuSans-53"/>
      <use xlink:href="#DejaVuSans-74" x="63.476562"/>
      <use xlink:href="#DejaVuSans-61" x="102.685547"/>
      <use xlink:href="#DejaVuSans-6e" x="163.964844"/>
      <use xlink:href="#DejaVuSans-64" x="227.34375"/>
      <use xlink:href="#DejaVuSans-61" x="290.820312"/>
      <use xlink:href="#DejaVuSans-72" x="352.099609"/>
      <use xlink:href="#DejaVuSans-64" x="391.462891"/>
      <use xlink:href="#DejaVuSans-20" x="454.939453"/>
      <use xlink:href="#DejaVuSans-44" x="486.726562"/>
      <use xlink:href="#DejaVuSans-65" x="563.728516"/>
      <use xlink:href="#DejaVuSans-76" x="625.251953"/>
      <use xlink:href="#DejaVuSans-69" x="684.431641"/>
      <use xlink:href="#DejaVuSans-61" x="712.214844"/>
      <use xlink:href="#DejaVuSans-74" x="773.494141"/>
      <use xlink:href="#DejaVuSans-69" x="812.703125"/>
      <use xlink:href="#DejaVuSans-6f" x="840.486328"/>
      <use xlink:href="#DejaVuSans-6e" x="901.667969"/>
      <use xlink:href="#DejaVuSans-20" x="965.046875"/>
      <use xlink:href="#DejaVuSans-6f" x="996.833984"/>
      <use xlink:href="#DejaVuSans-66" x="1058.015625"/>
      <use xlink:href="#DejaVuSans-20" x="1093.220703"/>
      <use xlink:href="#DejaVuSans-50" x="1125.007812"/>
      <use xlink:href="#DejaVuSans-72" x="1183.560547"/>
      <use xlink:href="#DejaVuSans-65" x="1222.423828"/>
      <use xlink:href="#DejaVuSans-64" x="1283.947266"/>
      <use xlink:href="#DejaVuSans-69" x="1347.423828"/>
      <use xlink:href="#DejaVuSans-63" x="1375.207031"/>
      <use xlink:href="#DejaVuSans-74" x="1430.1875"/>
      <use xlink:href="#DejaVuSans-65" x="1469.396484"/>
      <use xlink:href="#DejaVuSans-64" x="1530.919922"/>
      <use xlink:href="#DejaVuSans-20" x="1594.396484"/>
      <use xlink:href="#DejaVuSans-56" x="1626.183594"/>
      <use xlink:href="#DejaVuSans-61" x="1686.841797"/>
      <use xlink:href="#DejaVuSans-6c" x="1748.121094"/>
      <use xlink:href="#DejaVuSans-75" x="1775.904297"/>
      <use xlink:href="#DejaVuSans-65" x="1839.283203"/>
      <use xlink:href="#DejaVuSans-73" x="1900.806641"/>
     </g>
    </g>
   </g>
   <g id="matplotlib.axis_2">
    <g id="ytick_1">
     <g id="line2d_18">
      <path d="M 440.4276 619.6536 
C 440.4276 619.6536 440.4276 619.6536 440.4276 619.6536 
C 440.4276 619.6536 440.4276 619.6536 440.4276 619.6536 
" clip-path="url(#p74d57c1657)" style="fill: none; stroke: #b0b0b0; stroke-width: 0.8; stroke-linecap: square"/>
     </g>
     <g id="text_19">
      <!-- 0.0 -->
      <g transform="translate(429.295412 637.291412) scale(0.14 -0.14)">
       <use xlink:href="#DejaVuSans-30"/>
       <use xlink:href="#DejaVuSans-2e" x="63.623047"/>
       <use xlink:href="#DejaVuSans-30" x="95.410156"/>
      </g>
     </g>
    </g>
    <g id="ytick_2">
     <g id="line2d_19">
      <path d="M 506.366489 619.6536 
C 506.366489 602.172226 499.414634 585.388962 487.053436 573.027764 
C 474.692238 560.666566 457.908974 553.714711 440.4276 553.714711 
" clip-path="url(#p74d57c1657)" style="fill: none; stroke: #b0b0b0; stroke-width: 0.8; stroke-linecap: square"/>
     </g>
     <g id="text_20">
      <!-- 0.5 -->
      <g transform="translate(495.234302 637.291412) scale(0.14 -0.14)">
       <use xlink:href="#DejaVuSans-30"/>
       <use xlink:href="#DejaVuSans-2e" x="63.623047"/>
       <use xlink:href="#DejaVuSans-35" x="95.410156"/>
      </g>
     </g>
    </g>
    <g id="ytick_3">
     <g id="line2d_20">
      <path d="M 572.305379 619.6536 
C 572.305379 584.690853 558.401667 551.124324 533.679271 526.401929 
C 508.956876 501.679533 475.390347 487.775821 440.4276 487.775821 
" clip-path="url(#p74d57c1657)" style="fill: none; stroke: #b0b0b0; stroke-width: 0.8; stroke-linecap: square"/>
     </g>
     <g id="text_21">
      <!-- 1.0 -->
      <g transform="translate(561.173191 637.291412) scale(0.14 -0.14)">
       <use xlink:href="#DejaVuSans-31"/>
       <use xlink:href="#DejaVuSans-2e" x="63.623047"/>
       <use xlink:href="#DejaVuSans-30" x="95.410156"/>
      </g>
     </g>
    </g>
    <g id="ytick_4">
     <g id="line2d_21">
      <path d="M 638.244268 619.6536 
C 638.244268 567.209479 617.388701 516.859686 580.305107 479.776093 
C 543.221514 442.692499 492.871721 421.836932 440.4276 421.836932 
" clip-path="url(#p74d57c1657)" style="fill: none; stroke: #b0b0b0; stroke-width: 0.8; stroke-linecap: square"/>
     </g>
     <g id="text_22">
      <!-- 1.5 -->
      <g transform="translate(627.11208 637.291412) scale(0.14 -0.14)">
       <use xlink:href="#DejaVuSans-31"/>
       <use xlink:href="#DejaVuSans-2e" x="63.623047"/>
       <use xlink:href="#DejaVuSans-35" x="95.410156"/>
      </g>
     </g>
    </g>
    <g id="ytick_5">
     <g id="line2d_22">
      <path d="M 704.183157 619.6536 
C 704.183157 549.728105 676.375734 482.595049 626.930943 433.150257 
C 577.486151 383.705466 510.353095 355.898043 440.4276 355.898043 
" clip-path="url(#p74d57c1657)" style="fill: none; stroke: #b0b0b0; stroke-width: 0.8; stroke-linecap: square"/>
     </g>
     <g id="text_23">
      <!-- 2.0 -->
      <g transform="translate(693.05097 637.291412) scale(0.14 -0.14)">
       <use xlink:href="#DejaVuSans-32"/>
       <use xlink:href="#DejaVuSans-2e" x="63.623047"/>
       <use xlink:href="#DejaVuSans-30" x="95.410156"/>
      </g>
     </g>
    </g>
    <g id="ytick_6">
     <g id="line2d_23">
      <path d="M 770.122046 619.6536 
C 770.122046 532.246732 735.362768 448.330411 673.556779 386.524421 
C 611.750789 324.718432 527.834468 289.959154 440.4276 289.959154 
" clip-path="url(#p74d57c1657)" style="fill: none; stroke: #b0b0b0; stroke-width: 0.8; stroke-linecap: square"/>
     </g>
     <g id="text_24">
      <!-- 2.5 -->
      <g transform="translate(758.989859 637.291412) scale(0.14 -0.14)">
       <use xlink:href="#DejaVuSans-32"/>
       <use xlink:href="#DejaVuSans-2e" x="63.623047"/>
       <use xlink:href="#DejaVuSans-35" x="95.410156"/>
      </g>
     </g>
    </g>
    <g id="ytick_7">
     <g id="line2d_24">
      <path d="M 836.060936 619.6536 
C 836.060936 514.765358 794.349802 414.065773 720.182614 339.898586 
C 646.015427 265.731398 545.315842 224.020264 440.4276 224.020264 
" clip-path="url(#p74d57c1657)" style="fill: none; stroke: #b0b0b0; stroke-width: 0.8; stroke-linecap: square"/>
     </g>
     <g id="text_25">
      <!-- 3.0 -->
      <g transform="translate(824.928748 637.291412) scale(0.14 -0.14)">
       <use xlink:href="#DejaVuSans-33"/>
       <use xlink:href="#DejaVuSans-2e" x="63.623047"/>
       <use xlink:href="#DejaVuSans-30" x="95.410156"/>
      </g>
     </g>
    </g>
    <g id="ytick_8">
     <g id="line2d_25">
      <path d="M 901.999825 619.6536 
C 901.999825 497.283984 853.336835 379.801135 766.80845 293.27275 
C 680.280065 206.744365 562.797216 158.081375 440.4276 158.081375 
" clip-path="url(#p74d57c1657)" style="fill: none; stroke: #b0b0b0; stroke-width: 0.8; stroke-linecap: square"/>
     </g>
     <g id="text_26">
      <!-- 3.5 -->
      <g transform="translate(890.867637 637.291412) scale(0.14 -0.14)">
       <use xlink:href="#DejaVuSans-33"/>
       <use xlink:href="#DejaVuSans-2e" x="63.623047"/>
       <use xlink:href="#DejaVuSans-35" x="95.410156"/>
      </g>
     </g>
    </g>
    <g id="ytick_9">
     <g id="line2d_26">
      <path d="M 967.938714 619.6536 
C 967.938714 479.80261 912.323869 345.536497 813.434286 246.646914 
C 714.544703 147.757331 580.27859 92.142486 440.4276 92.142486 
" clip-path="url(#p74d57c1657)" style="fill: none; stroke: #b0b0b0; stroke-width: 0.8; stroke-linecap: square"/>
     </g>
     <g id="text_27">
      <!-- 4.0 -->
      <g transform="translate(956.806527 637.291412) scale(0.14 -0.14)">
       <use xlink:href="#DejaVuSans-34"/>
       <use xlink:href="#DejaVuSans-2e" x="63.623047"/>
       <use xlink:href="#DejaVuSans-30" x="95.410156"/>
      </g>
     </g>
    </g>
    <g id="text_28">
     <!-- Standard Deviation of Observed Values -->
     <g transform="translate(385.136037 548.066825) rotate(-90) scale(0.2 -0.2)">
      <defs>
       <path id="DejaVuSans-4f" d="M 2522 4238 
Q 1834 4238 1429 3725 
Q 1025 3213 1025 2328 
Q 1025 1447 1429 934 
Q 1834 422 2522 422 
Q 3209 422 3611 934 
Q 4013 1447 4013 2328 
Q 4013 3213 3611 3725 
Q 3209 4238 2522 4238 
z
M 2522 4750 
Q 3503 4750 4090 4092 
Q 4678 3434 4678 2328 
Q 4678 1225 4090 567 
Q 3503 -91 2522 -91 
Q 1538 -91 948 565 
Q 359 1222 359 2328 
Q 359 3434 948 4092 
Q 1538 4750 2522 4750 
z
" transform="scale(0.015625)"/>
       <path id="DejaVuSans-62" d="M 3116 1747 
Q 3116 2381 2855 2742 
Q 2594 3103 2138 3103 
Q 1681 3103 1420 2742 
Q 1159 2381 1159 1747 
Q 1159 1113 1420 752 
Q 1681 391 2138 391 
Q 2594 391 2855 752 
Q 3116 1113 3116 1747 
z
M 1159 2969 
Q 1341 3281 1617 3432 
Q 1894 3584 2278 3584 
Q 2916 3584 3314 3078 
Q 3713 2572 3713 1747 
Q 3713 922 3314 415 
Q 2916 -91 2278 -91 
Q 1894 -91 1617 61 
Q 1341 213 1159 525 
L 1159 0 
L 581 0 
L 581 4863 
L 1159 4863 
L 1159 2969 
z
" transform="scale(0.015625)"/>
      </defs>
      <use xlink:href="#DejaVuSans-53"/>
      <use xlink:href="#DejaVuSans-74" x="63.476562"/>
      <use xlink:href="#DejaVuSans-61" x="102.685547"/>
      <use xlink:href="#DejaVuSans-6e" x="163.964844"/>
      <use xlink:href="#DejaVuSans-64" x="227.34375"/>
      <use xlink:href="#DejaVuSans-61" x="290.820312"/>
      <use xlink:href="#DejaVuSans-72" x="352.099609"/>
      <use xlink:href="#DejaVuSans-64" x="391.462891"/>
      <use xlink:href="#DejaVuSans-20" x="454.939453"/>
      <use xlink:href="#DejaVuSans-44" x="486.726562"/>
      <use xlink:href="#DejaVuSans-65" x="563.728516"/>
      <use xlink:href="#DejaVuSans-76" x="625.251953"/>
      <use xlink:href="#DejaVuSans-69" x="684.431641"/>
      <use xlink:href="#DejaVuSans-61" x="712.214844"/>
      <use xlink:href="#DejaVuSans-74" x="773.494141"/>
      <use xlink:href="#DejaVuSans-69" x="812.703125"/>
      <use xlink:href="#DejaVuSans-6f" x="840.486328"/>
      <use xlink:href="#DejaVuSans-6e" x="901.667969"/>
      <use xlink:href="#DejaVuSans-20" x="965.046875"/>
      <use xlink:href="#DejaVuSans-6f" x="996.833984"/>
      <use xlink:href="#DejaVuSans-66" x="1058.015625"/>
      <use xlink:href="#DejaVuSans-20" x="1093.220703"/>
      <use xlink:href="#DejaVuSans-4f" x="1125.007812"/>
      <use xlink:href="#DejaVuSans-62" x="1203.71875"/>
      <use xlink:href="#DejaVuSans-73" x="1267.195312"/>
      <use xlink:href="#DejaVuSans-65" x="1319.294922"/>
      <use xlink:href="#DejaVuSans-72" x="1380.818359"/>
      <use xlink:href="#DejaVuSans-76" x="1421.931641"/>
      <use xlink:href="#DejaVuSans-65" x="1481.111328"/>
      <use xlink:href="#DejaVuSans-64" x="1542.634766"/>
      <use xlink:href="#DejaVuSans-20" x="1606.111328"/>
      <use xlink:href="#DejaVuSans-56" x="1637.898438"/>
      <use xlink:href="#DejaVuSans-61" x="1698.556641"/>
      <use xlink:href="#DejaVuSans-6c" x="1759.835938"/>
      <use xlink:href="#DejaVuSans-75" x="1787.619141"/>
      <use xlink:href="#DejaVuSans-65" x="1850.998047"/>
      <use xlink:href="#DejaVuSans-73" x="1912.521484"/>
     </g>
    </g>
   </g>
   <g id="line2d_27">
    <defs>
     <path id="m16343facae" d="M -5 5 
L 5 5 
L 5 -5 
L -5 -5 
z
" style="stroke: #1f77b4; stroke-linejoin: miter"/>
    </defs>
    <g clip-path="url(#p74d57c1657)">
     <use xlink:href="#m16343facae" x="755.403872" y="535.150316" style="fill: #1f77b4; stroke: #1f77b4; stroke-linejoin: miter"/>
    </g>
   </g>
   <g id="line2d_28">
    <defs>
     <path id="m1d1ace05b4" d="M -5 0 
L 5 0 
M 0 5 
L 0 -5 
" style="stroke: #000000"/>
    </defs>
    <g clip-path="url(#p74d57c1657)">
     <use xlink:href="#m1d1ace05b4" x="759.549884" y="521.977725" style="stroke: #000000"/>
    </g>
   </g>
   <g id="line2d_29">
    <defs>
     <path id="m74880055de" d="M 0 -5 
L -5 5 
L 5 5 
z
" style="stroke: #ff7f0e; stroke-linejoin: miter"/>
    </defs>
    <g clip-path="url(#p74d57c1657)">
     <use xlink:href="#m74880055de" x="757.856421" y="562.960695" style="fill: #ff7f0e; stroke: #ff7f0e; stroke-linejoin: miter"/>
    </g>
   </g>
   <g id="line2d_30">
    <defs>
     <path id="m887d99e101" d="M 0 7.071068 
L 7.071068 0 
L 0 -7.071068 
L -7.071068 0 
z
" style="stroke: #2ca02c; stroke-linejoin: miter"/>
    </defs>
    <g clip-path="url(#p74d57c1657)">
     <use xlink:href="#m887d99e101" x="749.756034" y="509.155639" style="fill: #2ca02c; stroke: #2ca02c; stroke-linejoin: miter"/>
    </g>
   </g>
   <g id="line2d_31">
    <defs>
     <path id="m66c4530067" d="M -5 5 
L 5 -5 
M -5 -5 
L 5 5 
" style="stroke: #d62728"/>
    </defs>
    <g clip-path="url(#p74d57c1657)">
     <use xlink:href="#m66c4530067" x="741.118962" y="504.233336" style="fill: #d62728; stroke: #d62728"/>
    </g>
   </g>
   <g id="line2d_32">
    <defs>
     <path id="m4f822e74b3" d="M 0 -5 
L -1.12257 -1.545085 
L -4.755283 -1.545085 
L -1.816356 0.59017 
L -2.938926 4.045085 
L -0 1.90983 
L 2.938926 4.045085 
L 1.816356 0.59017 
L 4.755283 -1.545085 
L 1.12257 -1.545085 
z
" style="stroke: #9467bd; stroke-linejoin: bevel"/>
    </defs>
    <g clip-path="url(#p74d57c1657)">
     <use xlink:href="#m4f822e74b3" x="744.039596" y="525.899588" style="fill: #9467bd; stroke: #9467bd; stroke-linejoin: bevel"/>
    </g>
   </g>
   <g id="line2d_33">
    <defs>
     <path id="mb331b7bfdc" d="M 0 -5 
L -4.755283 -1.545085 
L -2.938926 4.045085 
L 2.938926 4.045085 
L 4.755283 -1.545085 
z
" style="stroke: #8c564b; stroke-linejoin: miter"/>
    </defs>
    <g clip-path="url(#p74d57c1657)">
     <use xlink:href="#mb331b7bfdc" x="708.92073" y="509.663119" style="fill: #8c564b; stroke: #8c564b; stroke-linejoin: miter"/>
    </g>
   </g>
   <g id="line2d_34">
    <defs>
     <path id="m7f82ebf144" d="M -1.666667 5 
L 1.666667 5 
L 1.666667 1.666667 
L 5 1.666667 
L 5 -1.666667 
L 1.666667 -1.666667 
L 1.666667 -5 
L -1.666667 -5 
L -1.666667 -1.666667 
L -5 -1.666667 
L -5 1.666667 
L -1.666667 1.666667 
z
" style="stroke: #e377c2; stroke-linejoin: miter"/>
    </defs>
    <g clip-path="url(#p74d57c1657)">
     <use xlink:href="#m7f82ebf144" x="708.299045" y="468.890201" style="fill: #e377c2; stroke: #e377c2; stroke-linejoin: miter"/>
    </g>
   </g>
   <g id="line2d_35">
    <defs>
     <path id="mb6fae8b31d" d="M -2.5 5 
L 0 2.5 
L 2.5 5 
L 5 2.5 
L 2.5 0 
L 5 -2.5 
L 2.5 -5 
L 0 -2.5 
L -2.5 -5 
L -5 -2.5 
L -2.5 0 
L -5 2.5 
z
" style="stroke: #7f7f7f; stroke-linejoin: miter"/>
    </defs>
    <g clip-path="url(#p74d57c1657)">
     <use xlink:href="#mb6fae8b31d" x="722.756485" y="430.096097" style="fill: #7f7f7f; stroke: #7f7f7f; stroke-linejoin: miter"/>
    </g>
   </g>
   <g id="line2d_36">
    <defs>
     <path id="m6de8f9dc81" d="M 0 7.071068 
L 4.242641 0 
L 0 -7.071068 
L -4.242641 0 
z
" style="stroke: #bcbd22; stroke-linejoin: miter"/>
    </defs>
    <g clip-path="url(#p74d57c1657)">
     <use xlink:href="#m6de8f9dc81" x="687.850304" y="451.787607" style="fill: #bcbd22; stroke: #bcbd22; stroke-linejoin: miter"/>
    </g>
   </g>
   <g id="line2d_37">
    <defs>
     <path id="m00fc0ad9a4" d="M 0 -5 
L -4.330127 -2.5 
L -4.330127 2.5 
L -0 5 
L 4.330127 2.5 
L 4.330127 -2.5 
z
" style="stroke: #17becf; stroke-linejoin: miter"/>
    </defs>
    <g clip-path="url(#p74d57c1657)">
     <use xlink:href="#m00fc0ad9a4" x="631.787273" y="439.696461" style="fill: #17becf; stroke: #17becf; stroke-linejoin: miter"/>
    </g>
   </g>
   <g id="line2d_38">
    <defs>
     <path id="mb346b9e426" d="M 0 0 
L 0 5 
M 0 0 
L 4 -2.5 
M 0 0 
L -4 -2.5 
" style="stroke: #1f77b4"/>
    </defs>
    <g clip-path="url(#p74d57c1657)">
     <use xlink:href="#mb346b9e426" x="715.633138" y="391.620797" style="fill: #1f77b4; stroke: #1f77b4"/>
    </g>
   </g>
   <g id="line2d_39">
    <defs>
     <path id="mc4f7130cad" d="M 0 5 
C 1.326016 5 2.597899 4.473168 3.535534 3.535534 
C 4.473168 2.597899 5 1.326016 5 0 
C 5 -1.326016 4.473168 -2.597899 3.535534 -3.535534 
C 2.597899 -4.473168 1.326016 -5 0 -5 
C -1.326016 -5 -2.597899 -4.473168 -3.535534 -3.535534 
C -4.473168 -2.597899 -5 -1.326016 -5 0 
C -5 1.326016 -4.473168 2.597899 -3.535534 3.535534 
C -2.597899 4.473168 -1.326016 5 0 5 
z
" style="stroke: #ff7f0e"/>
    </defs>
    <g clip-path="url(#p74d57c1657)">
     <use xlink:href="#mc4f7130cad" x="674.298653" y="374.150095" style="fill: #ff7f0e; stroke: #ff7f0e"/>
    </g>
   </g>
   <g id="line2d_40">
    <defs>
     <path id="m2d28bb9c76" d="M 0 5 
C 1.326016 5 2.597899 4.473168 3.535534 3.535534 
C 4.473168 2.597899 5 1.326016 5 0 
C 5 -1.326016 4.473168 -2.597899 3.535534 -3.535534 
C 2.597899 -4.473168 1.326016 -5 0 -5 
C -1.326016 -5 -2.597899 -4.473168 -3.535534 -3.535534 
C -4.473168 -2.597899 -5 -1.326016 -5 0 
C -5 1.326016 -4.473168 2.597899 -3.535534 3.535534 
C -2.597899 4.473168 -1.326016 5 0 5 
z
" style="stroke: #2ca02c"/>
    </defs>
    <g clip-path="url(#p74d57c1657)">
     <use xlink:href="#m2d28bb9c76" x="788.858075" y="619.6536" style="fill: #2ca02c; stroke: #2ca02c"/>
    </g>
   </g>
   <g id="QuadContourSet_1">
    <path clip-path="url(#p74d57c1657)" style="fill: none; stroke: #0000ff; stroke-width: 1.5"/>
    <path d="M 656.980296 619.6536 
L 657.035391 619.352609 
L 660.609038 591.115278 
L 660.815002 588.089472 
L 663.983221 577.807331 
L 665.227919 573.768866 
L 667.537413 568.253874 
L 670.398213 561.713526 
L 671.167218 560.229282 
L 674.919951 553.357076 
L 676.654898 550.384852 
L 678.743946 547.157181 
L 682.65373 541.524976 
L 684.563224 538.973401 
L 686.648161 536.353948 
L 690.732036 531.587987 
L 694.888861 527.13093 
L 695.437991 526.585431 
L 699.142897 523.014394 
L 703.477873 519.166251 
L 707.894217 515.567948 
L 712.39405 512.209782 
L 714.659289 510.661376 
L 716.980387 509.087607 
L 721.651824 506.188953 
L 726.406791 503.503486 
L 731.245674 501.027719 
L 736.168668 498.759323 
L 741.175863 496.697145 
L 746.267309 494.841214 
L 751.443045 493.192728 
L 756.703119 491.754014 
L 762.047575 490.528476 
L 767.476425 489.520521 
L 768.064979 489.43551 
L 772.988631 488.732982 
L 778.585179 488.17492 
L 784.266287 487.854733 
L 790.031825 487.78127 
L 792.939492 487.864094 
M 822.586311 492.189541 
L 824.545715 492.712987 
L 826.392457 493.238296 
L 832.754957 495.327708 
L 839.194562 497.796207 
L 845.705155 500.65907 
L 845.906279 500.7554 
L 852.33476 504.128641 
L 859.029863 508.081883 
L 865.732881 512.499825 
L 865.777471 512.533028 
L 872.690756 518.037809 
L 879.63074 524.174117 
L 884.617685 528.988497 
L 886.657785 531.383985 
L 893.862016 540.495811 
L 900.974583 550.518424 
L 902.892725 553.418831 
L 909.113275 571.79909 
L 916.525382 599.184438 
L 920.735853 619.6536 
" clip-path="url(#p74d57c1657)" style="fill: none; stroke: #0000ff; stroke-width: 1.5"/>
    <path d="M 525.102518 619.6536 
L 525.383568 607.486112 
L 526.309416 594.470542 
L 527.37903 585.095122 
L 528.628212 576.684079 
L 529.732465 570.51472 
M 539.818573 532.865387 
L 542.10998 526.505556 
L 543.826635 522.072901 
L 545.791208 517.268735 
L 548.084297 511.985919 
L 550.822898 506.069706 
L 554.182196 499.288904 
L 557.904735 492.267183 
L 560.640349 487.429711 
L 564.636457 480.783877 
L 566.362985 478.010888 
L 569.35082 473.423596 
L 572.422505 468.913969 
L 576.031885 463.870107 
L 578.818583 460.12199 
L 582.142964 455.837296 
L 585.551454 451.62572 
L 589.044087 447.48692 
L 592.62088 443.420787 
L 596.28185 439.427426 
L 600.027021 435.507146 
L 605.18062 430.383762 
L 607.769874 427.887745 
L 611.767321 424.1898 
L 615.848973 420.567677 
L 620.014946 417.0225 
L 625.935667 412.249276 
L 628.599558 410.167401 
L 633.017634 406.859584 
L 641.539301 400.881684 
L 642.107708 400.49289 
L 646.777897 397.435587 
L 655.45522 392.131065 
L 656.372927 391.585919 
L 661.295529 388.795282 
L 668.537878 384.954712 
L 671.395171 383.496787 
L 681.165096 378.89154 
L 681.831762 378.588176 
L 687.174974 376.284663 
L 693.482484 373.752851 
L 698.116004 371.997117 
L 705.613694 369.389712 
L 709.393745 368.151718 
L 717.642832 365.705407 
L 721.008123 364.773067 
L 729.61611 362.648129 
L 732.959115 361.888288 
L 741.569275 360.181992 
L 745.246745 359.527372 
L 753.530294 358.283349 
L 757.87107 357.723598 
L 765.52124 356.938265 
L 770.832151 356.514041 
L 777.559658 356.140792 
L 784.130016 355.940211 
L 790.905213 355.906045 
L 801.797124 356.22383 
L 804.708128 356.375369 
L 814.034533 357.109409 
L 818.848066 357.610328 
L 826.362518 358.579392 
L 833.324732 359.676371 
L 840.688164 361.042764 
L 851.277233 363.397158 
L 855.671197 364.505951 
L 863.893041 366.798349 
L 870.99045 369.019847 
L 878.773674 371.703247 
L 889.428884 375.830176 
L 894.601093 378.035995 
L 902.630314 381.699321 
L 910.762361 385.776693 
L 918.96866 390.241514 
L 927.252479 395.132122 
L 927.252479 395.132122 
" clip-path="url(#p74d57c1657)" style="fill: none; stroke: #0000ff; stroke-width: 1.5"/>
    <path d="M 440.4276 432.259635 
L 441.575269 430.125075 
L 441.615028 430.05267 
M 460.560652 398.869779 
L 460.585694 398.83274 
L 460.764741 398.563795 
L 463.242493 394.941385 
L 464.256643 393.466946 
L 465.990415 391.012833 
L 467.83351 388.418406 
L 468.831345 387.050514 
L 471.495204 383.418918 
L 471.7671 383.057843 
L 474.797544 379.051468 
L 475.240185 378.469074 
L 477.924997 375.027986 
L 479.068978 373.569762 
L 481.152259 370.982431 
L 482.982369 368.721993 
L 484.480948 366.918294 
L 486.980273 363.926704 
L 487.912625 362.839059 
L 491.062615 359.184872 
L 491.448799 358.748205 
L 495.0902 354.652721 
L 495.228923 354.497433 
L 498.837009 350.561195 
L 499.478499 349.86529 
L 502.692598 346.467032 
L 503.812439 345.289762 
L 506.658299 342.37381 
L 508.2307 340.771987 
L 510.735401 338.285111 
L 512.733242 336.313136 
L 514.925141 334.204529 
L 517.320033 331.914418 
L 519.228719 330.135665 
L 521.991044 327.577078 
L 523.647288 326.082136 
L 526.746252 323.302395 
L 528.181962 322.047577 
L 531.585637 319.091687 
L 532.833816 318.035643 
L 536.509184 314.946307 
L 537.603888 314.050011 
L 541.51688 310.867646 
L 542.493177 310.094387 
L 546.608716 306.857133 
L 547.502649 306.172506 
L 551.784686 302.916235 
L 552.633236 302.288135 
L 557.044787 299.046457 
L 557.885835 298.445082 
L 562.389017 295.249348 
L 563.261313 294.647192 
L 567.817379 291.526496 
L 568.760506 290.898358 
L 573.329875 287.879531 
L 574.384218 287.202519 
L 578.926511 284.31013 
L 580.133226 283.563669 
L 584.607293 280.820012 
L 586.008279 279.98586 
L 590.372229 277.410946 
L 592.010097 276.473204 
L 596.221329 274.08475 
L 598.139374 273.029884 
L 602.154603 270.843291 
L 604.396778 269.660152 
L 608.172062 267.68849 
L 610.782954 266.368341 
L 614.273717 264.622323 
L 617.298518 263.158867 
L 620.459578 261.646823 
L 623.944067 260.036238 
L 626.729657 258.764084 
L 630.72017 257.005058 
L 633.083965 255.97626 
L 637.627377 254.070036 
L 639.522511 253.285574 
L 644.666215 251.235996 
L 646.045303 250.694313 
L 651.837186 248.507881 
L 652.652347 248.20484 
L 659.140775 245.890765 
L 659.343648 245.819591 
L 666.118452 243.540626 
L 666.575212 243.393576 
L 672.977174 241.370768 
L 674.142016 241.019643 
L 679.920174 239.312915 
L 681.84262 238.77276 
L 686.947458 237.369854 
L 689.677438 236.658607 
L 694.059031 235.544472 
L 697.646865 234.683056 
L 701.254891 233.839758 
L 705.751277 232.852182 
L 708.535033 232.258814 
L 713.991034 231.172284 
L 715.899445 230.804855 
L 722.366476 229.649901 
L 723.348107 229.481217 
L 730.877926 228.291833 
L 730.880991 228.29137 
L 738.497218 227.238278 
L 739.52153 227.11062 
L 746.197782 226.326457 
L 748.301667 226.107998 
L 753.982668 225.559858 
L 757.218635 225.291661 
L 761.851843 224.942598 
L 766.272706 224.669685 
L 769.805266 224.478977 
L 775.464131 224.250551 
L 777.842878 224.173489 
L 784.793151 224.043177 
L 785.964603 224.030832 
L 794.170357 224.055933 
L 794.259679 224.057309 
L 802.460396 224.254294 
" clip-path="url(#p74d57c1657)" style="fill: none; stroke: #0000ff; stroke-width: 1.5"/>
    <path d="M 440.4276 223.594687 
L 444.463896 220.080702 
L 445.75819 218.964256 
L 448.572214 216.577495 
L 448.590465 216.562006 
M 474.29774 196.194041 
L 474.788196 195.831805 
L 477.949966 193.501519 
L 479.427438 192.431784 
L 484.146329 189.051865 
L 484.642006 188.699787 
L 488.945299 185.698106 
L 491.415489 183.995977 
L 493.825985 182.365168 
L 498.276169 179.391464 
L 498.78936 179.054849 
L 503.835511 175.775119 
L 505.218487 174.88639 
L 508.965842 172.52364 
L 512.245639 170.48206 
L 514.181611 169.300013 
L 519.359267 166.179767 
L 519.483753 166.106204 
L 524.871897 162.951234 
L 526.553296 161.979523 
L 530.348075 159.830287 
L 533.833084 157.883385 
L 535.913287 156.744939 
L 541.198805 153.892665 
L 541.568431 153.697342 
L 547.313207 150.694904 
L 548.646049 150.007703 
L 553.149294 147.735776 
L 556.177859 146.230486 
L 559.077884 144.820783 
L 563.795202 142.56271 
L 565.099834 141.952285 
L 571.215712 139.133719 
L 571.497082 139.005666 
L 577.425322 136.371064 
L 579.280612 135.560118 
L 583.730768 133.661965 
L 587.149389 132.228697 
L 590.132868 131.009015 
L 595.103248 129.013128 
L 596.63243 128.414866 
L 603.142033 125.915207 
L 603.230247 125.882234 
L 609.925638 123.418195 
L 611.262466 122.935728 
L 616.720743 121.021294 
L 619.467606 120.077652 
L 623.616424 118.694169 
L 627.757539 117.343088 
" clip-path="url(#p74d57c1657)" style="fill: none; stroke: #0000ff; stroke-width: 1.5"/>
    <path clip-path="url(#p74d57c1657)" style="fill: none; stroke: #0000ff; stroke-width: 1.5"/>
   </g>
   <g id="line2d_41">
    <path d="M 788.858075 619.6536 
L 788.814217 614.125415 
L 788.682655 608.598621 
L 788.463421 603.07461 
L 788.156572 597.554774 
L 787.762183 592.0405 
L 787.280355 586.533178 
L 786.711208 581.034193 
L 786.054887 575.544931 
L 785.311555 570.066773 
L 784.481401 564.601099 
L 783.564633 559.149283 
L 782.561482 553.712699 
L 781.472201 548.292715 
L 780.297064 542.890696 
L 779.036366 537.508002 
L 777.690426 532.145988 
L 776.259581 526.806003 
L 774.744192 521.489391 
L 773.144641 516.197493 
L 771.461331 510.931638 
L 769.694684 505.693154 
L 767.845146 500.483359 
L 765.913183 495.303564 
L 763.89928 490.155074 
L 761.803945 485.039184 
L 759.627705 479.957183 
L 757.371108 474.91035 
L 755.034723 469.899955 
L 752.619136 464.927259 
L 750.124958 459.993515 
L 747.552814 455.099965 
L 744.903353 450.24784 
L 742.177243 445.438363 
L 739.375168 440.672742 
L 736.497835 435.95218 
L 733.545968 431.277863 
L 730.52031 426.650969 
L 727.421622 422.072662 
L 724.250686 417.544096 
L 721.008298 413.066409 
L 717.695276 408.640729 
L 714.312453 404.268171 
L 710.860681 399.949835 
L 707.340829 395.686808 
L 703.753783 391.480163 
L 700.100446 387.33096 
L 696.381738 383.240243 
L 692.598595 379.209042 
L 688.751969 375.238372 
L 684.842828 371.329231 
L 680.872158 367.482605 
L 676.840957 363.699462 
L 672.75024 359.980754 
L 668.601037 356.327417 
L 664.394392 352.740371 
L 660.131365 349.220519 
L 655.813029 345.768747 
L 651.440471 342.385924 
L 647.014791 339.072902 
L 642.537104 335.830514 
L 638.008538 332.659578 
L 633.430231 329.56089 
L 628.803337 326.535232 
L 624.12902 323.583365 
L 619.408458 320.706032 
L 614.642837 317.903957 
L 609.83336 315.177847 
L 604.981235 312.528386 
L 600.087685 309.956242 
L 595.153941 307.462064 
L 590.181245 305.046477 
L 585.17085 302.710092 
L 580.124017 300.453495 
L 575.042016 298.277255 
L 569.926126 296.18192 
L 564.777636 294.168017 
L 559.597841 292.236054 
L 554.388046 290.386516 
L 549.149562 288.619869 
L 543.883707 286.936559 
L 538.591809 285.337008 
L 533.275197 283.821619 
L 527.935212 282.390774 
L 522.573198 281.044834 
L 517.190504 279.784136 
L 511.788485 278.608999 
L 506.368501 277.519718 
L 500.931917 276.516567 
L 495.480101 275.599799 
L 490.014427 274.769645 
L 484.536269 274.026313 
L 479.047007 273.369992 
L 473.548022 272.800845 
L 468.0407 272.319017 
L 462.526426 271.924628 
L 457.00659 271.617779 
L 451.482579 271.398545 
L 445.955785 271.266983 
L 440.4276 271.223125 
" clip-path="url(#p74d57c1657)" style="fill: none; stroke-dasharray: 5.55,2.4; stroke-dashoffset: 0; stroke: #000000; stroke-width: 1.5"/>
   </g>
   <g id="patch_3">
    <path d="M 976.5324 619.6536 
C 976.5324 477.524297 920.011533 341.070854 819.51094 240.57026 
C 719.010346 140.069667 582.556903 83.5488 440.4276 83.5488 
" style="fill: none; stroke: #000000; stroke-width: 0.8; stroke-linejoin: miter; stroke-linecap: square"/>
   </g>
   <g id="patch_4">
    <path d="M 440.4276 619.6536 
L 976.5324 619.6536 
" style="fill: none; stroke: #000000; stroke-width: 0.8; stroke-linejoin: miter; stroke-linecap: square"/>
   </g>
   <g id="patch_5">
    <path d="M 440.4276 619.6536 
L 440.4276 83.5488 
" style="fill: none; stroke: #000000; stroke-width: 0.8; stroke-linejoin: miter; stroke-linecap: square"/>
   </g>
   <g id="text_29">
    <!-- Standard Deviation: 2.64 -->
    <g transform="translate(617.418089 309.742504) rotate(-315) scale(0.15 -0.15)">
     <defs>
      <path id="DejaVuSans-3a" d="M 750 794 
L 1409 794 
L 1409 0 
L 750 0 
L 750 794 
z
M 750 3309 
L 1409 3309 
L 1409 2516 
L 750 2516 
L 750 3309 
z
" transform="scale(0.015625)"/>
     </defs>
     <use xlink:href="#DejaVuSans-53"/>
     <use xlink:href="#DejaVuSans-74" x="63.476562"/>
     <use xlink:href="#DejaVuSans-61" x="102.685547"/>
     <use xlink:href="#DejaVuSans-6e" x="163.964844"/>
     <use xlink:href="#DejaVuSans-64" x="227.34375"/>
     <use xlink:href="#DejaVuSans-61" x="290.820312"/>
     <use xlink:href="#DejaVuSans-72" x="352.099609"/>
     <use xlink:href="#DejaVuSans-64" x="391.462891"/>
     <use xlink:href="#DejaVuSans-20" x="454.939453"/>
     <use xlink:href="#DejaVuSans-44" x="486.726562"/>
     <use xlink:href="#DejaVuSans-65" x="563.728516"/>
     <use xlink:href="#DejaVuSans-76" x="625.251953"/>
     <use xlink:href="#DejaVuSans-69" x="684.431641"/>
     <use xlink:href="#DejaVuSans-61" x="712.214844"/>
     <use xlink:href="#DejaVuSans-74" x="773.494141"/>
     <use xlink:href="#DejaVuSans-69" x="812.703125"/>
     <use xlink:href="#DejaVuSans-6f" x="840.486328"/>
     <use xlink:href="#DejaVuSans-6e" x="901.667969"/>
     <use xlink:href="#DejaVuSans-3a" x="965.046875"/>
     <use xlink:href="#DejaVuSans-20" x="998.738281"/>
     <use xlink:href="#DejaVuSans-32" x="1030.525391"/>
     <use xlink:href="#DejaVuSans-2e" x="1094.148438"/>
     <use xlink:href="#DejaVuSans-36" x="1125.935547"/>
     <use xlink:href="#DejaVuSans-34" x="1189.558594"/>
    </g>
   </g>
   <g id="text_30">
    <!-- Correlation Coefficient -->
    <g transform="translate(755.008831 146.572174) rotate(-315) scale(0.2 -0.2)">
     <defs>
      <path id="DejaVuSans-43" d="M 4122 4306 
L 4122 3641 
Q 3803 3938 3442 4084 
Q 3081 4231 2675 4231 
Q 1875 4231 1450 3742 
Q 1025 3253 1025 2328 
Q 1025 1406 1450 917 
Q 1875 428 2675 428 
Q 3081 428 3442 575 
Q 3803 722 4122 1019 
L 4122 359 
Q 3791 134 3420 21 
Q 3050 -91 2638 -91 
Q 1578 -91 968 557 
Q 359 1206 359 2328 
Q 359 3453 968 4101 
Q 1578 4750 2638 4750 
Q 3056 4750 3426 4639 
Q 3797 4528 4122 4306 
z
" transform="scale(0.015625)"/>
     </defs>
     <use xlink:href="#DejaVuSans-43"/>
     <use xlink:href="#DejaVuSans-6f" x="69.824219"/>
     <use xlink:href="#DejaVuSans-72" x="131.005859"/>
     <use xlink:href="#DejaVuSans-72" x="170.369141"/>
     <use xlink:href="#DejaVuSans-65" x="209.232422"/>
     <use xlink:href="#DejaVuSans-6c" x="270.755859"/>
     <use xlink:href="#DejaVuSans-61" x="298.539062"/>
     <use xlink:href="#DejaVuSans-74" x="359.818359"/>
     <use xlink:href="#DejaVuSans-69" x="399.027344"/>
     <use xlink:href="#DejaVuSans-6f" x="426.810547"/>
     <use xlink:href="#DejaVuSans-6e" x="487.992188"/>
     <use xlink:href="#DejaVuSans-20" x="551.371094"/>
     <use xlink:href="#DejaVuSans-43" x="583.158203"/>
     <use xlink:href="#DejaVuSans-6f" x="652.982422"/>
     <use xlink:href="#DejaVuSans-65" x="714.164062"/>
     <use xlink:href="#DejaVuSans-66" x="775.6875"/>
     <use xlink:href="#DejaVuSans-66" x="810.892578"/>
     <use xlink:href="#DejaVuSans-69" x="846.097656"/>
     <use xlink:href="#DejaVuSans-63" x="873.880859"/>
     <use xlink:href="#DejaVuSans-69" x="928.861328"/>
     <use xlink:href="#DejaVuSans-65" x="956.644531"/>
     <use xlink:href="#DejaVuSans-6e" x="1018.167969"/>
     <use xlink:href="#DejaVuSans-74" x="1081.546875"/>
    </g>
   </g>
   <g id="text_31">
    <!-- Taylor Diagram -->
    <g transform="translate(632.855 42.290206) scale(0.2 -0.2)">
     <defs>
      <path id="DejaVuSans-54" d="M -19 4666 
L 3928 4666 
L 3928 4134 
L 2272 4134 
L 2272 0 
L 1638 0 
L 1638 4134 
L -19 4134 
L -19 4666 
z
" transform="scale(0.015625)"/>
      <path id="DejaVuSans-79" d="M 2059 -325 
Q 1816 -950 1584 -1140 
Q 1353 -1331 966 -1331 
L 506 -1331 
L 506 -850 
L 844 -850 
Q 1081 -850 1212 -737 
Q 1344 -625 1503 -206 
L 1606 56 
L 191 3500 
L 800 3500 
L 1894 763 
L 2988 3500 
L 3597 3500 
L 2059 -325 
z
" transform="scale(0.015625)"/>
      <path id="DejaVuSans-67" d="M 2906 1791 
Q 2906 2416 2648 2759 
Q 2391 3103 1925 3103 
Q 1463 3103 1205 2759 
Q 947 2416 947 1791 
Q 947 1169 1205 825 
Q 1463 481 1925 481 
Q 2391 481 2648 825 
Q 2906 1169 2906 1791 
z
M 3481 434 
Q 3481 -459 3084 -895 
Q 2688 -1331 1869 -1331 
Q 1566 -1331 1297 -1286 
Q 1028 -1241 775 -1147 
L 775 -588 
Q 1028 -725 1275 -790 
Q 1522 -856 1778 -856 
Q 2344 -856 2625 -561 
Q 2906 -266 2906 331 
L 2906 616 
Q 2728 306 2450 153 
Q 2172 0 1784 0 
Q 1141 0 747 490 
Q 353 981 353 1791 
Q 353 2603 747 3093 
Q 1141 3584 1784 3584 
Q 2172 3584 2450 3431 
Q 2728 3278 2906 2969 
L 2906 3500 
L 3481 3500 
L 3481 434 
z
" transform="scale(0.015625)"/>
      <path id="DejaVuSans-6d" d="M 3328 2828 
Q 3544 3216 3844 3400 
Q 4144 3584 4550 3584 
Q 5097 3584 5394 3201 
Q 5691 2819 5691 2113 
L 5691 0 
L 5113 0 
L 5113 2094 
Q 5113 2597 4934 2840 
Q 4756 3084 4391 3084 
Q 3944 3084 3684 2787 
Q 3425 2491 3425 1978 
L 3425 0 
L 2847 0 
L 2847 2094 
Q 2847 2600 2669 2842 
Q 2491 3084 2119 3084 
Q 1678 3084 1418 2786 
Q 1159 2488 1159 1978 
L 1159 0 
L 581 0 
L 581 3500 
L 1159 3500 
L 1159 2956 
Q 1356 3278 1631 3431 
Q 1906 3584 2284 3584 
Q 2666 3584 2933 3390 
Q 3200 3197 3328 2828 
z
" transform="scale(0.015625)"/>
     </defs>
     <use xlink:href="#DejaVuSans-54"/>
     <use xlink:href="#DejaVuSans-61" x="44.583984"/>
     <use xlink:href="#DejaVuSans-79" x="105.863281"/>
     <use xlink:href="#DejaVuSans-6c" x="165.042969"/>
     <use xlink:href="#DejaVuSans-6f" x="192.826172"/>
     <use xlink:href="#DejaVuSans-72" x="254.007812"/>
     <use xlink:href="#DejaVuSans-20" x="295.121094"/>
     <use xlink:href="#DejaVuSans-44" x="326.908203"/>
     <use xlink:href="#DejaVuSans-69" x="403.910156"/>
     <use xlink:href="#DejaVuSans-61" x="431.693359"/>
     <use xlink:href="#DejaVuSans-67" x="492.972656"/>
     <use xlink:href="#DejaVuSans-72" x="556.449219"/>
     <use xlink:href="#DejaVuSans-61" x="597.5625"/>
     <use xlink:href="#DejaVuSans-6d" x="658.841797"/>
    </g>
   </g>
   <g id="text_32">
    <g clip-path="url(#p74d57c1657)">
     <!-- 1 -->
     <g style="fill: #0000ff" transform="translate(800.910167 493.950275) rotate(-353.763474) scale(0.2 -0.2)">
      <use xlink:href="#DejaVuSans-31"/>
     </g>
    </g>
   </g>
   <g id="text_33">
    <g clip-path="url(#p74d57c1657)">
     <!-- 2 -->
     <g style="fill: #0000ff" transform="translate(537.144562 559.22008) rotate(-70.220933) scale(0.2 -0.2)">
      <use xlink:href="#DejaVuSans-32"/>
     </g>
    </g>
   </g>
   <g id="text_34">
    <g clip-path="url(#p74d57c1657)">
     <!-- 3 -->
     <g style="fill: #0000ff" transform="translate(451.04723 422.555768) rotate(-50.799612) scale(0.2 -0.2)">
      <use xlink:href="#DejaVuSans-33"/>
     </g>
    </g>
   </g>
   <g id="text_35">
    <g clip-path="url(#p74d57c1657)">
     <!-- 4 -->
     <g style="fill: #0000ff" transform="translate(458.664488 214.123485) rotate(-30.547778) scale(0.2 -0.2)">
      <use xlink:href="#DejaVuSans-34"/>
     </g>
    </g>
   </g>
   <g id="legend_1">
    <g id="patch_6">
     <path d="M 889.418337 298.433175 
L 969.5324 298.433175 
Q 971.5324 298.433175 971.5324 296.433175 
L 971.5324 90.5488 
Q 971.5324 88.5488 969.5324 88.5488 
L 889.418337 88.5488 
Q 887.418337 88.5488 887.418337 90.5488 
L 887.418337 296.433175 
Q 887.418337 298.433175 889.418337 298.433175 
z
" style="fill: #ffffff; opacity: 0.8; stroke: #cccccc; stroke-linejoin: miter"/>
    </g>
    <g id="line2d_42">
     <g>
      <use xlink:href="#m16343facae" x="901.418337" y="96.647238" style="fill: #1f77b4; stroke: #1f77b4; stroke-linejoin: miter"/>
     </g>
    </g>
    <g id="text_36">
     <!-- H_M1 -->
     <g transform="translate(919.418337 100.147238) scale(0.1 -0.1)">
      <defs>
       <path id="DejaVuSans-48" d="M 628 4666 
L 1259 4666 
L 1259 2753 
L 3553 2753 
L 3553 4666 
L 4184 4666 
L 4184 0 
L 3553 0 
L 3553 2222 
L 1259 2222 
L 1259 0 
L 628 0 
L 628 4666 
z
" transform="scale(0.015625)"/>
       <path id="DejaVuSans-5f" d="M 3263 -1063 
L 3263 -1509 
L -63 -1509 
L -63 -1063 
L 3263 -1063 
z
" transform="scale(0.015625)"/>
       <path id="DejaVuSans-4d" d="M 628 4666 
L 1569 4666 
L 2759 1491 
L 3956 4666 
L 4897 4666 
L 4897 0 
L 4281 0 
L 4281 4097 
L 3078 897 
L 2444 897 
L 1241 4097 
L 1241 0 
L 628 0 
L 628 4666 
z
" transform="scale(0.015625)"/>
      </defs>
      <use xlink:href="#DejaVuSans-48"/>
      <use xlink:href="#DejaVuSans-5f" x="75.195312"/>
      <use xlink:href="#DejaVuSans-4d" x="125.195312"/>
      <use xlink:href="#DejaVuSans-31" x="211.474609"/>
     </g>
    </g>
    <g id="line2d_43">
     <g>
      <use xlink:href="#m1d1ace05b4" x="901.418337" y="111.603488" style="stroke: #000000"/>
     </g>
    </g>
    <g id="text_37">
     <!-- H_M2 -->
     <g transform="translate(919.418337 115.103488) scale(0.1 -0.1)">
      <use xlink:href="#DejaVuSans-48"/>
      <use xlink:href="#DejaVuSans-5f" x="75.195312"/>
      <use xlink:href="#DejaVuSans-4d" x="125.195312"/>
      <use xlink:href="#DejaVuSans-32" x="211.474609"/>
     </g>
    </g>
    <g id="line2d_44">
     <g>
      <use xlink:href="#m74880055de" x="901.418337" y="126.559738" style="fill: #ff7f0e; stroke: #ff7f0e; stroke-linejoin: miter"/>
     </g>
    </g>
    <g id="text_38">
     <!-- H_M3 -->
     <g transform="translate(919.418337 130.059738) scale(0.1 -0.1)">
      <use xlink:href="#DejaVuSans-48"/>
      <use xlink:href="#DejaVuSans-5f" x="75.195312"/>
      <use xlink:href="#DejaVuSans-4d" x="125.195312"/>
      <use xlink:href="#DejaVuSans-33" x="211.474609"/>
     </g>
    </g>
    <g id="line2d_45">
     <g>
      <use xlink:href="#m887d99e101" x="901.418337" y="141.515988" style="fill: #2ca02c; stroke: #2ca02c; stroke-linejoin: miter"/>
     </g>
    </g>
    <g id="text_39">
     <!-- H_M4 -->
     <g transform="translate(919.418337 145.015988) scale(0.1 -0.1)">
      <use xlink:href="#DejaVuSans-48"/>
      <use xlink:href="#DejaVuSans-5f" x="75.195312"/>
      <use xlink:href="#DejaVuSans-4d" x="125.195312"/>
      <use xlink:href="#DejaVuSans-34" x="211.474609"/>
     </g>
    </g>
    <g id="line2d_46">
     <g>
      <use xlink:href="#m66c4530067" x="901.418337" y="156.472238" style="fill: #d62728; stroke: #d62728"/>
     </g>
    </g>
    <g id="text_40">
     <!-- H_M5 -->
     <g transform="translate(919.418337 159.972238) scale(0.1 -0.1)">
      <use xlink:href="#DejaVuSans-48"/>
      <use xlink:href="#DejaVuSans-5f" x="75.195312"/>
      <use xlink:href="#DejaVuSans-4d" x="125.195312"/>
      <use xlink:href="#DejaVuSans-35" x="211.474609"/>
     </g>
    </g>
    <g id="line2d_47">
     <g>
      <use xlink:href="#m4f822e74b3" x="901.418337" y="171.428488" style="fill: #9467bd; stroke: #9467bd; stroke-linejoin: bevel"/>
     </g>
    </g>
    <g id="text_41">
     <!-- ET -->
     <g transform="translate(919.418337 174.928488) scale(0.1 -0.1)">
      <defs>
       <path id="DejaVuSans-45" d="M 628 4666 
L 3578 4666 
L 3578 4134 
L 1259 4134 
L 1259 2753 
L 3481 2753 
L 3481 2222 
L 1259 2222 
L 1259 531 
L 3634 531 
L 3634 0 
L 628 0 
L 628 4666 
z
" transform="scale(0.015625)"/>
      </defs>
      <use xlink:href="#DejaVuSans-45"/>
      <use xlink:href="#DejaVuSans-54" x="63.183594"/>
     </g>
    </g>
    <g id="line2d_48">
     <g>
      <use xlink:href="#mb331b7bfdc" x="901.418337" y="186.106613" style="fill: #8c564b; stroke: #8c564b; stroke-linejoin: miter"/>
     </g>
    </g>
    <g id="text_42">
     <!-- KNN -->
     <g transform="translate(919.418337 189.606613) scale(0.1 -0.1)">
      <defs>
       <path id="DejaVuSans-4b" d="M 628 4666 
L 1259 4666 
L 1259 2694 
L 3353 4666 
L 4166 4666 
L 1850 2491 
L 4331 0 
L 3500 0 
L 1259 2247 
L 1259 0 
L 628 0 
L 628 4666 
z
" transform="scale(0.015625)"/>
       <path id="DejaVuSans-4e" d="M 628 4666 
L 1478 4666 
L 3547 763 
L 3547 4666 
L 4159 4666 
L 4159 0 
L 3309 0 
L 1241 3903 
L 1241 0 
L 628 0 
L 628 4666 
z
" transform="scale(0.015625)"/>
      </defs>
      <use xlink:href="#DejaVuSans-4b"/>
      <use xlink:href="#DejaVuSans-4e" x="65.576172"/>
      <use xlink:href="#DejaVuSans-4e" x="140.380859"/>
     </g>
    </g>
    <g id="line2d_49">
     <g>
      <use xlink:href="#m7f82ebf144" x="901.418337" y="200.784738" style="fill: #e377c2; stroke: #e377c2; stroke-linejoin: miter"/>
     </g>
    </g>
    <g id="text_43">
     <!-- Bag -->
     <g transform="translate(919.418337 204.284738) scale(0.1 -0.1)">
      <defs>
       <path id="DejaVuSans-42" d="M 1259 2228 
L 1259 519 
L 2272 519 
Q 2781 519 3026 730 
Q 3272 941 3272 1375 
Q 3272 1813 3026 2020 
Q 2781 2228 2272 2228 
L 1259 2228 
z
M 1259 4147 
L 1259 2741 
L 2194 2741 
Q 2656 2741 2882 2914 
Q 3109 3088 3109 3444 
Q 3109 3797 2882 3972 
Q 2656 4147 2194 4147 
L 1259 4147 
z
M 628 4666 
L 2241 4666 
Q 2963 4666 3353 4366 
Q 3744 4066 3744 3513 
Q 3744 3084 3544 2831 
Q 3344 2578 2956 2516 
Q 3422 2416 3680 2098 
Q 3938 1781 3938 1306 
Q 3938 681 3513 340 
Q 3088 0 2303 0 
L 628 0 
L 628 4666 
z
" transform="scale(0.015625)"/>
      </defs>
      <use xlink:href="#DejaVuSans-42"/>
      <use xlink:href="#DejaVuSans-61" x="68.603516"/>
      <use xlink:href="#DejaVuSans-67" x="129.882812"/>
     </g>
    </g>
    <g id="line2d_50">
     <g>
      <use xlink:href="#mb6fae8b31d" x="901.418337" y="215.462863" style="fill: #7f7f7f; stroke: #7f7f7f; stroke-linejoin: miter"/>
     </g>
    </g>
    <g id="text_44">
     <!-- CAT -->
     <g transform="translate(919.418337 218.962863) scale(0.1 -0.1)">
      <defs>
       <path id="DejaVuSans-41" d="M 2188 4044 
L 1331 1722 
L 3047 1722 
L 2188 4044 
z
M 1831 4666 
L 2547 4666 
L 4325 0 
L 3669 0 
L 3244 1197 
L 1141 1197 
L 716 0 
L 50 0 
L 1831 4666 
z
" transform="scale(0.015625)"/>
      </defs>
      <use xlink:href="#DejaVuSans-43"/>
      <use xlink:href="#DejaVuSans-41" x="69.824219"/>
      <use xlink:href="#DejaVuSans-54" x="130.482422"/>
     </g>
    </g>
    <g id="line2d_51">
     <g>
      <use xlink:href="#m6de8f9dc81" x="901.418337" y="230.140988" style="fill: #bcbd22; stroke: #bcbd22; stroke-linejoin: miter"/>
     </g>
    </g>
    <g id="text_45">
     <!-- RF -->
     <g transform="translate(919.418337 233.640988) scale(0.1 -0.1)">
      <defs>
       <path id="DejaVuSans-52" d="M 2841 2188 
Q 3044 2119 3236 1894 
Q 3428 1669 3622 1275 
L 4263 0 
L 3584 0 
L 2988 1197 
Q 2756 1666 2539 1819 
Q 2322 1972 1947 1972 
L 1259 1972 
L 1259 0 
L 628 0 
L 628 4666 
L 2053 4666 
Q 2853 4666 3247 4331 
Q 3641 3997 3641 3322 
Q 3641 2881 3436 2590 
Q 3231 2300 2841 2188 
z
M 1259 4147 
L 1259 2491 
L 2053 2491 
Q 2509 2491 2742 2702 
Q 2975 2913 2975 3322 
Q 2975 3731 2742 3939 
Q 2509 4147 2053 4147 
L 1259 4147 
z
" transform="scale(0.015625)"/>
       <path id="DejaVuSans-46" d="M 628 4666 
L 3309 4666 
L 3309 4134 
L 1259 4134 
L 1259 2759 
L 3109 2759 
L 3109 2228 
L 1259 2228 
L 1259 0 
L 628 0 
L 628 4666 
z
" transform="scale(0.015625)"/>
      </defs>
      <use xlink:href="#DejaVuSans-52"/>
      <use xlink:href="#DejaVuSans-46" x="69.482422"/>
     </g>
    </g>
    <g id="line2d_52">
     <g>
      <use xlink:href="#m00fc0ad9a4" x="901.418337" y="244.819113" style="fill: #17becf; stroke: #17becf; stroke-linejoin: miter"/>
     </g>
    </g>
    <g id="text_46">
     <!-- SVR -->
     <g transform="translate(919.418337 248.319113) scale(0.1 -0.1)">
      <use xlink:href="#DejaVuSans-53"/>
      <use xlink:href="#DejaVuSans-56" x="63.476562"/>
      <use xlink:href="#DejaVuSans-52" x="131.884766"/>
     </g>
    </g>
    <g id="line2d_53">
     <g>
      <use xlink:href="#mb346b9e426" x="901.418337" y="259.497238" style="fill: #1f77b4; stroke: #1f77b4"/>
     </g>
    </g>
    <g id="text_47">
     <!-- GRB -->
     <g transform="translate(919.418337 262.997238) scale(0.1 -0.1)">
      <defs>
       <path id="DejaVuSans-47" d="M 3809 666 
L 3809 1919 
L 2778 1919 
L 2778 2438 
L 4434 2438 
L 4434 434 
Q 4069 175 3628 42 
Q 3188 -91 2688 -91 
Q 1594 -91 976 548 
Q 359 1188 359 2328 
Q 359 3472 976 4111 
Q 1594 4750 2688 4750 
Q 3144 4750 3555 4637 
Q 3966 4525 4313 4306 
L 4313 3634 
Q 3963 3931 3569 4081 
Q 3175 4231 2741 4231 
Q 1884 4231 1454 3753 
Q 1025 3275 1025 2328 
Q 1025 1384 1454 906 
Q 1884 428 2741 428 
Q 3075 428 3337 486 
Q 3600 544 3809 666 
z
" transform="scale(0.015625)"/>
      </defs>
      <use xlink:href="#DejaVuSans-47"/>
      <use xlink:href="#DejaVuSans-52" x="77.490234"/>
      <use xlink:href="#DejaVuSans-42" x="146.972656"/>
     </g>
    </g>
    <g id="line2d_54">
     <g>
      <use xlink:href="#mc4f7130cad" x="901.418337" y="274.175363" style="fill: #ff7f0e; stroke: #ff7f0e"/>
     </g>
    </g>
    <g id="text_48">
     <!-- AdaBt -->
     <g transform="translate(919.418337 277.675363) scale(0.1 -0.1)">
      <use xlink:href="#DejaVuSans-41"/>
      <use xlink:href="#DejaVuSans-64" x="66.658203"/>
      <use xlink:href="#DejaVuSans-61" x="130.134766"/>
      <use xlink:href="#DejaVuSans-42" x="191.414062"/>
      <use xlink:href="#DejaVuSans-74" x="260.017578"/>
     </g>
    </g>
    <g id="line2d_55">
     <g>
      <use xlink:href="#m2d28bb9c76" x="901.418337" y="288.853488" style="fill: #2ca02c; stroke: #2ca02c"/>
     </g>
    </g>
    <g id="text_49">
     <!-- Observed -->
     <g transform="translate(919.418337 292.353488) scale(0.1 -0.1)">
      <use xlink:href="#DejaVuSans-4f"/>
      <use xlink:href="#DejaVuSans-62" x="78.710938"/>
      <use xlink:href="#DejaVuSans-73" x="142.1875"/>
      <use xlink:href="#DejaVuSans-65" x="194.287109"/>
      <use xlink:href="#DejaVuSans-72" x="255.810547"/>
      <use xlink:href="#DejaVuSans-76" x="296.923828"/>
      <use xlink:href="#DejaVuSans-65" x="356.103516"/>
      <use xlink:href="#DejaVuSans-64" x="417.626953"/>
     </g>
    </g>
   </g>
  </g>
 </g>
 <defs>
  <clipPath id="p74d57c1657">
   <path d="M 976.5324 619.6536 
C 976.5324 477.524297 920.011533 341.070854 819.51094 240.57026 
C 719.010346 140.069667 582.556903 83.5488 440.4276 83.5488 
L 440.4276 619.6536 
C 440.4276 619.6536 440.4276 619.6536 440.4276 619.6536 
C 440.4276 619.6536 440.4276 619.6536 440.4276 619.6536 
z
"/>
  </clipPath>
 </defs>
</svg>
