<?xml version="1.0" encoding="utf-8" standalone="no"?>
<!DOCTYPE svg PUBLIC "-//W3C//DTD SVG 1.1//EN"
  "http://www.w3.org/Graphics/SVG/1.1/DTD/svg11.dtd">
<svg xmlns:xlink="http://www.w3.org/1999/xlink" width="504pt" height="432pt" viewBox="0 0 504 432" xmlns="http://www.w3.org/2000/svg" version="1.1">
 <metadata>
  <rdf:RDF xmlns:dc="http://purl.org/dc/elements/1.1/" xmlns:cc="http://creativecommons.org/ns#" xmlns:rdf="http://www.w3.org/1999/02/22-rdf-syntax-ns#">
   <cc:Work>
    <dc:type rdf:resource="http://purl.org/dc/dcmitype/StillImage"/>
    <dc:date>2024-03-16T13:24:35.589814</dc:date>
    <dc:format>image/svg+xml</dc:format>
    <dc:creator>
     <cc:Agent>
      <dc:title>Matplotlib v3.5.1, https://matplotlib.org/</dc:title>
     </cc:Agent>
    </dc:creator>
   </cc:Work>
  </rdf:RDF>
 </metadata>
 <defs>
  <style type="text/css">*{stroke-linejoin: round; stroke-linecap: butt}</style>
 </defs>
 <g id="figure_1">
  <g id="patch_1">
   <path d="M 0 432 
L 504 432 
L 504 0 
L 0 0 
z
" style="fill: #ffffff"/>
  </g>
  <g id="axes_1">
   <g id="patch_2">
    <path d="M 50.4 388.8 
L 372.96 388.8 
L 372.96 112.32 
L 50.4 112.32 
z
" style="fill: #ffffff"/>
   </g>
   <g id="PathCollection_1">
    <defs>
     <path id="m2ae7f2eba8" d="M -3 0 
L 3 0 
M 0 3 
L 0 -3 
" style="stroke: #996633; stroke-width: 1.5"/>
    </defs>
    <g clip-path="url(#p9fccf67564)">
     <use xlink:href="#m2ae7f2eba8" x="88.390781" y="266.24421" style="fill: #996633; stroke: #996633; stroke-width: 1.5"/>
     <use xlink:href="#m2ae7f2eba8" x="78.898975" y="273.057658" style="fill: #996633; stroke: #996633; stroke-width: 1.5"/>
     <use xlink:href="#m2ae7f2eba8" x="112.975412" y="184.482835" style="fill: #996633; stroke: #996633; stroke-width: 1.5"/>
     <use xlink:href="#m2ae7f2eba8" x="100.761482" y="363.579181" style="fill: #996633; stroke: #996633; stroke-width: 1.5"/>
     <use xlink:href="#m2ae7f2eba8" x="96.578532" y="235.09702" style="fill: #996633; stroke: #996633; stroke-width: 1.5"/>
     <use xlink:href="#m2ae7f2eba8" x="88.932355" y="244.830517" style="fill: #996633; stroke: #996633; stroke-width: 1.5"/>
     <use xlink:href="#m2ae7f2eba8" x="95.416997" y="226.336872" style="fill: #996633; stroke: #996633; stroke-width: 1.5"/>
     <use xlink:href="#m2ae7f2eba8" x="104.773409" y="166.96254" style="fill: #996633; stroke: #996633; stroke-width: 1.5"/>
     <use xlink:href="#m2ae7f2eba8" x="92.647841" y="209.789927" style="fill: #996633; stroke: #996633; stroke-width: 1.5"/>
     <use xlink:href="#m2ae7f2eba8" x="93.095353" y="252.617314" style="fill: #996633; stroke: #996633; stroke-width: 1.5"/>
     <use xlink:href="#m2ae7f2eba8" x="95.171863" y="220.496774" style="fill: #996633; stroke: #996633; stroke-width: 1.5"/>
     <use xlink:href="#m2ae7f2eba8" x="96.65478" y="213.683326" style="fill: #996633; stroke: #996633; stroke-width: 1.5"/>
     <use xlink:href="#m2ae7f2eba8" x="141.226361" y="248.723916" style="fill: #996633; stroke: #996633; stroke-width: 1.5"/>
     <use xlink:href="#m2ae7f2eba8" x="100.28903" y="245.803866" style="fill: #996633; stroke: #996633; stroke-width: 1.5"/>
     <use xlink:href="#m2ae7f2eba8" x="100.832742" y="219.523424" style="fill: #996633; stroke: #996633; stroke-width: 1.5"/>
     <use xlink:href="#m2ae7f2eba8" x="95.424123" y="233.15032" style="fill: #996633; stroke: #996633; stroke-width: 1.5"/>
     <use xlink:href="#m2ae7f2eba8" x="95.131958" y="236.070369" style="fill: #996633; stroke: #996633; stroke-width: 1.5"/>
     <use xlink:href="#m2ae7f2eba8" x="101.402821" y="228.283572" style="fill: #996633; stroke: #996633; stroke-width: 1.5"/>
     <use xlink:href="#m2ae7f2eba8" x="96.343375" y="236.070369" style="fill: #996633; stroke: #996633; stroke-width: 1.5"/>
     <use xlink:href="#m2ae7f2eba8" x="80.110392" y="238.990418" style="fill: #996633; stroke: #996633; stroke-width: 1.5"/>
     <use xlink:href="#m2ae7f2eba8" x="86.744679" y="238.990418" style="fill: #996633; stroke: #996633; stroke-width: 1.5"/>
     <use xlink:href="#m2ae7f2eba8" x="86.666294" y="235.09702" style="fill: #996633; stroke: #996633; stroke-width: 1.5"/>
     <use xlink:href="#m2ae7f2eba8" x="101.702112" y="206.869878" style="fill: #996633; stroke: #996633; stroke-width: 1.5"/>
     <use xlink:href="#m2ae7f2eba8" x="125.726285" y="311.018297" style="fill: #996633; stroke: #996633; stroke-width: 1.5"/>
     <use xlink:href="#m2ae7f2eba8" x="100.214563" y="250.670615" style="fill: #996633; stroke: #996633; stroke-width: 1.5"/>
     <use xlink:href="#m2ae7f2eba8" x="187.354897" y="229.256921" style="fill: #996633; stroke: #996633; stroke-width: 1.5"/>
     <use xlink:href="#m2ae7f2eba8" x="178.158819" y="239.963768" style="fill: #996633; stroke: #996633; stroke-width: 1.5"/>
     <use xlink:href="#m2ae7f2eba8" x="105.702566" y="230.230271" style="fill: #996633; stroke: #996633; stroke-width: 1.5"/>
     <use xlink:href="#m2ae7f2eba8" x="115.269479" y="227.310222" style="fill: #996633; stroke: #996633; stroke-width: 1.5"/>
     <use xlink:href="#m2ae7f2eba8" x="87.90372" y="266.24421" style="fill: #996633; stroke: #996633; stroke-width: 1.5"/>
     <use xlink:href="#m2ae7f2eba8" x="115.269479" y="300.31145" style="fill: #996633; stroke: #996633; stroke-width: 1.5"/>
     <use xlink:href="#m2ae7f2eba8" x="95.542343" y="242.883817" style="fill: #996633; stroke: #996633; stroke-width: 1.5"/>
     <use xlink:href="#m2ae7f2eba8" x="98.879653" y="305.178199" style="fill: #996633; stroke: #996633; stroke-width: 1.5"/>
     <use xlink:href="#m2ae7f2eba8" x="124.317194" y="215.630025" style="fill: #996633; stroke: #996633; stroke-width: 1.5"/>
     <use xlink:href="#m2ae7f2eba8" x="358.298182" y="179.616086" style="fill: #996633; stroke: #996633; stroke-width: 1.5"/>
     <use xlink:href="#m2ae7f2eba8" x="72.403858" y="334.37869" style="fill: #996633; stroke: #996633; stroke-width: 1.5"/>
     <use xlink:href="#m2ae7f2eba8" x="71.068948" y="337.298739" style="fill: #996633; stroke: #996633; stroke-width: 1.5"/>
     <use xlink:href="#m2ae7f2eba8" x="65.061818" y="351.898985" style="fill: #996633; stroke: #996633; stroke-width: 1.5"/>
     <use xlink:href="#m2ae7f2eba8" x="67.360802" y="348.978935" style="fill: #996633; stroke: #996633; stroke-width: 1.5"/>
     <use xlink:href="#m2ae7f2eba8" x="69.808149" y="331.458641" style="fill: #996633; stroke: #996633; stroke-width: 1.5"/>
     <use xlink:href="#m2ae7f2eba8" x="71.291421" y="332.43199" style="fill: #996633; stroke: #996633; stroke-width: 1.5"/>
     <use xlink:href="#m2ae7f2eba8" x="73.812949" y="319.778444" style="fill: #996633; stroke: #996633; stroke-width: 1.5"/>
     <use xlink:href="#m2ae7f2eba8" x="65.8776" y="344.112187" style="fill: #996633; stroke: #996633; stroke-width: 1.5"/>
     <use xlink:href="#m2ae7f2eba8" x="69.956511" y="334.37869" style="fill: #996633; stroke: #996633; stroke-width: 1.5"/>
     <use xlink:href="#m2ae7f2eba8" x="77.817679" y="302.258149" style="fill: #996633; stroke: #996633; stroke-width: 1.5"/>
     <use xlink:href="#m2ae7f2eba8" x="77.521024" y="326.591892" style="fill: #996633; stroke: #996633; stroke-width: 1.5"/>
     <use xlink:href="#m2ae7f2eba8" x="67.360802" y="376.232727" style="fill: #996633; stroke: #996633; stroke-width: 1.5"/>
    </g>
   </g>
   <g id="matplotlib.axis_1">
    <g id="xtick_1">
     <g id="line2d_1">
      <defs>
       <path id="mdae6728325" d="M 0 0 
L 0 3.5 
" style="stroke: #000000; stroke-width: 0.8"/>
      </defs>
      <g>
       <use xlink:href="#mdae6728325" x="113.018168" y="388.8" style="stroke: #000000; stroke-width: 0.8"/>
      </g>
     </g>
     <g id="text_1">
      <!-- 10000 -->
      <g transform="translate(95.623637 403.398438)scale(0.1 -0.1)">
       <defs>
        <path id="DejaVuSans-Bold-31" d="M 750 831 
L 1813 831 
L 1813 3847 
L 722 3622 
L 722 4441 
L 1806 4666 
L 2950 4666 
L 2950 831 
L 4013 831 
L 4013 0 
L 750 0 
L 750 831 
z
" transform="scale(0.015625)"/>
        <path id="DejaVuSans-Bold-30" d="M 2944 2338 
Q 2944 3213 2780 3570 
Q 2616 3928 2228 3928 
Q 1841 3928 1675 3570 
Q 1509 3213 1509 2338 
Q 1509 1453 1675 1090 
Q 1841 728 2228 728 
Q 2613 728 2778 1090 
Q 2944 1453 2944 2338 
z
M 4147 2328 
Q 4147 1169 3647 539 
Q 3147 -91 2228 -91 
Q 1306 -91 806 539 
Q 306 1169 306 2328 
Q 306 3491 806 4120 
Q 1306 4750 2228 4750 
Q 3147 4750 3647 4120 
Q 4147 3491 4147 2328 
z
" transform="scale(0.015625)"/>
       </defs>
       <use xlink:href="#DejaVuSans-Bold-31"/>
       <use xlink:href="#DejaVuSans-Bold-30" x="69.580078"/>
       <use xlink:href="#DejaVuSans-Bold-30" x="139.160156"/>
       <use xlink:href="#DejaVuSans-Bold-30" x="208.740234"/>
       <use xlink:href="#DejaVuSans-Bold-30" x="278.320312"/>
      </g>
     </g>
    </g>
    <g id="xtick_2">
     <g id="line2d_2">
      <g>
       <use xlink:href="#mdae6728325" x="184.27797" y="388.8" style="stroke: #000000; stroke-width: 0.8"/>
      </g>
     </g>
     <g id="text_2">
      <!-- 20000 -->
      <g transform="translate(166.883438 403.398438)scale(0.1 -0.1)">
       <defs>
        <path id="DejaVuSans-Bold-32" d="M 1844 884 
L 3897 884 
L 3897 0 
L 506 0 
L 506 884 
L 2209 2388 
Q 2438 2594 2547 2791 
Q 2656 2988 2656 3200 
Q 2656 3528 2436 3728 
Q 2216 3928 1850 3928 
Q 1569 3928 1234 3808 
Q 900 3688 519 3450 
L 519 4475 
Q 925 4609 1322 4679 
Q 1719 4750 2100 4750 
Q 2938 4750 3402 4381 
Q 3866 4013 3866 3353 
Q 3866 2972 3669 2642 
Q 3472 2313 2841 1759 
L 1844 884 
z
" transform="scale(0.015625)"/>
       </defs>
       <use xlink:href="#DejaVuSans-Bold-32"/>
       <use xlink:href="#DejaVuSans-Bold-30" x="69.580078"/>
       <use xlink:href="#DejaVuSans-Bold-30" x="139.160156"/>
       <use xlink:href="#DejaVuSans-Bold-30" x="208.740234"/>
       <use xlink:href="#DejaVuSans-Bold-30" x="278.320312"/>
      </g>
     </g>
    </g>
    <g id="xtick_3">
     <g id="line2d_3">
      <g>
       <use xlink:href="#mdae6728325" x="255.537771" y="388.8" style="stroke: #000000; stroke-width: 0.8"/>
      </g>
     </g>
     <g id="text_3">
      <!-- 30000 -->
      <g transform="translate(238.14324 403.398438)scale(0.1 -0.1)">
       <defs>
        <path id="DejaVuSans-Bold-33" d="M 2981 2516 
Q 3453 2394 3698 2092 
Q 3944 1791 3944 1325 
Q 3944 631 3412 270 
Q 2881 -91 1863 -91 
Q 1503 -91 1142 -33 
Q 781 25 428 141 
L 428 1069 
Q 766 900 1098 814 
Q 1431 728 1753 728 
Q 2231 728 2486 893 
Q 2741 1059 2741 1369 
Q 2741 1688 2480 1852 
Q 2219 2016 1709 2016 
L 1228 2016 
L 1228 2791 
L 1734 2791 
Q 2188 2791 2409 2933 
Q 2631 3075 2631 3366 
Q 2631 3634 2415 3781 
Q 2200 3928 1806 3928 
Q 1516 3928 1219 3862 
Q 922 3797 628 3669 
L 628 4550 
Q 984 4650 1334 4700 
Q 1684 4750 2022 4750 
Q 2931 4750 3382 4451 
Q 3834 4153 3834 3553 
Q 3834 3144 3618 2883 
Q 3403 2622 2981 2516 
z
" transform="scale(0.015625)"/>
       </defs>
       <use xlink:href="#DejaVuSans-Bold-33"/>
       <use xlink:href="#DejaVuSans-Bold-30" x="69.580078"/>
       <use xlink:href="#DejaVuSans-Bold-30" x="139.160156"/>
       <use xlink:href="#DejaVuSans-Bold-30" x="208.740234"/>
       <use xlink:href="#DejaVuSans-Bold-30" x="278.320312"/>
      </g>
     </g>
    </g>
    <g id="xtick_4">
     <g id="line2d_4">
      <g>
       <use xlink:href="#mdae6728325" x="326.797573" y="388.8" style="stroke: #000000; stroke-width: 0.8"/>
      </g>
     </g>
     <g id="text_4">
      <!-- 40000 -->
      <g transform="translate(309.403042 403.398438)scale(0.1 -0.1)">
       <defs>
        <path id="DejaVuSans-Bold-34" d="M 2356 3675 
L 1038 1722 
L 2356 1722 
L 2356 3675 
z
M 2156 4666 
L 3494 4666 
L 3494 1722 
L 4159 1722 
L 4159 850 
L 3494 850 
L 3494 0 
L 2356 0 
L 2356 850 
L 288 850 
L 288 1881 
L 2156 4666 
z
" transform="scale(0.015625)"/>
       </defs>
       <use xlink:href="#DejaVuSans-Bold-34"/>
       <use xlink:href="#DejaVuSans-Bold-30" x="69.580078"/>
       <use xlink:href="#DejaVuSans-Bold-30" x="139.160156"/>
       <use xlink:href="#DejaVuSans-Bold-30" x="208.740234"/>
       <use xlink:href="#DejaVuSans-Bold-30" x="278.320312"/>
      </g>
     </g>
    </g>
    <g id="text_5">
     <!-- EC (µS/cm) -->
     <g transform="translate(181.003437 417.065625)scale(0.1 -0.1)">
      <defs>
       <path id="DejaVuSans-Bold-45" d="M 588 4666 
L 3834 4666 
L 3834 3756 
L 1791 3756 
L 1791 2888 
L 3713 2888 
L 3713 1978 
L 1791 1978 
L 1791 909 
L 3903 909 
L 3903 0 
L 588 0 
L 588 4666 
z
" transform="scale(0.015625)"/>
       <path id="DejaVuSans-Bold-43" d="M 4288 256 
Q 3956 84 3597 -3 
Q 3238 -91 2847 -91 
Q 1681 -91 1000 561 
Q 319 1213 319 2328 
Q 319 3447 1000 4098 
Q 1681 4750 2847 4750 
Q 3238 4750 3597 4662 
Q 3956 4575 4288 4403 
L 4288 3438 
Q 3953 3666 3628 3772 
Q 3303 3878 2944 3878 
Q 2300 3878 1931 3465 
Q 1563 3053 1563 2328 
Q 1563 1606 1931 1193 
Q 2300 781 2944 781 
Q 3303 781 3628 887 
Q 3953 994 4288 1222 
L 4288 256 
z
" transform="scale(0.015625)"/>
       <path id="DejaVuSans-Bold-20" transform="scale(0.015625)"/>
       <path id="DejaVuSans-Bold-28" d="M 2413 -844 
L 1484 -844 
Q 1006 -72 778 623 
Q 550 1319 550 2003 
Q 550 2688 779 3389 
Q 1009 4091 1484 4856 
L 2413 4856 
Q 2013 4116 1813 3408 
Q 1613 2700 1613 2009 
Q 1613 1319 1811 609 
Q 2009 -100 2413 -844 
z
" transform="scale(0.015625)"/>
       <path id="DejaVuSans-Bold-b5" d="M 544 -1338 
L 544 3500 
L 1672 3500 
L 1672 1466 
Q 1672 1103 1828 926 
Q 1984 750 2303 750 
Q 2625 750 2781 926 
Q 2938 1103 2938 1466 
L 2938 3500 
L 4063 3500 
L 4063 1159 
Q 4063 938 4114 850 
Q 4166 763 4288 763 
Q 4344 763 4395 778 
Q 4447 794 4506 831 
L 4506 50 
Q 4341 -22 4195 -56 
Q 4050 -91 3909 -91 
Q 3631 -91 3454 26 
Q 3278 144 3169 403 
Q 3022 156 2811 32 
Q 2600 -91 2322 -91 
Q 2091 -91 1928 -17 
Q 1766 56 1672 206 
L 1672 -1338 
L 544 -1338 
z
" transform="scale(0.015625)"/>
       <path id="DejaVuSans-Bold-53" d="M 3834 4519 
L 3834 3531 
Q 3450 3703 3084 3790 
Q 2719 3878 2394 3878 
Q 1963 3878 1756 3759 
Q 1550 3641 1550 3391 
Q 1550 3203 1689 3098 
Q 1828 2994 2194 2919 
L 2706 2816 
Q 3484 2659 3812 2340 
Q 4141 2022 4141 1434 
Q 4141 663 3683 286 
Q 3225 -91 2284 -91 
Q 1841 -91 1394 -6 
Q 947 78 500 244 
L 500 1259 
Q 947 1022 1364 901 
Q 1781 781 2169 781 
Q 2563 781 2772 912 
Q 2981 1044 2981 1288 
Q 2981 1506 2839 1625 
Q 2697 1744 2272 1838 
L 1806 1941 
Q 1106 2091 782 2419 
Q 459 2747 459 3303 
Q 459 4000 909 4375 
Q 1359 4750 2203 4750 
Q 2588 4750 2994 4692 
Q 3400 4634 3834 4519 
z
" transform="scale(0.015625)"/>
       <path id="DejaVuSans-Bold-2f" d="M 1644 4666 
L 2338 4666 
L 691 -594 
L 0 -594 
L 1644 4666 
z
" transform="scale(0.015625)"/>
       <path id="DejaVuSans-Bold-63" d="M 3366 3391 
L 3366 2478 
Q 3138 2634 2908 2709 
Q 2678 2784 2431 2784 
Q 1963 2784 1702 2511 
Q 1441 2238 1441 1747 
Q 1441 1256 1702 982 
Q 1963 709 2431 709 
Q 2694 709 2930 787 
Q 3166 866 3366 1019 
L 3366 103 
Q 3103 6 2833 -42 
Q 2563 -91 2291 -91 
Q 1344 -91 809 395 
Q 275 881 275 1747 
Q 275 2613 809 3098 
Q 1344 3584 2291 3584 
Q 2566 3584 2833 3536 
Q 3100 3488 3366 3391 
z
" transform="scale(0.015625)"/>
       <path id="DejaVuSans-Bold-6d" d="M 3781 2919 
Q 3994 3244 4286 3414 
Q 4578 3584 4928 3584 
Q 5531 3584 5847 3212 
Q 6163 2841 6163 2131 
L 6163 0 
L 5038 0 
L 5038 1825 
Q 5041 1866 5042 1909 
Q 5044 1953 5044 2034 
Q 5044 2406 4934 2573 
Q 4825 2741 4581 2741 
Q 4263 2741 4089 2478 
Q 3916 2216 3909 1719 
L 3909 0 
L 2784 0 
L 2784 1825 
Q 2784 2406 2684 2573 
Q 2584 2741 2328 2741 
Q 2006 2741 1831 2477 
Q 1656 2213 1656 1722 
L 1656 0 
L 531 0 
L 531 3500 
L 1656 3500 
L 1656 2988 
Q 1863 3284 2130 3434 
Q 2397 3584 2719 3584 
Q 3081 3584 3359 3409 
Q 3638 3234 3781 2919 
z
" transform="scale(0.015625)"/>
       <path id="DejaVuSans-Bold-29" d="M 513 -844 
Q 913 -100 1113 609 
Q 1313 1319 1313 2009 
Q 1313 2700 1113 3408 
Q 913 4116 513 4856 
L 1441 4856 
Q 1916 4091 2145 3389 
Q 2375 2688 2375 2003 
Q 2375 1319 2147 623 
Q 1919 -72 1441 -844 
L 513 -844 
z
" transform="scale(0.015625)"/>
      </defs>
      <use xlink:href="#DejaVuSans-Bold-45"/>
      <use xlink:href="#DejaVuSans-Bold-43" x="68.310547"/>
      <use xlink:href="#DejaVuSans-Bold-20" x="141.699219"/>
      <use xlink:href="#DejaVuSans-Bold-28" x="176.513672"/>
      <use xlink:href="#DejaVuSans-Bold-b5" x="222.216797"/>
      <use xlink:href="#DejaVuSans-Bold-53" x="295.800781"/>
      <use xlink:href="#DejaVuSans-Bold-2f" x="367.822266"/>
      <use xlink:href="#DejaVuSans-Bold-63" x="404.345703"/>
      <use xlink:href="#DejaVuSans-Bold-6d" x="463.623047"/>
      <use xlink:href="#DejaVuSans-Bold-29" x="567.822266"/>
     </g>
    </g>
   </g>
   <g id="matplotlib.axis_2">
    <g id="ytick_1">
     <g id="line2d_5">
      <defs>
       <path id="m2d82e4d6eb" d="M 0 0 
L -3.5 0 
" style="stroke: #000000; stroke-width: 0.8"/>
      </defs>
      <g>
       <use xlink:href="#m2d82e4d6eb" x="50.4" y="348.005586" style="stroke: #000000; stroke-width: 0.8"/>
      </g>
     </g>
     <g id="text_6">
      <!-- −4.0 -->
      <g transform="translate(17.30625 351.804804)scale(0.1 -0.1)">
       <defs>
        <path id="DejaVuSans-Bold-2212" d="M 678 2375 
L 4684 2375 
L 4684 1638 
L 678 1638 
L 678 2375 
z
" transform="scale(0.015625)"/>
        <path id="DejaVuSans-Bold-2e" d="M 653 1209 
L 1778 1209 
L 1778 0 
L 653 0 
L 653 1209 
z
" transform="scale(0.015625)"/>
       </defs>
       <use xlink:href="#DejaVuSans-Bold-2212"/>
       <use xlink:href="#DejaVuSans-Bold-34" x="83.789062"/>
       <use xlink:href="#DejaVuSans-Bold-2e" x="153.369141"/>
       <use xlink:href="#DejaVuSans-Bold-30" x="191.357422"/>
      </g>
     </g>
    </g>
    <g id="ytick_2">
     <g id="line2d_6">
      <g>
       <use xlink:href="#m2d82e4d6eb" x="50.4" y="299.3381" style="stroke: #000000; stroke-width: 0.8"/>
      </g>
     </g>
     <g id="text_7">
      <!-- −3.5 -->
      <g transform="translate(17.30625 303.137319)scale(0.1 -0.1)">
       <defs>
        <path id="DejaVuSans-Bold-35" d="M 678 4666 
L 3669 4666 
L 3669 3781 
L 1638 3781 
L 1638 3059 
Q 1775 3097 1914 3117 
Q 2053 3138 2203 3138 
Q 3056 3138 3531 2711 
Q 4006 2284 4006 1522 
Q 4006 766 3489 337 
Q 2972 -91 2053 -91 
Q 1656 -91 1267 -14 
Q 878 63 494 219 
L 494 1166 
Q 875 947 1217 837 
Q 1559 728 1863 728 
Q 2300 728 2551 942 
Q 2803 1156 2803 1522 
Q 2803 1891 2551 2103 
Q 2300 2316 1863 2316 
Q 1603 2316 1309 2248 
Q 1016 2181 678 2041 
L 678 4666 
z
" transform="scale(0.015625)"/>
       </defs>
       <use xlink:href="#DejaVuSans-Bold-2212"/>
       <use xlink:href="#DejaVuSans-Bold-33" x="83.789062"/>
       <use xlink:href="#DejaVuSans-Bold-2e" x="153.369141"/>
       <use xlink:href="#DejaVuSans-Bold-35" x="191.357422"/>
      </g>
     </g>
    </g>
    <g id="ytick_3">
     <g id="line2d_7">
      <g>
       <use xlink:href="#m2d82e4d6eb" x="50.4" y="250.670615" style="stroke: #000000; stroke-width: 0.8"/>
      </g>
     </g>
     <g id="text_8">
      <!-- −3.0 -->
      <g transform="translate(17.30625 254.469834)scale(0.1 -0.1)">
       <use xlink:href="#DejaVuSans-Bold-2212"/>
       <use xlink:href="#DejaVuSans-Bold-33" x="83.789062"/>
       <use xlink:href="#DejaVuSans-Bold-2e" x="153.369141"/>
       <use xlink:href="#DejaVuSans-Bold-30" x="191.357422"/>
      </g>
     </g>
    </g>
    <g id="ytick_4">
     <g id="line2d_8">
      <g>
       <use xlink:href="#m2d82e4d6eb" x="50.4" y="202.00313" style="stroke: #000000; stroke-width: 0.8"/>
      </g>
     </g>
     <g id="text_9">
      <!-- −2.5 -->
      <g transform="translate(17.30625 205.802348)scale(0.1 -0.1)">
       <use xlink:href="#DejaVuSans-Bold-2212"/>
       <use xlink:href="#DejaVuSans-Bold-32" x="83.789062"/>
       <use xlink:href="#DejaVuSans-Bold-2e" x="153.369141"/>
       <use xlink:href="#DejaVuSans-Bold-35" x="191.357422"/>
      </g>
     </g>
    </g>
    <g id="ytick_5">
     <g id="line2d_9">
      <g>
       <use xlink:href="#m2d82e4d6eb" x="50.4" y="153.335644" style="stroke: #000000; stroke-width: 0.8"/>
      </g>
     </g>
     <g id="text_10">
      <!-- −2.0 -->
      <g transform="translate(17.30625 157.134863)scale(0.1 -0.1)">
       <use xlink:href="#DejaVuSans-Bold-2212"/>
       <use xlink:href="#DejaVuSans-Bold-32" x="83.789062"/>
       <use xlink:href="#DejaVuSans-Bold-2e" x="153.369141"/>
       <use xlink:href="#DejaVuSans-Bold-30" x="191.357422"/>
      </g>
     </g>
    </g>
    <g id="text_11">
     <!-- δ18O (‰) -->
     <g transform="translate(11.226563 278.714687)rotate(-90)scale(0.1 -0.1)">
      <defs>
       <path id="DejaVuSans-Bold-3b4" d="M 3613 3950 
Q 3231 4169 2234 4169 
Q 1703 4169 1703 3863 
Q 1703 3572 2431 3463 
Q 3156 3353 3594 3003 
Q 4125 2581 4125 1734 
Q 4125 888 3612 398 
Q 3100 -91 2206 -91 
Q 1309 -91 793 398 
Q 278 888 278 1747 
Q 278 2397 791 2900 
Q 950 3056 1150 3156 
Q 688 3403 688 3900 
Q 688 4913 2338 4913 
Q 3166 4913 3613 4694 
L 3613 3950 
z
M 1938 2750 
Q 1772 2681 1641 2506 
Q 1434 2234 1434 1744 
Q 1434 1253 1639 978 
Q 1844 703 2200 703 
Q 2553 703 2759 983 
Q 2966 1263 2966 1731 
Q 2966 2197 2744 2433 
Q 2522 2669 2213 2703 
Q 2069 2719 1938 2750 
z
" transform="scale(0.015625)"/>
       <path id="DejaVuSans-Bold-38" d="M 2228 2088 
Q 1891 2088 1709 1903 
Q 1528 1719 1528 1375 
Q 1528 1031 1709 848 
Q 1891 666 2228 666 
Q 2563 666 2741 848 
Q 2919 1031 2919 1375 
Q 2919 1722 2741 1905 
Q 2563 2088 2228 2088 
z
M 1350 2484 
Q 925 2613 709 2878 
Q 494 3144 494 3541 
Q 494 4131 934 4440 
Q 1375 4750 2228 4750 
Q 3075 4750 3515 4442 
Q 3956 4134 3956 3541 
Q 3956 3144 3739 2878 
Q 3522 2613 3097 2484 
Q 3572 2353 3814 2058 
Q 4056 1763 4056 1313 
Q 4056 619 3595 264 
Q 3134 -91 2228 -91 
Q 1319 -91 855 264 
Q 391 619 391 1313 
Q 391 1763 633 2058 
Q 875 2353 1350 2484 
z
M 1631 3419 
Q 1631 3141 1786 2991 
Q 1941 2841 2228 2841 
Q 2509 2841 2662 2991 
Q 2816 3141 2816 3419 
Q 2816 3697 2662 3845 
Q 2509 3994 2228 3994 
Q 1941 3994 1786 3844 
Q 1631 3694 1631 3419 
z
" transform="scale(0.015625)"/>
       <path id="DejaVuSans-Bold-4f" d="M 2719 3878 
Q 2169 3878 1866 3472 
Q 1563 3066 1563 2328 
Q 1563 1594 1866 1187 
Q 2169 781 2719 781 
Q 3272 781 3575 1187 
Q 3878 1594 3878 2328 
Q 3878 3066 3575 3472 
Q 3272 3878 2719 3878 
z
M 2719 4750 
Q 3844 4750 4481 4106 
Q 5119 3463 5119 2328 
Q 5119 1197 4481 553 
Q 3844 -91 2719 -91 
Q 1597 -91 958 553 
Q 319 1197 319 2328 
Q 319 3463 958 4106 
Q 1597 4750 2719 4750 
z
" transform="scale(0.015625)"/>
       <path id="DejaVuSans-Bold-2030" d="M 7822 1925 
Q 7597 1925 7475 1733 
Q 7353 1541 7353 1184 
Q 7353 825 7475 633 
Q 7597 441 7822 441 
Q 8044 441 8162 633 
Q 8281 825 8281 1184 
Q 8281 1541 8162 1733 
Q 8044 1925 7822 1925 
z
M 7822 2450 
Q 8403 2450 8736 2112 
Q 9069 1775 9069 1184 
Q 9069 594 8734 251 
Q 8400 -91 7822 -91 
Q 7241 -91 6903 251 
Q 6566 594 6566 1184 
Q 6566 1772 6902 2111 
Q 7238 2450 7822 2450 
z
M 1453 4225 
Q 1228 4225 1106 4031 
Q 984 3838 984 3481 
Q 984 3122 1106 2926 
Q 1228 2731 1453 2731 
Q 1678 2731 1798 2926 
Q 1919 3122 1919 3481 
Q 1919 3838 1797 4031 
Q 1675 4225 1453 4225 
z
M 1453 4750 
Q 2034 4750 2367 4411 
Q 2700 4072 2700 3481 
Q 2700 2891 2367 2550 
Q 2034 2209 1453 2209 
Q 872 2209 539 2550 
Q 206 2891 206 3481 
Q 206 4072 539 4411 
Q 872 4750 1453 4750 
z
M 2094 -91 
L 1403 -91 
L 4319 4750 
L 5013 4750 
L 2094 -91 
z
M 4959 2450 
Q 5541 2450 5875 2112 
Q 6209 1775 6209 1184 
Q 6209 594 5875 251 
Q 5541 -91 4959 -91 
Q 4378 -91 4042 251 
Q 3706 594 3706 1184 
Q 3706 1772 4042 2111 
Q 4378 2450 4959 2450 
z
M 4959 1925 
Q 4738 1925 4616 1733 
Q 4494 1541 4494 1184 
Q 4494 825 4614 633 
Q 4734 441 4959 441 
Q 5184 441 5303 633 
Q 5422 825 5422 1184 
Q 5422 1541 5301 1733 
Q 5181 1925 4959 1925 
z
" transform="scale(0.015625)"/>
      </defs>
      <use xlink:href="#DejaVuSans-Bold-3b4"/>
      <use xlink:href="#DejaVuSans-Bold-31" x="68.701172"/>
      <use xlink:href="#DejaVuSans-Bold-38" x="138.28125"/>
      <use xlink:href="#DejaVuSans-Bold-4f" x="207.861328"/>
      <use xlink:href="#DejaVuSans-Bold-20" x="292.871094"/>
      <use xlink:href="#DejaVuSans-Bold-28" x="327.685547"/>
      <use xlink:href="#DejaVuSans-Bold-2030" x="373.388672"/>
      <use xlink:href="#DejaVuSans-Bold-29" x="517.382812"/>
     </g>
    </g>
   </g>
   <g id="line2d_10">
    <path d="M 88.390781 272.348594 
L 78.898975 277.534351 
L 112.975412 258.917016 
L 100.761482 265.58998 
L 96.578532 267.875294 
L 88.932355 272.05271 
L 95.416997 268.509888 
L 104.773409 263.398102 
L 92.647841 270.02279 
L 93.095353 269.778296 
L 95.171863 268.643814 
L 96.65478 267.833637 
L 141.226361 243.482381 
L 100.28903 265.848099 
L 100.832742 265.551047 
L 95.424123 268.505995 
L 95.131958 268.665616 
L 101.402821 265.239591 
L 96.343375 268.00377 
L 80.110392 276.872505 
L 86.744679 273.247926 
L 86.666294 273.290751 
L 101.702112 265.076076 
L 125.726285 251.950699 
L 100.214563 265.888784 
L 187.354897 218.280498 
L 178.158819 223.304687 
L 105.702566 262.890466 
L 115.269479 257.663675 
L 87.90372 272.614695 
L 115.269479 257.663675 
L 95.542343 268.441406 
L 98.879653 266.618099 
L 124.317194 252.720543 
L 358.298182 124.887273 
L 72.403858 281.082896 
L 71.068948 281.812211 
L 65.061818 285.094149 
L 67.360802 283.838121 
L 69.808149 282.501037 
L 71.291421 281.690665 
L 73.812949 280.313052 
L 65.8776 284.648454 
L 69.956511 282.41998 
L 77.817679 278.125107 
L 77.521024 278.287181 
L 67.360802 283.838121 
" clip-path="url(#p9fccf67564)" style="fill: none; stroke: #ff0000; stroke-width: 1.5; stroke-linecap: square"/>
   </g>
   <g id="patch_3">
    <path d="M 50.4 388.8 
L 50.4 112.32 
" style="fill: none; stroke: #000000; stroke-width: 0.8; stroke-linejoin: miter; stroke-linecap: square"/>
   </g>
   <g id="patch_4">
    <path d="M 372.96 388.8 
L 372.96 112.32 
" style="fill: none; stroke: #000000; stroke-width: 0.8; stroke-linejoin: miter; stroke-linecap: square"/>
   </g>
   <g id="patch_5">
    <path d="M 50.4 388.8 
L 372.96 388.8 
" style="fill: none; stroke: #000000; stroke-width: 0.8; stroke-linejoin: miter; stroke-linecap: square"/>
   </g>
   <g id="patch_6">
    <path d="M 50.4 112.32 
L 372.96 112.32 
" style="fill: none; stroke: #000000; stroke-width: 0.8; stroke-linejoin: miter; stroke-linecap: square"/>
   </g>
   <g id="text_12">
    <!-- Regression Line for EC (µS/cm) vs Y -->
    <g transform="translate(104.873437 106.32)scale(0.12 -0.12)">
     <defs>
      <path id="DejaVuSans-52" d="M 2841 2188 
Q 3044 2119 3236 1894 
Q 3428 1669 3622 1275 
L 4263 0 
L 3584 0 
L 2988 1197 
Q 2756 1666 2539 1819 
Q 2322 1972 1947 1972 
L 1259 1972 
L 1259 0 
L 628 0 
L 628 4666 
L 2053 4666 
Q 2853 4666 3247 4331 
Q 3641 3997 3641 3322 
Q 3641 2881 3436 2590 
Q 3231 2300 2841 2188 
z
M 1259 4147 
L 1259 2491 
L 2053 2491 
Q 2509 2491 2742 2702 
Q 2975 2913 2975 3322 
Q 2975 3731 2742 3939 
Q 2509 4147 2053 4147 
L 1259 4147 
z
" transform="scale(0.015625)"/>
      <path id="DejaVuSans-65" d="M 3597 1894 
L 3597 1613 
L 953 1613 
Q 991 1019 1311 708 
Q 1631 397 2203 397 
Q 2534 397 2845 478 
Q 3156 559 3463 722 
L 3463 178 
Q 3153 47 2828 -22 
Q 2503 -91 2169 -91 
Q 1331 -91 842 396 
Q 353 884 353 1716 
Q 353 2575 817 3079 
Q 1281 3584 2069 3584 
Q 2775 3584 3186 3129 
Q 3597 2675 3597 1894 
z
M 3022 2063 
Q 3016 2534 2758 2815 
Q 2500 3097 2075 3097 
Q 1594 3097 1305 2825 
Q 1016 2553 972 2059 
L 3022 2063 
z
" transform="scale(0.015625)"/>
      <path id="DejaVuSans-67" d="M 2906 1791 
Q 2906 2416 2648 2759 
Q 2391 3103 1925 3103 
Q 1463 3103 1205 2759 
Q 947 2416 947 1791 
Q 947 1169 1205 825 
Q 1463 481 1925 481 
Q 2391 481 2648 825 
Q 2906 1169 2906 1791 
z
M 3481 434 
Q 3481 -459 3084 -895 
Q 2688 -1331 1869 -1331 
Q 1566 -1331 1297 -1286 
Q 1028 -1241 775 -1147 
L 775 -588 
Q 1028 -725 1275 -790 
Q 1522 -856 1778 -856 
Q 2344 -856 2625 -561 
Q 2906 -266 2906 331 
L 2906 616 
Q 2728 306 2450 153 
Q 2172 0 1784 0 
Q 1141 0 747 490 
Q 353 981 353 1791 
Q 353 2603 747 3093 
Q 1141 3584 1784 3584 
Q 2172 3584 2450 3431 
Q 2728 3278 2906 2969 
L 2906 3500 
L 3481 3500 
L 3481 434 
z
" transform="scale(0.015625)"/>
      <path id="DejaVuSans-72" d="M 2631 2963 
Q 2534 3019 2420 3045 
Q 2306 3072 2169 3072 
Q 1681 3072 1420 2755 
Q 1159 2438 1159 1844 
L 1159 0 
L 581 0 
L 581 3500 
L 1159 3500 
L 1159 2956 
Q 1341 3275 1631 3429 
Q 1922 3584 2338 3584 
Q 2397 3584 2469 3576 
Q 2541 3569 2628 3553 
L 2631 2963 
z
" transform="scale(0.015625)"/>
      <path id="DejaVuSans-73" d="M 2834 3397 
L 2834 2853 
Q 2591 2978 2328 3040 
Q 2066 3103 1784 3103 
Q 1356 3103 1142 2972 
Q 928 2841 928 2578 
Q 928 2378 1081 2264 
Q 1234 2150 1697 2047 
L 1894 2003 
Q 2506 1872 2764 1633 
Q 3022 1394 3022 966 
Q 3022 478 2636 193 
Q 2250 -91 1575 -91 
Q 1294 -91 989 -36 
Q 684 19 347 128 
L 347 722 
Q 666 556 975 473 
Q 1284 391 1588 391 
Q 1994 391 2212 530 
Q 2431 669 2431 922 
Q 2431 1156 2273 1281 
Q 2116 1406 1581 1522 
L 1381 1569 
Q 847 1681 609 1914 
Q 372 2147 372 2553 
Q 372 3047 722 3315 
Q 1072 3584 1716 3584 
Q 2034 3584 2315 3537 
Q 2597 3491 2834 3397 
z
" transform="scale(0.015625)"/>
      <path id="DejaVuSans-69" d="M 603 3500 
L 1178 3500 
L 1178 0 
L 603 0 
L 603 3500 
z
M 603 4863 
L 1178 4863 
L 1178 4134 
L 603 4134 
L 603 4863 
z
" transform="scale(0.015625)"/>
      <path id="DejaVuSans-6f" d="M 1959 3097 
Q 1497 3097 1228 2736 
Q 959 2375 959 1747 
Q 959 1119 1226 758 
Q 1494 397 1959 397 
Q 2419 397 2687 759 
Q 2956 1122 2956 1747 
Q 2956 2369 2687 2733 
Q 2419 3097 1959 3097 
z
M 1959 3584 
Q 2709 3584 3137 3096 
Q 3566 2609 3566 1747 
Q 3566 888 3137 398 
Q 2709 -91 1959 -91 
Q 1206 -91 779 398 
Q 353 888 353 1747 
Q 353 2609 779 3096 
Q 1206 3584 1959 3584 
z
" transform="scale(0.015625)"/>
      <path id="DejaVuSans-6e" d="M 3513 2113 
L 3513 0 
L 2938 0 
L 2938 2094 
Q 2938 2591 2744 2837 
Q 2550 3084 2163 3084 
Q 1697 3084 1428 2787 
Q 1159 2491 1159 1978 
L 1159 0 
L 581 0 
L 581 3500 
L 1159 3500 
L 1159 2956 
Q 1366 3272 1645 3428 
Q 1925 3584 2291 3584 
Q 2894 3584 3203 3211 
Q 3513 2838 3513 2113 
z
" transform="scale(0.015625)"/>
      <path id="DejaVuSans-20" transform="scale(0.015625)"/>
      <path id="DejaVuSans-4c" d="M 628 4666 
L 1259 4666 
L 1259 531 
L 3531 531 
L 3531 0 
L 628 0 
L 628 4666 
z
" transform="scale(0.015625)"/>
      <path id="DejaVuSans-66" d="M 2375 4863 
L 2375 4384 
L 1825 4384 
Q 1516 4384 1395 4259 
Q 1275 4134 1275 3809 
L 1275 3500 
L 2222 3500 
L 2222 3053 
L 1275 3053 
L 1275 0 
L 697 0 
L 697 3053 
L 147 3053 
L 147 3500 
L 697 3500 
L 697 3744 
Q 697 4328 969 4595 
Q 1241 4863 1831 4863 
L 2375 4863 
z
" transform="scale(0.015625)"/>
      <path id="DejaVuSans-45" d="M 628 4666 
L 3578 4666 
L 3578 4134 
L 1259 4134 
L 1259 2753 
L 3481 2753 
L 3481 2222 
L 1259 2222 
L 1259 531 
L 3634 531 
L 3634 0 
L 628 0 
L 628 4666 
z
" transform="scale(0.015625)"/>
      <path id="DejaVuSans-43" d="M 4122 4306 
L 4122 3641 
Q 3803 3938 3442 4084 
Q 3081 4231 2675 4231 
Q 1875 4231 1450 3742 
Q 1025 3253 1025 2328 
Q 1025 1406 1450 917 
Q 1875 428 2675 428 
Q 3081 428 3442 575 
Q 3803 722 4122 1019 
L 4122 359 
Q 3791 134 3420 21 
Q 3050 -91 2638 -91 
Q 1578 -91 968 557 
Q 359 1206 359 2328 
Q 359 3453 968 4101 
Q 1578 4750 2638 4750 
Q 3056 4750 3426 4639 
Q 3797 4528 4122 4306 
z
" transform="scale(0.015625)"/>
      <path id="DejaVuSans-28" d="M 1984 4856 
Q 1566 4138 1362 3434 
Q 1159 2731 1159 2009 
Q 1159 1288 1364 580 
Q 1569 -128 1984 -844 
L 1484 -844 
Q 1016 -109 783 600 
Q 550 1309 550 2009 
Q 550 2706 781 3412 
Q 1013 4119 1484 4856 
L 1984 4856 
z
" transform="scale(0.015625)"/>
      <path id="DejaVuSans-b5" d="M 544 -1331 
L 544 3500 
L 1119 3500 
L 1119 1325 
Q 1119 872 1334 640 
Q 1550 409 1972 409 
Q 2434 409 2667 671 
Q 2900 934 2900 1459 
L 2900 3500 
L 3475 3500 
L 3475 806 
Q 3475 619 3529 530 
Q 3584 441 3700 441 
Q 3728 441 3778 458 
Q 3828 475 3916 513 
L 3916 50 
Q 3788 -22 3673 -56 
Q 3559 -91 3450 -91 
Q 3234 -91 3106 31 
Q 2978 153 2931 403 
Q 2775 156 2548 32 
Q 2322 -91 2016 -91 
Q 1697 -91 1473 31 
Q 1250 153 1119 397 
L 1119 -1331 
L 544 -1331 
z
" transform="scale(0.015625)"/>
      <path id="DejaVuSans-53" d="M 3425 4513 
L 3425 3897 
Q 3066 4069 2747 4153 
Q 2428 4238 2131 4238 
Q 1616 4238 1336 4038 
Q 1056 3838 1056 3469 
Q 1056 3159 1242 3001 
Q 1428 2844 1947 2747 
L 2328 2669 
Q 3034 2534 3370 2195 
Q 3706 1856 3706 1288 
Q 3706 609 3251 259 
Q 2797 -91 1919 -91 
Q 1588 -91 1214 -16 
Q 841 59 441 206 
L 441 856 
Q 825 641 1194 531 
Q 1563 422 1919 422 
Q 2459 422 2753 634 
Q 3047 847 3047 1241 
Q 3047 1584 2836 1778 
Q 2625 1972 2144 2069 
L 1759 2144 
Q 1053 2284 737 2584 
Q 422 2884 422 3419 
Q 422 4038 858 4394 
Q 1294 4750 2059 4750 
Q 2388 4750 2728 4690 
Q 3069 4631 3425 4513 
z
" transform="scale(0.015625)"/>
      <path id="DejaVuSans-2f" d="M 1625 4666 
L 2156 4666 
L 531 -594 
L 0 -594 
L 1625 4666 
z
" transform="scale(0.015625)"/>
      <path id="DejaVuSans-63" d="M 3122 3366 
L 3122 2828 
Q 2878 2963 2633 3030 
Q 2388 3097 2138 3097 
Q 1578 3097 1268 2742 
Q 959 2388 959 1747 
Q 959 1106 1268 751 
Q 1578 397 2138 397 
Q 2388 397 2633 464 
Q 2878 531 3122 666 
L 3122 134 
Q 2881 22 2623 -34 
Q 2366 -91 2075 -91 
Q 1284 -91 818 406 
Q 353 903 353 1747 
Q 353 2603 823 3093 
Q 1294 3584 2113 3584 
Q 2378 3584 2631 3529 
Q 2884 3475 3122 3366 
z
" transform="scale(0.015625)"/>
      <path id="DejaVuSans-6d" d="M 3328 2828 
Q 3544 3216 3844 3400 
Q 4144 3584 4550 3584 
Q 5097 3584 5394 3201 
Q 5691 2819 5691 2113 
L 5691 0 
L 5113 0 
L 5113 2094 
Q 5113 2597 4934 2840 
Q 4756 3084 4391 3084 
Q 3944 3084 3684 2787 
Q 3425 2491 3425 1978 
L 3425 0 
L 2847 0 
L 2847 2094 
Q 2847 2600 2669 2842 
Q 2491 3084 2119 3084 
Q 1678 3084 1418 2786 
Q 1159 2488 1159 1978 
L 1159 0 
L 581 0 
L 581 3500 
L 1159 3500 
L 1159 2956 
Q 1356 3278 1631 3431 
Q 1906 3584 2284 3584 
Q 2666 3584 2933 3390 
Q 3200 3197 3328 2828 
z
" transform="scale(0.015625)"/>
      <path id="DejaVuSans-29" d="M 513 4856 
L 1013 4856 
Q 1481 4119 1714 3412 
Q 1947 2706 1947 2009 
Q 1947 1309 1714 600 
Q 1481 -109 1013 -844 
L 513 -844 
Q 928 -128 1133 580 
Q 1338 1288 1338 2009 
Q 1338 2731 1133 3434 
Q 928 4138 513 4856 
z
" transform="scale(0.015625)"/>
      <path id="DejaVuSans-76" d="M 191 3500 
L 800 3500 
L 1894 563 
L 2988 3500 
L 3597 3500 
L 2284 0 
L 1503 0 
L 191 3500 
z
" transform="scale(0.015625)"/>
      <path id="DejaVuSans-59" d="M -13 4666 
L 666 4666 
L 1959 2747 
L 3244 4666 
L 3922 4666 
L 2272 2222 
L 2272 0 
L 1638 0 
L 1638 2222 
L -13 4666 
z
" transform="scale(0.015625)"/>
     </defs>
     <use xlink:href="#DejaVuSans-52"/>
     <use xlink:href="#DejaVuSans-65" x="64.982422"/>
     <use xlink:href="#DejaVuSans-67" x="126.505859"/>
     <use xlink:href="#DejaVuSans-72" x="189.982422"/>
     <use xlink:href="#DejaVuSans-65" x="228.845703"/>
     <use xlink:href="#DejaVuSans-73" x="290.369141"/>
     <use xlink:href="#DejaVuSans-73" x="342.46875"/>
     <use xlink:href="#DejaVuSans-69" x="394.568359"/>
     <use xlink:href="#DejaVuSans-6f" x="422.351562"/>
     <use xlink:href="#DejaVuSans-6e" x="483.533203"/>
     <use xlink:href="#DejaVuSans-20" x="546.912109"/>
     <use xlink:href="#DejaVuSans-4c" x="578.699219"/>
     <use xlink:href="#DejaVuSans-69" x="634.412109"/>
     <use xlink:href="#DejaVuSans-6e" x="662.195312"/>
     <use xlink:href="#DejaVuSans-65" x="725.574219"/>
     <use xlink:href="#DejaVuSans-20" x="787.097656"/>
     <use xlink:href="#DejaVuSans-66" x="818.884766"/>
     <use xlink:href="#DejaVuSans-6f" x="854.089844"/>
     <use xlink:href="#DejaVuSans-72" x="915.271484"/>
     <use xlink:href="#DejaVuSans-20" x="956.384766"/>
     <use xlink:href="#DejaVuSans-45" x="988.171875"/>
     <use xlink:href="#DejaVuSans-43" x="1051.355469"/>
     <use xlink:href="#DejaVuSans-20" x="1121.179688"/>
     <use xlink:href="#DejaVuSans-28" x="1152.966797"/>
     <use xlink:href="#DejaVuSans-b5" x="1191.980469"/>
     <use xlink:href="#DejaVuSans-53" x="1255.603516"/>
     <use xlink:href="#DejaVuSans-2f" x="1319.080078"/>
     <use xlink:href="#DejaVuSans-63" x="1352.771484"/>
     <use xlink:href="#DejaVuSans-6d" x="1407.751953"/>
     <use xlink:href="#DejaVuSans-29" x="1505.164062"/>
     <use xlink:href="#DejaVuSans-20" x="1544.177734"/>
     <use xlink:href="#DejaVuSans-76" x="1575.964844"/>
     <use xlink:href="#DejaVuSans-73" x="1635.144531"/>
     <use xlink:href="#DejaVuSans-20" x="1687.244141"/>
     <use xlink:href="#DejaVuSans-59" x="1719.03125"/>
    </g>
   </g>
   <g id="legend_1">
    <g id="patch_7">
     <path d="M 57.4 383.8 
L 179.257813 383.8 
Q 181.257813 383.8 181.257813 381.8 
L 181.257813 353.365625 
Q 181.257813 351.365625 179.257813 351.365625 
L 57.4 351.365625 
Q 55.4 351.365625 55.4 353.365625 
L 55.4 381.8 
Q 55.4 383.8 57.4 383.8 
z
" style="fill: #ffffff; opacity: 0.8; stroke: #cccccc; stroke-linejoin: miter"/>
    </g>
    <g id="PathCollection_2">
     <g>
      <use xlink:href="#m2ae7f2eba8" x="69.4" y="360.339063" style="fill: #996633; stroke: #996633; stroke-width: 1.5"/>
     </g>
    </g>
    <g id="text_13">
     <!-- Data Points -->
     <g transform="translate(87.4 362.964063)scale(0.1 -0.1)">
      <defs>
       <path id="DejaVuSans-Bold-44" d="M 1791 3756 
L 1791 909 
L 2222 909 
Q 2959 909 3348 1275 
Q 3738 1641 3738 2338 
Q 3738 3031 3350 3393 
Q 2963 3756 2222 3756 
L 1791 3756 
z
M 588 4666 
L 1856 4666 
Q 2919 4666 3439 4514 
Q 3959 4363 4331 4000 
Q 4659 3684 4818 3271 
Q 4978 2859 4978 2338 
Q 4978 1809 4818 1395 
Q 4659 981 4331 666 
Q 3956 303 3431 151 
Q 2906 0 1856 0 
L 588 0 
L 588 4666 
z
" transform="scale(0.015625)"/>
       <path id="DejaVuSans-Bold-61" d="M 2106 1575 
Q 1756 1575 1579 1456 
Q 1403 1338 1403 1106 
Q 1403 894 1545 773 
Q 1688 653 1941 653 
Q 2256 653 2472 879 
Q 2688 1106 2688 1447 
L 2688 1575 
L 2106 1575 
z
M 3816 1997 
L 3816 0 
L 2688 0 
L 2688 519 
Q 2463 200 2181 54 
Q 1900 -91 1497 -91 
Q 953 -91 614 226 
Q 275 544 275 1050 
Q 275 1666 698 1953 
Q 1122 2241 2028 2241 
L 2688 2241 
L 2688 2328 
Q 2688 2594 2478 2717 
Q 2269 2841 1825 2841 
Q 1466 2841 1156 2769 
Q 847 2697 581 2553 
L 581 3406 
Q 941 3494 1303 3539 
Q 1666 3584 2028 3584 
Q 2975 3584 3395 3211 
Q 3816 2838 3816 1997 
z
" transform="scale(0.015625)"/>
       <path id="DejaVuSans-Bold-74" d="M 1759 4494 
L 1759 3500 
L 2913 3500 
L 2913 2700 
L 1759 2700 
L 1759 1216 
Q 1759 972 1856 886 
Q 1953 800 2241 800 
L 2816 800 
L 2816 0 
L 1856 0 
Q 1194 0 917 276 
Q 641 553 641 1216 
L 641 2700 
L 84 2700 
L 84 3500 
L 641 3500 
L 641 4494 
L 1759 4494 
z
" transform="scale(0.015625)"/>
       <path id="DejaVuSans-Bold-50" d="M 588 4666 
L 2584 4666 
Q 3475 4666 3951 4270 
Q 4428 3875 4428 3144 
Q 4428 2409 3951 2014 
Q 3475 1619 2584 1619 
L 1791 1619 
L 1791 0 
L 588 0 
L 588 4666 
z
M 1791 3794 
L 1791 2491 
L 2456 2491 
Q 2806 2491 2997 2661 
Q 3188 2831 3188 3144 
Q 3188 3456 2997 3625 
Q 2806 3794 2456 3794 
L 1791 3794 
z
" transform="scale(0.015625)"/>
       <path id="DejaVuSans-Bold-6f" d="M 2203 2784 
Q 1831 2784 1636 2517 
Q 1441 2250 1441 1747 
Q 1441 1244 1636 976 
Q 1831 709 2203 709 
Q 2569 709 2762 976 
Q 2956 1244 2956 1747 
Q 2956 2250 2762 2517 
Q 2569 2784 2203 2784 
z
M 2203 3584 
Q 3106 3584 3614 3096 
Q 4122 2609 4122 1747 
Q 4122 884 3614 396 
Q 3106 -91 2203 -91 
Q 1297 -91 786 396 
Q 275 884 275 1747 
Q 275 2609 786 3096 
Q 1297 3584 2203 3584 
z
" transform="scale(0.015625)"/>
       <path id="DejaVuSans-Bold-69" d="M 538 3500 
L 1656 3500 
L 1656 0 
L 538 0 
L 538 3500 
z
M 538 4863 
L 1656 4863 
L 1656 3950 
L 538 3950 
L 538 4863 
z
" transform="scale(0.015625)"/>
       <path id="DejaVuSans-Bold-6e" d="M 4056 2131 
L 4056 0 
L 2931 0 
L 2931 347 
L 2931 1631 
Q 2931 2084 2911 2256 
Q 2891 2428 2841 2509 
Q 2775 2619 2662 2680 
Q 2550 2741 2406 2741 
Q 2056 2741 1856 2470 
Q 1656 2200 1656 1722 
L 1656 0 
L 538 0 
L 538 3500 
L 1656 3500 
L 1656 2988 
Q 1909 3294 2193 3439 
Q 2478 3584 2822 3584 
Q 3428 3584 3742 3212 
Q 4056 2841 4056 2131 
z
" transform="scale(0.015625)"/>
       <path id="DejaVuSans-Bold-73" d="M 3272 3391 
L 3272 2541 
Q 2913 2691 2578 2766 
Q 2244 2841 1947 2841 
Q 1628 2841 1473 2761 
Q 1319 2681 1319 2516 
Q 1319 2381 1436 2309 
Q 1553 2238 1856 2203 
L 2053 2175 
Q 2913 2066 3209 1816 
Q 3506 1566 3506 1031 
Q 3506 472 3093 190 
Q 2681 -91 1863 -91 
Q 1516 -91 1145 -36 
Q 775 19 384 128 
L 384 978 
Q 719 816 1070 734 
Q 1422 653 1784 653 
Q 2113 653 2278 743 
Q 2444 834 2444 1013 
Q 2444 1163 2330 1236 
Q 2216 1309 1875 1350 
L 1678 1375 
Q 931 1469 631 1722 
Q 331 1975 331 2491 
Q 331 3047 712 3315 
Q 1094 3584 1881 3584 
Q 2191 3584 2531 3537 
Q 2872 3491 3272 3391 
z
" transform="scale(0.015625)"/>
      </defs>
      <use xlink:href="#DejaVuSans-Bold-44"/>
      <use xlink:href="#DejaVuSans-Bold-61" x="83.007812"/>
      <use xlink:href="#DejaVuSans-Bold-74" x="150.488281"/>
      <use xlink:href="#DejaVuSans-Bold-61" x="198.291016"/>
      <use xlink:href="#DejaVuSans-Bold-20" x="265.771484"/>
      <use xlink:href="#DejaVuSans-Bold-50" x="300.585938"/>
      <use xlink:href="#DejaVuSans-Bold-6f" x="373.876953"/>
      <use xlink:href="#DejaVuSans-Bold-69" x="442.578125"/>
      <use xlink:href="#DejaVuSans-Bold-6e" x="476.855469"/>
      <use xlink:href="#DejaVuSans-Bold-74" x="548.046875"/>
      <use xlink:href="#DejaVuSans-Bold-73" x="595.849609"/>
     </g>
    </g>
    <g id="line2d_11">
     <path d="M 59.4 374.142188 
L 69.4 374.142188 
L 79.4 374.142188 
" style="fill: none; stroke: #ff0000; stroke-width: 1.5; stroke-linecap: square"/>
    </g>
    <g id="text_14">
     <!-- Regression Line -->
     <g transform="translate(87.4 377.642188)scale(0.1 -0.1)">
      <defs>
       <path id="DejaVuSans-Bold-52" d="M 2297 2597 
Q 2675 2597 2839 2737 
Q 3003 2878 3003 3200 
Q 3003 3519 2839 3656 
Q 2675 3794 2297 3794 
L 1791 3794 
L 1791 2597 
L 2297 2597 
z
M 1791 1766 
L 1791 0 
L 588 0 
L 588 4666 
L 2425 4666 
Q 3347 4666 3776 4356 
Q 4206 4047 4206 3378 
Q 4206 2916 3982 2619 
Q 3759 2322 3309 2181 
Q 3556 2125 3751 1926 
Q 3947 1728 4147 1325 
L 4800 0 
L 3519 0 
L 2950 1159 
Q 2778 1509 2601 1637 
Q 2425 1766 2131 1766 
L 1791 1766 
z
" transform="scale(0.015625)"/>
       <path id="DejaVuSans-Bold-65" d="M 4031 1759 
L 4031 1441 
L 1416 1441 
Q 1456 1047 1700 850 
Q 1944 653 2381 653 
Q 2734 653 3104 758 
Q 3475 863 3866 1075 
L 3866 213 
Q 3469 63 3072 -14 
Q 2675 -91 2278 -91 
Q 1328 -91 801 392 
Q 275 875 275 1747 
Q 275 2603 792 3093 
Q 1309 3584 2216 3584 
Q 3041 3584 3536 3087 
Q 4031 2591 4031 1759 
z
M 2881 2131 
Q 2881 2450 2695 2645 
Q 2509 2841 2209 2841 
Q 1884 2841 1681 2658 
Q 1478 2475 1428 2131 
L 2881 2131 
z
" transform="scale(0.015625)"/>
       <path id="DejaVuSans-Bold-67" d="M 2919 594 
Q 2688 288 2409 144 
Q 2131 0 1766 0 
Q 1125 0 706 504 
Q 288 1009 288 1791 
Q 288 2575 706 3076 
Q 1125 3578 1766 3578 
Q 2131 3578 2409 3434 
Q 2688 3291 2919 2981 
L 2919 3500 
L 4044 3500 
L 4044 353 
Q 4044 -491 3511 -936 
Q 2978 -1381 1966 -1381 
Q 1638 -1381 1331 -1331 
Q 1025 -1281 716 -1178 
L 716 -306 
Q 1009 -475 1290 -558 
Q 1572 -641 1856 -641 
Q 2406 -641 2662 -400 
Q 2919 -159 2919 353 
L 2919 594 
z
M 2181 2772 
Q 1834 2772 1640 2515 
Q 1447 2259 1447 1791 
Q 1447 1309 1634 1061 
Q 1822 813 2181 813 
Q 2531 813 2725 1069 
Q 2919 1325 2919 1791 
Q 2919 2259 2725 2515 
Q 2531 2772 2181 2772 
z
" transform="scale(0.015625)"/>
       <path id="DejaVuSans-Bold-72" d="M 3138 2547 
Q 2991 2616 2845 2648 
Q 2700 2681 2553 2681 
Q 2122 2681 1889 2404 
Q 1656 2128 1656 1613 
L 1656 0 
L 538 0 
L 538 3500 
L 1656 3500 
L 1656 2925 
Q 1872 3269 2151 3426 
Q 2431 3584 2822 3584 
Q 2878 3584 2943 3579 
Q 3009 3575 3134 3559 
L 3138 2547 
z
" transform="scale(0.015625)"/>
       <path id="DejaVuSans-Bold-4c" d="M 588 4666 
L 1791 4666 
L 1791 909 
L 3903 909 
L 3903 0 
L 588 0 
L 588 4666 
z
" transform="scale(0.015625)"/>
      </defs>
      <use xlink:href="#DejaVuSans-Bold-52"/>
      <use xlink:href="#DejaVuSans-Bold-65" x="77.001953"/>
      <use xlink:href="#DejaVuSans-Bold-67" x="144.824219"/>
      <use xlink:href="#DejaVuSans-Bold-72" x="216.40625"/>
      <use xlink:href="#DejaVuSans-Bold-65" x="265.722656"/>
      <use xlink:href="#DejaVuSans-Bold-73" x="333.544922"/>
      <use xlink:href="#DejaVuSans-Bold-73" x="393.066406"/>
      <use xlink:href="#DejaVuSans-Bold-69" x="452.587891"/>
      <use xlink:href="#DejaVuSans-Bold-6f" x="486.865234"/>
      <use xlink:href="#DejaVuSans-Bold-6e" x="555.566406"/>
      <use xlink:href="#DejaVuSans-Bold-20" x="626.757812"/>
      <use xlink:href="#DejaVuSans-Bold-4c" x="661.572266"/>
      <use xlink:href="#DejaVuSans-Bold-69" x="725.292969"/>
      <use xlink:href="#DejaVuSans-Bold-6e" x="759.570312"/>
      <use xlink:href="#DejaVuSans-Bold-65" x="830.761719"/>
     </g>
    </g>
   </g>
  </g>
  <g id="axes_2">
   <g id="patch_8">
    <path d="M 50.4 112.32 
L 372.96 112.32 
L 372.96 43.2 
L 50.4 43.2 
z
" style="fill: #ffffff"/>
   </g>
   <g id="patch_9">
    <path d="M 65.061818 112.32 
L 72.392727 112.32 
L 72.392727 77.211429 
L 65.061818 77.211429 
z
" clip-path="url(#pba8df502c9)" style="fill: #996633; stroke: #000000; stroke-width: 0.75; stroke-linejoin: miter"/>
   </g>
   <g id="patch_10">
    <path d="M 72.392727 112.32 
L 79.723636 112.32 
L 79.723636 90.377143 
L 72.392727 90.377143 
z
" clip-path="url(#pba8df502c9)" style="fill: #996633; stroke: #000000; stroke-width: 0.75; stroke-linejoin: miter"/>
   </g>
   <g id="patch_11">
    <path d="M 79.723636 112.32 
L 87.054545 112.32 
L 87.054545 99.154286 
L 79.723636 99.154286 
z
" clip-path="url(#pba8df502c9)" style="fill: #996633; stroke: #000000; stroke-width: 0.75; stroke-linejoin: miter"/>
   </g>
   <g id="patch_12">
    <path d="M 87.054545 112.32 
L 94.385455 112.32 
L 94.385455 90.377143 
L 87.054545 90.377143 
z
" clip-path="url(#pba8df502c9)" style="fill: #996633; stroke: #000000; stroke-width: 0.75; stroke-linejoin: miter"/>
   </g>
   <g id="patch_13">
    <path d="M 94.385455 112.32 
L 101.716364 112.32 
L 101.716364 46.491429 
L 94.385455 46.491429 
z
" clip-path="url(#pba8df502c9)" style="fill: #996633; stroke: #000000; stroke-width: 0.75; stroke-linejoin: miter"/>
   </g>
   <g id="patch_14">
    <path d="M 101.716364 112.32 
L 109.047273 112.32 
L 109.047273 103.542857 
L 101.716364 103.542857 
z
" clip-path="url(#pba8df502c9)" style="fill: #996633; stroke: #000000; stroke-width: 0.75; stroke-linejoin: miter"/>
   </g>
   <g id="patch_15">
    <path d="M 109.047273 112.32 
L 116.378182 112.32 
L 116.378182 99.154286 
L 109.047273 99.154286 
z
" clip-path="url(#pba8df502c9)" style="fill: #996633; stroke: #000000; stroke-width: 0.75; stroke-linejoin: miter"/>
   </g>
   <g id="patch_16">
    <path d="M 116.378182 112.32 
L 123.709091 112.32 
L 123.709091 112.32 
L 116.378182 112.32 
z
" clip-path="url(#pba8df502c9)" style="fill: #996633; stroke: #000000; stroke-width: 0.75; stroke-linejoin: miter"/>
   </g>
   <g id="patch_17">
    <path d="M 123.709091 112.32 
L 131.04 112.32 
L 131.04 103.542857 
L 123.709091 103.542857 
z
" clip-path="url(#pba8df502c9)" style="fill: #996633; stroke: #000000; stroke-width: 0.75; stroke-linejoin: miter"/>
   </g>
   <g id="patch_18">
    <path d="M 131.04 112.32 
L 138.370909 112.32 
L 138.370909 112.32 
L 131.04 112.32 
z
" clip-path="url(#pba8df502c9)" style="fill: #996633; stroke: #000000; stroke-width: 0.75; stroke-linejoin: miter"/>
   </g>
   <g id="patch_19">
    <path d="M 138.370909 112.32 
L 145.701818 112.32 
L 145.701818 107.931429 
L 138.370909 107.931429 
z
" clip-path="url(#pba8df502c9)" style="fill: #996633; stroke: #000000; stroke-width: 0.75; stroke-linejoin: miter"/>
   </g>
   <g id="patch_20">
    <path d="M 145.701818 112.32 
L 153.032727 112.32 
L 153.032727 112.32 
L 145.701818 112.32 
z
" clip-path="url(#pba8df502c9)" style="fill: #996633; stroke: #000000; stroke-width: 0.75; stroke-linejoin: miter"/>
   </g>
   <g id="patch_21">
    <path d="M 153.032727 112.32 
L 160.363636 112.32 
L 160.363636 112.32 
L 153.032727 112.32 
z
" clip-path="url(#pba8df502c9)" style="fill: #996633; stroke: #000000; stroke-width: 0.75; stroke-linejoin: miter"/>
   </g>
   <g id="patch_22">
    <path d="M 160.363636 112.32 
L 167.694545 112.32 
L 167.694545 112.32 
L 160.363636 112.32 
z
" clip-path="url(#pba8df502c9)" style="fill: #996633; stroke: #000000; stroke-width: 0.75; stroke-linejoin: miter"/>
   </g>
   <g id="patch_23">
    <path d="M 167.694545 112.32 
L 175.025455 112.32 
L 175.025455 112.32 
L 167.694545 112.32 
z
" clip-path="url(#pba8df502c9)" style="fill: #996633; stroke: #000000; stroke-width: 0.75; stroke-linejoin: miter"/>
   </g>
   <g id="patch_24">
    <path d="M 175.025455 112.32 
L 182.356364 112.32 
L 182.356364 107.931429 
L 175.025455 107.931429 
z
" clip-path="url(#pba8df502c9)" style="fill: #996633; stroke: #000000; stroke-width: 0.75; stroke-linejoin: miter"/>
   </g>
   <g id="patch_25">
    <path d="M 182.356364 112.32 
L 189.687273 112.32 
L 189.687273 107.931429 
L 182.356364 107.931429 
z
" clip-path="url(#pba8df502c9)" style="fill: #996633; stroke: #000000; stroke-width: 0.75; stroke-linejoin: miter"/>
   </g>
   <g id="patch_26">
    <path d="M 189.687273 112.32 
L 197.018182 112.32 
L 197.018182 112.32 
L 189.687273 112.32 
z
" clip-path="url(#pba8df502c9)" style="fill: #996633; stroke: #000000; stroke-width: 0.75; stroke-linejoin: miter"/>
   </g>
   <g id="patch_27">
    <path d="M 197.018182 112.32 
L 204.349091 112.32 
L 204.349091 112.32 
L 197.018182 112.32 
z
" clip-path="url(#pba8df502c9)" style="fill: #996633; stroke: #000000; stroke-width: 0.75; stroke-linejoin: miter"/>
   </g>
   <g id="patch_28">
    <path d="M 204.349091 112.32 
L 211.68 112.32 
L 211.68 112.32 
L 204.349091 112.32 
z
" clip-path="url(#pba8df502c9)" style="fill: #996633; stroke: #000000; stroke-width: 0.75; stroke-linejoin: miter"/>
   </g>
   <g id="patch_29">
    <path d="M 211.68 112.32 
L 219.010909 112.32 
L 219.010909 112.32 
L 211.68 112.32 
z
" clip-path="url(#pba8df502c9)" style="fill: #996633; stroke: #000000; stroke-width: 0.75; stroke-linejoin: miter"/>
   </g>
   <g id="patch_30">
    <path d="M 219.010909 112.32 
L 226.341818 112.32 
L 226.341818 112.32 
L 219.010909 112.32 
z
" clip-path="url(#pba8df502c9)" style="fill: #996633; stroke: #000000; stroke-width: 0.75; stroke-linejoin: miter"/>
   </g>
   <g id="patch_31">
    <path d="M 226.341818 112.32 
L 233.672727 112.32 
L 233.672727 112.32 
L 226.341818 112.32 
z
" clip-path="url(#pba8df502c9)" style="fill: #996633; stroke: #000000; stroke-width: 0.75; stroke-linejoin: miter"/>
   </g>
   <g id="patch_32">
    <path d="M 233.672727 112.32 
L 241.003636 112.32 
L 241.003636 112.32 
L 233.672727 112.32 
z
" clip-path="url(#pba8df502c9)" style="fill: #996633; stroke: #000000; stroke-width: 0.75; stroke-linejoin: miter"/>
   </g>
   <g id="patch_33">
    <path d="M 241.003636 112.32 
L 248.334545 112.32 
L 248.334545 112.32 
L 241.003636 112.32 
z
" clip-path="url(#pba8df502c9)" style="fill: #996633; stroke: #000000; stroke-width: 0.75; stroke-linejoin: miter"/>
   </g>
   <g id="patch_34">
    <path d="M 248.334545 112.32 
L 255.665455 112.32 
L 255.665455 112.32 
L 248.334545 112.32 
z
" clip-path="url(#pba8df502c9)" style="fill: #996633; stroke: #000000; stroke-width: 0.75; stroke-linejoin: miter"/>
   </g>
   <g id="patch_35">
    <path d="M 255.665455 112.32 
L 262.996364 112.32 
L 262.996364 112.32 
L 255.665455 112.32 
z
" clip-path="url(#pba8df502c9)" style="fill: #996633; stroke: #000000; stroke-width: 0.75; stroke-linejoin: miter"/>
   </g>
   <g id="patch_36">
    <path d="M 262.996364 112.32 
L 270.327273 112.32 
L 270.327273 112.32 
L 262.996364 112.32 
z
" clip-path="url(#pba8df502c9)" style="fill: #996633; stroke: #000000; stroke-width: 0.75; stroke-linejoin: miter"/>
   </g>
   <g id="patch_37">
    <path d="M 270.327273 112.32 
L 277.658182 112.32 
L 277.658182 112.32 
L 270.327273 112.32 
z
" clip-path="url(#pba8df502c9)" style="fill: #996633; stroke: #000000; stroke-width: 0.75; stroke-linejoin: miter"/>
   </g>
   <g id="patch_38">
    <path d="M 277.658182 112.32 
L 284.989091 112.32 
L 284.989091 112.32 
L 277.658182 112.32 
z
" clip-path="url(#pba8df502c9)" style="fill: #996633; stroke: #000000; stroke-width: 0.75; stroke-linejoin: miter"/>
   </g>
   <g id="patch_39">
    <path d="M 284.989091 112.32 
L 292.32 112.32 
L 292.32 112.32 
L 284.989091 112.32 
z
" clip-path="url(#pba8df502c9)" style="fill: #996633; stroke: #000000; stroke-width: 0.75; stroke-linejoin: miter"/>
   </g>
   <g id="patch_40">
    <path d="M 292.32 112.32 
L 299.650909 112.32 
L 299.650909 112.32 
L 292.32 112.32 
z
" clip-path="url(#pba8df502c9)" style="fill: #996633; stroke: #000000; stroke-width: 0.75; stroke-linejoin: miter"/>
   </g>
   <g id="patch_41">
    <path d="M 299.650909 112.32 
L 306.981818 112.32 
L 306.981818 112.32 
L 299.650909 112.32 
z
" clip-path="url(#pba8df502c9)" style="fill: #996633; stroke: #000000; stroke-width: 0.75; stroke-linejoin: miter"/>
   </g>
   <g id="patch_42">
    <path d="M 306.981818 112.32 
L 314.312727 112.32 
L 314.312727 112.32 
L 306.981818 112.32 
z
" clip-path="url(#pba8df502c9)" style="fill: #996633; stroke: #000000; stroke-width: 0.75; stroke-linejoin: miter"/>
   </g>
   <g id="patch_43">
    <path d="M 314.312727 112.32 
L 321.643636 112.32 
L 321.643636 112.32 
L 314.312727 112.32 
z
" clip-path="url(#pba8df502c9)" style="fill: #996633; stroke: #000000; stroke-width: 0.75; stroke-linejoin: miter"/>
   </g>
   <g id="patch_44">
    <path d="M 321.643636 112.32 
L 328.974545 112.32 
L 328.974545 112.32 
L 321.643636 112.32 
z
" clip-path="url(#pba8df502c9)" style="fill: #996633; stroke: #000000; stroke-width: 0.75; stroke-linejoin: miter"/>
   </g>
   <g id="patch_45">
    <path d="M 328.974545 112.32 
L 336.305455 112.32 
L 336.305455 112.32 
L 328.974545 112.32 
z
" clip-path="url(#pba8df502c9)" style="fill: #996633; stroke: #000000; stroke-width: 0.75; stroke-linejoin: miter"/>
   </g>
   <g id="patch_46">
    <path d="M 336.305455 112.32 
L 343.636364 112.32 
L 343.636364 112.32 
L 336.305455 112.32 
z
" clip-path="url(#pba8df502c9)" style="fill: #996633; stroke: #000000; stroke-width: 0.75; stroke-linejoin: miter"/>
   </g>
   <g id="patch_47">
    <path d="M 343.636364 112.32 
L 350.967273 112.32 
L 350.967273 112.32 
L 343.636364 112.32 
z
" clip-path="url(#pba8df502c9)" style="fill: #996633; stroke: #000000; stroke-width: 0.75; stroke-linejoin: miter"/>
   </g>
   <g id="patch_48">
    <path d="M 350.967273 112.32 
L 358.298182 112.32 
L 358.298182 107.931429 
L 350.967273 107.931429 
z
" clip-path="url(#pba8df502c9)" style="fill: #996633; stroke: #000000; stroke-width: 0.75; stroke-linejoin: miter"/>
   </g>
   <g id="matplotlib.axis_3">
    <g id="xtick_5">
     <g id="line2d_12">
      <g>
       <use xlink:href="#mdae6728325" x="113.018168" y="112.32" style="stroke: #000000; stroke-width: 0.8"/>
      </g>
     </g>
    </g>
    <g id="xtick_6">
     <g id="line2d_13">
      <g>
       <use xlink:href="#mdae6728325" x="184.27797" y="112.32" style="stroke: #000000; stroke-width: 0.8"/>
      </g>
     </g>
    </g>
    <g id="xtick_7">
     <g id="line2d_14">
      <g>
       <use xlink:href="#mdae6728325" x="255.537771" y="112.32" style="stroke: #000000; stroke-width: 0.8"/>
      </g>
     </g>
    </g>
    <g id="xtick_8">
     <g id="line2d_15">
      <g>
       <use xlink:href="#mdae6728325" x="326.797573" y="112.32" style="stroke: #000000; stroke-width: 0.8"/>
      </g>
     </g>
    </g>
   </g>
   <g id="matplotlib.axis_4"/>
   <g id="patch_49">
    <path d="M 50.4 112.32 
L 372.96 112.32 
" style="fill: none; stroke: #000000; stroke-width: 0.8; stroke-linejoin: miter; stroke-linecap: square"/>
   </g>
  </g>
  <g id="axes_3">
   <g id="patch_50">
    <path d="M 372.96 388.8 
L 453.6 388.8 
L 453.6 112.32 
L 372.96 112.32 
z
" style="fill: #ffffff"/>
   </g>
   <g id="patch_51">
    <path d="M 372.96 376.232727 
L 383.931429 376.232727 
L 383.931429 371.000973 
L 372.96 371.000973 
z
" clip-path="url(#p3e7d379537)" style="fill: #996633; stroke: #000000; stroke-width: 0.75; stroke-linejoin: miter"/>
   </g>
   <g id="patch_52">
    <path d="M 372.96 371.000973 
L 372.96 371.000973 
L 372.96 365.769218 
L 372.96 365.769218 
z
" clip-path="url(#p3e7d379537)" style="fill: #996633; stroke: #000000; stroke-width: 0.75; stroke-linejoin: miter"/>
   </g>
   <g id="patch_53">
    <path d="M 372.96 365.769218 
L 383.931429 365.769218 
L 383.931429 360.537463 
L 372.96 360.537463 
z
" clip-path="url(#p3e7d379537)" style="fill: #996633; stroke: #000000; stroke-width: 0.75; stroke-linejoin: miter"/>
   </g>
   <g id="patch_54">
    <path d="M 372.96 360.537463 
L 372.96 360.537463 
L 372.96 355.305709 
L 372.96 355.305709 
z
" clip-path="url(#p3e7d379537)" style="fill: #996633; stroke: #000000; stroke-width: 0.75; stroke-linejoin: miter"/>
   </g>
   <g id="patch_55">
    <path d="M 372.96 355.305709 
L 383.931429 355.305709 
L 383.931429 350.073954 
L 372.96 350.073954 
z
" clip-path="url(#p3e7d379537)" style="fill: #996633; stroke: #000000; stroke-width: 0.75; stroke-linejoin: miter"/>
   </g>
   <g id="patch_56">
    <path d="M 372.96 350.073954 
L 383.931429 350.073954 
L 383.931429 344.842199 
L 372.96 344.842199 
z
" clip-path="url(#p3e7d379537)" style="fill: #996633; stroke: #000000; stroke-width: 0.75; stroke-linejoin: miter"/>
   </g>
   <g id="patch_57">
    <path d="M 372.96 344.842199 
L 383.931429 344.842199 
L 383.931429 339.610445 
L 372.96 339.610445 
z
" clip-path="url(#p3e7d379537)" style="fill: #996633; stroke: #000000; stroke-width: 0.75; stroke-linejoin: miter"/>
   </g>
   <g id="patch_58">
    <path d="M 372.96 339.610445 
L 383.931429 339.610445 
L 383.931429 334.37869 
L 372.96 334.37869 
z
" clip-path="url(#p3e7d379537)" style="fill: #996633; stroke: #000000; stroke-width: 0.75; stroke-linejoin: miter"/>
   </g>
   <g id="patch_59">
    <path d="M 372.96 334.37869 
L 416.845714 334.37869 
L 416.845714 329.146935 
L 372.96 329.146935 
z
" clip-path="url(#p3e7d379537)" style="fill: #996633; stroke: #000000; stroke-width: 0.75; stroke-linejoin: miter"/>
   </g>
   <g id="patch_60">
    <path d="M 372.96 329.146935 
L 383.931429 329.146935 
L 383.931429 323.91518 
L 372.96 323.91518 
z
" clip-path="url(#p3e7d379537)" style="fill: #996633; stroke: #000000; stroke-width: 0.75; stroke-linejoin: miter"/>
   </g>
   <g id="patch_61">
    <path d="M 372.96 323.91518 
L 383.931429 323.91518 
L 383.931429 318.683426 
L 372.96 318.683426 
z
" clip-path="url(#p3e7d379537)" style="fill: #996633; stroke: #000000; stroke-width: 0.75; stroke-linejoin: miter"/>
   </g>
   <g id="patch_62">
    <path d="M 372.96 318.683426 
L 372.96 318.683426 
L 372.96 313.451671 
L 372.96 313.451671 
z
" clip-path="url(#p3e7d379537)" style="fill: #996633; stroke: #000000; stroke-width: 0.75; stroke-linejoin: miter"/>
   </g>
   <g id="patch_63">
    <path d="M 372.96 313.451671 
L 383.931429 313.451671 
L 383.931429 308.219916 
L 372.96 308.219916 
z
" clip-path="url(#p3e7d379537)" style="fill: #996633; stroke: #000000; stroke-width: 0.75; stroke-linejoin: miter"/>
   </g>
   <g id="patch_64">
    <path d="M 372.96 308.219916 
L 383.931429 308.219916 
L 383.931429 302.988162 
L 372.96 302.988162 
z
" clip-path="url(#p3e7d379537)" style="fill: #996633; stroke: #000000; stroke-width: 0.75; stroke-linejoin: miter"/>
   </g>
   <g id="patch_65">
    <path d="M 372.96 302.988162 
L 394.902857 302.988162 
L 394.902857 297.756407 
L 372.96 297.756407 
z
" clip-path="url(#p3e7d379537)" style="fill: #996633; stroke: #000000; stroke-width: 0.75; stroke-linejoin: miter"/>
   </g>
   <g id="patch_66">
    <path d="M 372.96 297.756407 
L 372.96 297.756407 
L 372.96 292.524652 
L 372.96 292.524652 
z
" clip-path="url(#p3e7d379537)" style="fill: #996633; stroke: #000000; stroke-width: 0.75; stroke-linejoin: miter"/>
   </g>
   <g id="patch_67">
    <path d="M 372.96 292.524652 
L 372.96 292.524652 
L 372.96 287.292898 
L 372.96 287.292898 
z
" clip-path="url(#p3e7d379537)" style="fill: #996633; stroke: #000000; stroke-width: 0.75; stroke-linejoin: miter"/>
   </g>
   <g id="patch_68">
    <path d="M 372.96 287.292898 
L 372.96 287.292898 
L 372.96 282.061143 
L 372.96 282.061143 
z
" clip-path="url(#p3e7d379537)" style="fill: #996633; stroke: #000000; stroke-width: 0.75; stroke-linejoin: miter"/>
   </g>
   <g id="patch_69">
    <path d="M 372.96 282.061143 
L 372.96 282.061143 
L 372.96 276.829388 
L 372.96 276.829388 
z
" clip-path="url(#p3e7d379537)" style="fill: #996633; stroke: #000000; stroke-width: 0.75; stroke-linejoin: miter"/>
   </g>
   <g id="patch_70">
    <path d="M 372.96 276.829388 
L 383.931429 276.829388 
L 383.931429 271.597634 
L 372.96 271.597634 
z
" clip-path="url(#p3e7d379537)" style="fill: #996633; stroke: #000000; stroke-width: 0.75; stroke-linejoin: miter"/>
   </g>
   <g id="patch_71">
    <path d="M 372.96 271.597634 
L 372.96 271.597634 
L 372.96 266.365879 
L 372.96 266.365879 
z
" clip-path="url(#p3e7d379537)" style="fill: #996633; stroke: #000000; stroke-width: 0.75; stroke-linejoin: miter"/>
   </g>
   <g id="patch_72">
    <path d="M 372.96 266.365879 
L 394.902857 266.365879 
L 394.902857 261.134124 
L 372.96 261.134124 
z
" clip-path="url(#p3e7d379537)" style="fill: #996633; stroke: #000000; stroke-width: 0.75; stroke-linejoin: miter"/>
   </g>
   <g id="patch_73">
    <path d="M 372.96 261.134124 
L 372.96 261.134124 
L 372.96 255.90237 
L 372.96 255.90237 
z
" clip-path="url(#p3e7d379537)" style="fill: #996633; stroke: #000000; stroke-width: 0.75; stroke-linejoin: miter"/>
   </g>
   <g id="patch_74">
    <path d="M 372.96 255.90237 
L 383.931429 255.90237 
L 383.931429 250.670615 
L 372.96 250.670615 
z
" clip-path="url(#p3e7d379537)" style="fill: #996633; stroke: #000000; stroke-width: 0.75; stroke-linejoin: miter"/>
   </g>
   <g id="patch_75">
    <path d="M 372.96 250.670615 
L 405.874286 250.670615 
L 405.874286 245.43886 
L 372.96 245.43886 
z
" clip-path="url(#p3e7d379537)" style="fill: #996633; stroke: #000000; stroke-width: 0.75; stroke-linejoin: miter"/>
   </g>
   <g id="patch_76">
    <path d="M 372.96 245.43886 
L 394.902857 245.43886 
L 394.902857 240.207106 
L 372.96 240.207106 
z
" clip-path="url(#p3e7d379537)" style="fill: #996633; stroke: #000000; stroke-width: 0.75; stroke-linejoin: miter"/>
   </g>
   <g id="patch_77">
    <path d="M 372.96 240.207106 
L 449.76 240.207106 
L 449.76 234.975351 
L 372.96 234.975351 
z
" clip-path="url(#p3e7d379537)" style="fill: #996633; stroke: #000000; stroke-width: 0.75; stroke-linejoin: miter"/>
   </g>
   <g id="patch_78">
    <path d="M 372.96 234.975351 
L 394.902857 234.975351 
L 394.902857 229.743596 
L 372.96 229.743596 
z
" clip-path="url(#p3e7d379537)" style="fill: #996633; stroke: #000000; stroke-width: 0.75; stroke-linejoin: miter"/>
   </g>
   <g id="patch_79">
    <path d="M 372.96 229.743596 
L 416.845714 229.743596 
L 416.845714 224.511842 
L 372.96 224.511842 
z
" clip-path="url(#p3e7d379537)" style="fill: #996633; stroke: #000000; stroke-width: 0.75; stroke-linejoin: miter"/>
   </g>
   <g id="patch_80">
    <path d="M 372.96 224.511842 
L 394.902857 224.511842 
L 394.902857 219.280087 
L 372.96 219.280087 
z
" clip-path="url(#p3e7d379537)" style="fill: #996633; stroke: #000000; stroke-width: 0.75; stroke-linejoin: miter"/>
   </g>
   <g id="patch_81">
    <path d="M 372.96 219.280087 
L 383.931429 219.280087 
L 383.931429 214.048332 
L 372.96 214.048332 
z
" clip-path="url(#p3e7d379537)" style="fill: #996633; stroke: #000000; stroke-width: 0.75; stroke-linejoin: miter"/>
   </g>
   <g id="patch_82">
    <path d="M 372.96 214.048332 
L 394.902857 214.048332 
L 394.902857 208.816578 
L 372.96 208.816578 
z
" clip-path="url(#p3e7d379537)" style="fill: #996633; stroke: #000000; stroke-width: 0.75; stroke-linejoin: miter"/>
   </g>
   <g id="patch_83">
    <path d="M 372.96 208.816578 
L 383.931429 208.816578 
L 383.931429 203.584823 
L 372.96 203.584823 
z
" clip-path="url(#p3e7d379537)" style="fill: #996633; stroke: #000000; stroke-width: 0.75; stroke-linejoin: miter"/>
   </g>
   <g id="patch_84">
    <path d="M 372.96 203.584823 
L 372.96 203.584823 
L 372.96 198.353068 
L 372.96 198.353068 
z
" clip-path="url(#p3e7d379537)" style="fill: #996633; stroke: #000000; stroke-width: 0.75; stroke-linejoin: miter"/>
   </g>
   <g id="patch_85">
    <path d="M 372.96 198.353068 
L 372.96 198.353068 
L 372.96 193.121313 
L 372.96 193.121313 
z
" clip-path="url(#p3e7d379537)" style="fill: #996633; stroke: #000000; stroke-width: 0.75; stroke-linejoin: miter"/>
   </g>
   <g id="patch_86">
    <path d="M 372.96 193.121313 
L 372.96 193.121313 
L 372.96 187.889559 
L 372.96 187.889559 
z
" clip-path="url(#p3e7d379537)" style="fill: #996633; stroke: #000000; stroke-width: 0.75; stroke-linejoin: miter"/>
   </g>
   <g id="patch_87">
    <path d="M 372.96 187.889559 
L 383.931429 187.889559 
L 383.931429 182.657804 
L 372.96 182.657804 
z
" clip-path="url(#p3e7d379537)" style="fill: #996633; stroke: #000000; stroke-width: 0.75; stroke-linejoin: miter"/>
   </g>
   <g id="patch_88">
    <path d="M 372.96 182.657804 
L 383.931429 182.657804 
L 383.931429 177.426049 
L 372.96 177.426049 
z
" clip-path="url(#p3e7d379537)" style="fill: #996633; stroke: #000000; stroke-width: 0.75; stroke-linejoin: miter"/>
   </g>
   <g id="patch_89">
    <path d="M 372.96 177.426049 
L 372.96 177.426049 
L 372.96 172.194295 
L 372.96 172.194295 
z
" clip-path="url(#p3e7d379537)" style="fill: #996633; stroke: #000000; stroke-width: 0.75; stroke-linejoin: miter"/>
   </g>
   <g id="patch_90">
    <path d="M 372.96 172.194295 
L 383.931429 172.194295 
L 383.931429 166.96254 
L 372.96 166.96254 
z
" clip-path="url(#p3e7d379537)" style="fill: #996633; stroke: #000000; stroke-width: 0.75; stroke-linejoin: miter"/>
   </g>
   <g id="matplotlib.axis_5"/>
   <g id="matplotlib.axis_6">
    <g id="ytick_6">
     <g id="line2d_16">
      <g>
       <use xlink:href="#m2d82e4d6eb" x="372.96" y="348.005586" style="stroke: #000000; stroke-width: 0.8"/>
      </g>
     </g>
    </g>
    <g id="ytick_7">
     <g id="line2d_17">
      <g>
       <use xlink:href="#m2d82e4d6eb" x="372.96" y="299.3381" style="stroke: #000000; stroke-width: 0.8"/>
      </g>
     </g>
    </g>
    <g id="ytick_8">
     <g id="line2d_18">
      <g>
       <use xlink:href="#m2d82e4d6eb" x="372.96" y="250.670615" style="stroke: #000000; stroke-width: 0.8"/>
      </g>
     </g>
    </g>
    <g id="ytick_9">
     <g id="line2d_19">
      <g>
       <use xlink:href="#m2d82e4d6eb" x="372.96" y="202.00313" style="stroke: #000000; stroke-width: 0.8"/>
      </g>
     </g>
    </g>
    <g id="ytick_10">
     <g id="line2d_20">
      <g>
       <use xlink:href="#m2d82e4d6eb" x="372.96" y="153.335644" style="stroke: #000000; stroke-width: 0.8"/>
      </g>
     </g>
    </g>
   </g>
   <g id="patch_91">
    <path d="M 372.96 388.8 
L 372.96 112.32 
" style="fill: none; stroke: #000000; stroke-width: 0.8; stroke-linejoin: miter; stroke-linecap: square"/>
   </g>
  </g>
 </g>
 <defs>
  <clipPath id="p9fccf67564">
   <rect x="50.4" y="112.32" width="322.56" height="276.48"/>
  </clipPath>
  <clipPath id="pba8df502c9">
   <rect x="50.4" y="43.2" width="322.56" height="69.12"/>
  </clipPath>
  <clipPath id="p3e7d379537">
   <rect x="372.96" y="112.32" width="80.64" height="276.48"/>
  </clipPath>
 </defs>
</svg>
