<?xml version="1.0" encoding="utf-8" standalone="no"?>
<!DOCTYPE svg PUBLIC "-//W3C//DTD SVG 1.1//EN"
  "http://www.w3.org/Graphics/SVG/1.1/DTD/svg11.dtd">
<svg xmlns:xlink="http://www.w3.org/1999/xlink" width="1382.4pt" height="696.24pt" viewBox="0 0 1382.4 696.24" xmlns="http://www.w3.org/2000/svg" version="1.1">
 <metadata>
  <rdf:RDF xmlns:dc="http://purl.org/dc/elements/1.1/" xmlns:cc="http://creativecommons.org/ns#" xmlns:rdf="http://www.w3.org/1999/02/22-rdf-syntax-ns#">
   <cc:Work>
    <dc:type rdf:resource="http://purl.org/dc/dcmitype/StillImage"/>
    <dc:date>2024-04-13T20:48:19.558392</dc:date>
    <dc:format>image/svg+xml</dc:format>
    <dc:creator>
     <cc:Agent>
      <dc:title>Matplotlib v3.8.2, https://matplotlib.org/</dc:title>
     </cc:Agent>
    </dc:creator>
   </cc:Work>
  </rdf:RDF>
 </metadata>
 <defs>
  <style type="text/css">*{stroke-linejoin: round; stroke-linecap: butt}</style>
 </defs>
 <g id="figure_1">
  <g id="patch_1">
   <path d="M 0 696.24 
L 1382.4 696.24 
L 1382.4 0 
L 0 0 
z
" style="fill: #ffffff"/>
  </g>
  <g id="axes_1">
   <g id="patch_2">
    <path d="M 976.5324 619.6536 
C 976.5324 477.524297 920.011533 341.070854 819.51094 240.57026 
C 719.010346 140.069667 582.556903 83.5488 440.4276 83.5488 
L 440.4276 619.6536 
C 440.4276 619.6536 440.4276 619.6536 440.4276 619.6536 
C 440.4276 619.6536 440.4276 619.6536 440.4276 619.6536 
z
" style="fill: #ffffff"/>
   </g>
   <g id="matplotlib.axis_1">
    <g id="xtick_1">
     <g id="line2d_1">
      <path d="M 440.4276 619.6536 
L 440.4276 83.5488 
" clip-path="url(#pac6474da6f)" style="fill: none; stroke: #b0b0b0; stroke-width: 0.8; stroke-linecap: square"/>
     </g>
     <g id="text_1">
      <!-- 0.00 -->
      <g transform="translate(424.841663 73.411925) scale(0.14 -0.14)">
       <defs>
        <path id="DejaVuSans-30" d="M 2034 4250 
Q 1547 4250 1301 3770 
Q 1056 3291 1056 2328 
Q 1056 1369 1301 889 
Q 1547 409 2034 409 
Q 2525 409 2770 889 
Q 3016 1369 3016 2328 
Q 3016 3291 2770 3770 
Q 2525 4250 2034 4250 
z
M 2034 4750 
Q 2819 4750 3233 4129 
Q 3647 3509 3647 2328 
Q 3647 1150 3233 529 
Q 2819 -91 2034 -91 
Q 1250 -91 836 529 
Q 422 1150 422 2328 
Q 422 3509 836 4129 
Q 1250 4750 2034 4750 
z
" transform="scale(0.015625)"/>
        <path id="DejaVuSans-2e" d="M 684 794 
L 1344 794 
L 1344 0 
L 684 0 
L 684 794 
z
" transform="scale(0.015625)"/>
       </defs>
       <use xlink:href="#DejaVuSans-30"/>
       <use xlink:href="#DejaVuSans-2e" x="63.623047"/>
       <use xlink:href="#DejaVuSans-30" x="95.410156"/>
       <use xlink:href="#DejaVuSans-30" x="159.033203"/>
      </g>
     </g>
    </g>
    <g id="xtick_2">
     <g id="line2d_2">
      <path d="M 440.4276 619.6536 
L 494.03808 86.236059 
" clip-path="url(#pac6474da6f)" style="fill: none; stroke: #b0b0b0; stroke-width: 0.8; stroke-linecap: square"/>
     </g>
     <g id="text_2">
      <!-- 0.10 -->
      <g transform="translate(479.852142 76.16936) scale(0.14 -0.14)">
       <defs>
        <path id="DejaVuSans-31" d="M 794 531 
L 1825 531 
L 1825 4091 
L 703 3866 
L 703 4441 
L 1819 4666 
L 2450 4666 
L 2450 531 
L 3481 531 
L 3481 0 
L 794 0 
L 794 531 
z
" transform="scale(0.015625)"/>
       </defs>
       <use xlink:href="#DejaVuSans-30"/>
       <use xlink:href="#DejaVuSans-2e" x="63.623047"/>
       <use xlink:href="#DejaVuSans-31" x="95.410156"/>
       <use xlink:href="#DejaVuSans-30" x="159.033203"/>
      </g>
     </g>
    </g>
    <g id="xtick_3">
     <g id="line2d_3">
      <path d="M 440.4276 619.6536 
L 547.64856 94.380317 
" clip-path="url(#pac6474da6f)" style="fill: none; stroke: #b0b0b0; stroke-width: 0.8; stroke-linecap: square"/>
     </g>
     <g id="text_3">
      <!-- 0.20 -->
      <g transform="translate(534.862622 84.526299) scale(0.14 -0.14)">
       <defs>
        <path id="DejaVuSans-32" d="M 1228 531 
L 3431 531 
L 3431 0 
L 469 0 
L 469 531 
Q 828 903 1448 1529 
Q 2069 2156 2228 2338 
Q 2531 2678 2651 2914 
Q 2772 3150 2772 3378 
Q 2772 3750 2511 3984 
Q 2250 4219 1831 4219 
Q 1534 4219 1204 4116 
Q 875 4013 500 3803 
L 500 4441 
Q 881 4594 1212 4672 
Q 1544 4750 1819 4750 
Q 2544 4750 2975 4387 
Q 3406 4025 3406 3419 
Q 3406 3131 3298 2873 
Q 3191 2616 2906 2266 
Q 2828 2175 2409 1742 
Q 1991 1309 1228 531 
z
" transform="scale(0.015625)"/>
       </defs>
       <use xlink:href="#DejaVuSans-30"/>
       <use xlink:href="#DejaVuSans-2e" x="63.623047"/>
       <use xlink:href="#DejaVuSans-32" x="95.410156"/>
       <use xlink:href="#DejaVuSans-30" x="159.033203"/>
      </g>
     </g>
    </g>
    <g id="xtick_4">
     <g id="line2d_4">
      <path d="M 440.4276 619.6536 
L 601.25904 108.242215 
" clip-path="url(#pac6474da6f)" style="fill: none; stroke: #b0b0b0; stroke-width: 0.8; stroke-linecap: square"/>
     </g>
     <g id="text_4">
      <!-- 0.30 -->
      <g transform="translate(589.873102 98.750191) scale(0.14 -0.14)">
       <defs>
        <path id="DejaVuSans-33" d="M 2597 2516 
Q 3050 2419 3304 2112 
Q 3559 1806 3559 1356 
Q 3559 666 3084 287 
Q 2609 -91 1734 -91 
Q 1441 -91 1130 -33 
Q 819 25 488 141 
L 488 750 
Q 750 597 1062 519 
Q 1375 441 1716 441 
Q 2309 441 2620 675 
Q 2931 909 2931 1356 
Q 2931 1769 2642 2001 
Q 2353 2234 1838 2234 
L 1294 2234 
L 1294 2753 
L 1863 2753 
Q 2328 2753 2575 2939 
Q 2822 3125 2822 3475 
Q 2822 3834 2567 4026 
Q 2313 4219 1838 4219 
Q 1578 4219 1281 4162 
Q 984 4106 628 3988 
L 628 4550 
Q 988 4650 1302 4700 
Q 1616 4750 1894 4750 
Q 2613 4750 3031 4423 
Q 3450 4097 3450 3541 
Q 3450 3153 3228 2886 
Q 3006 2619 2597 2516 
z
" transform="scale(0.015625)"/>
       </defs>
       <use xlink:href="#DejaVuSans-30"/>
       <use xlink:href="#DejaVuSans-2e" x="63.623047"/>
       <use xlink:href="#DejaVuSans-33" x="95.410156"/>
       <use xlink:href="#DejaVuSans-30" x="159.033203"/>
      </g>
     </g>
    </g>
    <g id="xtick_5">
     <g id="line2d_5">
      <path d="M 440.4276 619.6536 
L 654.86952 128.305435 
" clip-path="url(#pac6474da6f)" style="fill: none; stroke: #b0b0b0; stroke-width: 0.8; stroke-linecap: square"/>
     </g>
     <g id="text_5">
      <!-- 0.40 -->
      <g transform="translate(644.883582 119.337348) scale(0.14 -0.14)">
       <defs>
        <path id="DejaVuSans-34" d="M 2419 4116 
L 825 1625 
L 2419 1625 
L 2419 4116 
z
M 2253 4666 
L 3047 4666 
L 3047 1625 
L 3713 1625 
L 3713 1100 
L 3047 1100 
L 3047 0 
L 2419 0 
L 2419 1100 
L 313 1100 
L 313 1709 
L 2253 4666 
z
" transform="scale(0.015625)"/>
       </defs>
       <use xlink:href="#DejaVuSans-30"/>
       <use xlink:href="#DejaVuSans-2e" x="63.623047"/>
       <use xlink:href="#DejaVuSans-34" x="95.410156"/>
       <use xlink:href="#DejaVuSans-30" x="159.033203"/>
      </g>
     </g>
    </g>
    <g id="xtick_6">
     <g id="line2d_6">
      <path d="M 440.4276 619.6536 
L 708.48 155.373224 
" clip-path="url(#pac6474da6f)" style="fill: none; stroke: #b0b0b0; stroke-width: 0.8; stroke-linecap: square"/>
     </g>
     <g id="text_6">
      <!-- 0.50 -->
      <g transform="translate(699.894062 147.111993) scale(0.14 -0.14)">
       <defs>
        <path id="DejaVuSans-35" d="M 691 4666 
L 3169 4666 
L 3169 4134 
L 1269 4134 
L 1269 2991 
Q 1406 3038 1543 3061 
Q 1681 3084 1819 3084 
Q 2600 3084 3056 2656 
Q 3513 2228 3513 1497 
Q 3513 744 3044 326 
Q 2575 -91 1722 -91 
Q 1428 -91 1123 -41 
Q 819 9 494 109 
L 494 744 
Q 775 591 1075 516 
Q 1375 441 1709 441 
Q 2250 441 2565 725 
Q 2881 1009 2881 1497 
Q 2881 1984 2565 2268 
Q 2250 2553 1709 2553 
Q 1456 2553 1204 2497 
Q 953 2441 691 2322 
L 691 4666 
z
" transform="scale(0.015625)"/>
       </defs>
       <use xlink:href="#DejaVuSans-30"/>
       <use xlink:href="#DejaVuSans-2e" x="63.623047"/>
       <use xlink:href="#DejaVuSans-35" x="95.410156"/>
       <use xlink:href="#DejaVuSans-30" x="159.033203"/>
      </g>
     </g>
    </g>
    <g id="xtick_7">
     <g id="line2d_7">
      <path d="M 440.4276 619.6536 
L 762.09048 190.76976 
" clip-path="url(#pac6474da6f)" style="fill: none; stroke: #b0b0b0; stroke-width: 0.8; stroke-linecap: square"/>
     </g>
     <g id="text_7">
      <!-- 0.60 -->
      <g transform="translate(754.904542 183.432885) scale(0.14 -0.14)">
       <defs>
        <path id="DejaVuSans-36" d="M 2113 2584 
Q 1688 2584 1439 2293 
Q 1191 2003 1191 1497 
Q 1191 994 1439 701 
Q 1688 409 2113 409 
Q 2538 409 2786 701 
Q 3034 994 3034 1497 
Q 3034 2003 2786 2293 
Q 2538 2584 2113 2584 
z
M 3366 4563 
L 3366 3988 
Q 3128 4100 2886 4159 
Q 2644 4219 2406 4219 
Q 1781 4219 1451 3797 
Q 1122 3375 1075 2522 
Q 1259 2794 1537 2939 
Q 1816 3084 2150 3084 
Q 2853 3084 3261 2657 
Q 3669 2231 3669 1497 
Q 3669 778 3244 343 
Q 2819 -91 2113 -91 
Q 1303 -91 875 529 
Q 447 1150 447 2328 
Q 447 3434 972 4092 
Q 1497 4750 2381 4750 
Q 2619 4750 2861 4703 
Q 3103 4656 3366 4563 
z
" transform="scale(0.015625)"/>
       </defs>
       <use xlink:href="#DejaVuSans-30"/>
       <use xlink:href="#DejaVuSans-2e" x="63.623047"/>
       <use xlink:href="#DejaVuSans-36" x="95.410156"/>
       <use xlink:href="#DejaVuSans-30" x="159.033203"/>
      </g>
     </g>
    </g>
    <g id="xtick_8">
     <g id="line2d_8">
      <path d="M 440.4276 619.6536 
L 815.70096 236.798194 
" clip-path="url(#pac6474da6f)" style="fill: none; stroke: #b0b0b0; stroke-width: 0.8; stroke-linecap: square"/>
     </g>
     <g id="text_8">
      <!-- 0.70 -->
      <g transform="translate(809.915023 230.663319) scale(0.14 -0.14)">
       <defs>
        <path id="DejaVuSans-37" d="M 525 4666 
L 3525 4666 
L 3525 4397 
L 1831 0 
L 1172 0 
L 2766 4134 
L 525 4134 
L 525 4666 
z
" transform="scale(0.015625)"/>
       </defs>
       <use xlink:href="#DejaVuSans-30"/>
       <use xlink:href="#DejaVuSans-2e" x="63.623047"/>
       <use xlink:href="#DejaVuSans-37" x="95.410156"/>
       <use xlink:href="#DejaVuSans-30" x="159.033203"/>
      </g>
     </g>
    </g>
    <g id="xtick_9">
     <g id="line2d_9">
      <path d="M 440.4276 619.6536 
L 869.31144 297.99072 
" clip-path="url(#pac6474da6f)" style="fill: none; stroke: #b0b0b0; stroke-width: 0.8; stroke-linecap: square"/>
     </g>
     <g id="text_9">
      <!-- 0.80 -->
      <g transform="translate(864.925502 293.453845) scale(0.14 -0.14)">
       <defs>
        <path id="DejaVuSans-38" d="M 2034 2216 
Q 1584 2216 1326 1975 
Q 1069 1734 1069 1313 
Q 1069 891 1326 650 
Q 1584 409 2034 409 
Q 2484 409 2743 651 
Q 3003 894 3003 1313 
Q 3003 1734 2745 1975 
Q 2488 2216 2034 2216 
z
M 1403 2484 
Q 997 2584 770 2862 
Q 544 3141 544 3541 
Q 544 4100 942 4425 
Q 1341 4750 2034 4750 
Q 2731 4750 3128 4425 
Q 3525 4100 3525 3541 
Q 3525 3141 3298 2862 
Q 3072 2584 2669 2484 
Q 3125 2378 3379 2068 
Q 3634 1759 3634 1313 
Q 3634 634 3220 271 
Q 2806 -91 2034 -91 
Q 1263 -91 848 271 
Q 434 634 434 1313 
Q 434 1759 690 2068 
Q 947 2378 1403 2484 
z
M 1172 3481 
Q 1172 3119 1398 2916 
Q 1625 2713 2034 2713 
Q 2441 2713 2670 2916 
Q 2900 3119 2900 3481 
Q 2900 3844 2670 4047 
Q 2441 4250 2034 4250 
Q 1625 4250 1398 4047 
Q 1172 3844 1172 3481 
z
" transform="scale(0.015625)"/>
       </defs>
       <use xlink:href="#DejaVuSans-30"/>
       <use xlink:href="#DejaVuSans-2e" x="63.623047"/>
       <use xlink:href="#DejaVuSans-38" x="95.410156"/>
       <use xlink:href="#DejaVuSans-30" x="159.033203"/>
      </g>
     </g>
    </g>
    <g id="xtick_10">
     <g id="line2d_10">
      <path d="M 440.4276 619.6536 
L 922.92192 385.970935 
" clip-path="url(#pac6474da6f)" style="fill: none; stroke: #b0b0b0; stroke-width: 0.8; stroke-linecap: square"/>
     </g>
     <g id="text_10">
      <!-- 0.90 -->
      <g transform="translate(919.935983 383.731602) scale(0.14 -0.14)">
       <defs>
        <path id="DejaVuSans-39" d="M 703 97 
L 703 672 
Q 941 559 1184 500 
Q 1428 441 1663 441 
Q 2288 441 2617 861 
Q 2947 1281 2994 2138 
Q 2813 1869 2534 1725 
Q 2256 1581 1919 1581 
Q 1219 1581 811 2004 
Q 403 2428 403 3163 
Q 403 3881 828 4315 
Q 1253 4750 1959 4750 
Q 2769 4750 3195 4129 
Q 3622 3509 3622 2328 
Q 3622 1225 3098 567 
Q 2575 -91 1691 -91 
Q 1453 -91 1209 -44 
Q 966 3 703 97 
z
M 1959 2075 
Q 2384 2075 2632 2365 
Q 2881 2656 2881 3163 
Q 2881 3666 2632 3958 
Q 2384 4250 1959 4250 
Q 1534 4250 1286 3958 
Q 1038 3666 1038 3163 
Q 1038 2656 1286 2365 
Q 1534 2075 1959 2075 
z
" transform="scale(0.015625)"/>
       </defs>
       <use xlink:href="#DejaVuSans-30"/>
       <use xlink:href="#DejaVuSans-2e" x="63.623047"/>
       <use xlink:href="#DejaVuSans-39" x="95.410156"/>
       <use xlink:href="#DejaVuSans-30" x="159.033203"/>
      </g>
     </g>
    </g>
    <g id="xtick_11">
     <g id="line2d_11">
      <path d="M 440.4276 619.6536 
L 976.5324 619.6536 
" clip-path="url(#pac6474da6f)" style="fill: none; stroke: #b0b0b0; stroke-width: 0.8; stroke-linecap: square"/>
     </g>
     <g id="text_11">
      <!-- 1.00 -->
      <g transform="translate(974.946462 623.516725) scale(0.14 -0.14)">
       <use xlink:href="#DejaVuSans-31"/>
       <use xlink:href="#DejaVuSans-2e" x="63.623047"/>
       <use xlink:href="#DejaVuSans-30" x="95.410156"/>
       <use xlink:href="#DejaVuSans-30" x="159.033203"/>
      </g>
     </g>
    </g>
    <g id="xtick_12">
     <g id="line2d_12">
      <path d="M 440.4276 619.6536 
L 922.92192 385.970935 
" clip-path="url(#pac6474da6f)" style="fill: none; stroke: #b0b0b0; stroke-width: 0.8; stroke-linecap: square"/>
     </g>
     <g id="text_12">
      <!-- 0.90 -->
      <g transform="translate(919.935983 383.731602) scale(0.14 -0.14)">
       <use xlink:href="#DejaVuSans-30"/>
       <use xlink:href="#DejaVuSans-2e" x="63.623047"/>
       <use xlink:href="#DejaVuSans-39" x="95.410156"/>
       <use xlink:href="#DejaVuSans-30" x="159.033203"/>
      </g>
     </g>
    </g>
    <g id="xtick_13">
     <g id="line2d_13">
      <path d="M 440.4276 619.6536 
L 933.644016 409.544287 
" clip-path="url(#pac6474da6f)" style="fill: none; stroke: #b0b0b0; stroke-width: 0.8; stroke-linecap: square"/>
     </g>
     <g id="text_13">
      <!-- 0.92 -->
      <g transform="translate(930.938078 407.920555) scale(0.14 -0.14)">
       <use xlink:href="#DejaVuSans-30"/>
       <use xlink:href="#DejaVuSans-2e" x="63.623047"/>
       <use xlink:href="#DejaVuSans-39" x="95.410156"/>
       <use xlink:href="#DejaVuSans-32" x="159.033203"/>
      </g>
     </g>
    </g>
    <g id="xtick_14">
     <g id="line2d_14">
      <path d="M 440.4276 619.6536 
L 944.366112 436.748344 
" clip-path="url(#pac6474da6f)" style="fill: none; stroke: #b0b0b0; stroke-width: 0.8; stroke-linecap: square"/>
     </g>
     <g id="text_14">
      <!-- 0.94 -->
      <g transform="translate(941.940175 435.835027) scale(0.14 -0.14)">
       <use xlink:href="#DejaVuSans-30"/>
       <use xlink:href="#DejaVuSans-2e" x="63.623047"/>
       <use xlink:href="#DejaVuSans-39" x="95.410156"/>
       <use xlink:href="#DejaVuSans-34" x="159.033203"/>
      </g>
     </g>
    </g>
    <g id="xtick_15">
     <g id="line2d_15">
      <path d="M 440.4276 619.6536 
L 955.088208 469.544256 
" clip-path="url(#pac6474da6f)" style="fill: none; stroke: #b0b0b0; stroke-width: 0.8; stroke-linecap: square"/>
     </g>
     <g id="text_15">
      <!-- 0.96 -->
      <g transform="translate(952.94227 469.487381) scale(0.14 -0.14)">
       <use xlink:href="#DejaVuSans-30"/>
       <use xlink:href="#DejaVuSans-2e" x="63.623047"/>
       <use xlink:href="#DejaVuSans-39" x="95.410156"/>
       <use xlink:href="#DejaVuSans-36" x="159.033203"/>
      </g>
     </g>
    </g>
    <g id="xtick_16">
     <g id="line2d_16">
      <path d="M 440.4276 619.6536 
L 965.810304 512.970092 
" clip-path="url(#pac6474da6f)" style="fill: none; stroke: #b0b0b0; stroke-width: 0.8; stroke-linecap: square"/>
     </g>
     <g id="text_16">
      <!-- 0.98 -->
      <g transform="translate(963.944367 514.047252) scale(0.14 -0.14)">
       <use xlink:href="#DejaVuSans-30"/>
       <use xlink:href="#DejaVuSans-2e" x="63.623047"/>
       <use xlink:href="#DejaVuSans-39" x="95.410156"/>
       <use xlink:href="#DejaVuSans-38" x="159.033203"/>
      </g>
     </g>
    </g>
    <g id="xtick_17">
     <g id="line2d_17">
      <path d="M 440.4276 619.6536 
L 976.5324 619.6536 
" clip-path="url(#pac6474da6f)" style="fill: none; stroke: #b0b0b0; stroke-width: 0.8; stroke-linecap: square"/>
     </g>
     <g id="text_17">
      <!-- 1.00 -->
      <g transform="translate(974.946462 623.516725) scale(0.14 -0.14)">
       <use xlink:href="#DejaVuSans-31"/>
       <use xlink:href="#DejaVuSans-2e" x="63.623047"/>
       <use xlink:href="#DejaVuSans-30" x="95.410156"/>
       <use xlink:href="#DejaVuSans-30" x="159.033203"/>
      </g>
     </g>
    </g>
    <g id="text_18">
     <!-- Standard Deviation of Predicted Values -->
     <g transform="translate(571.775469 657.0661) scale(0.14 -0.14)">
      <defs>
       <path id="DejaVuSans-53" d="M 3425 4513 
L 3425 3897 
Q 3066 4069 2747 4153 
Q 2428 4238 2131 4238 
Q 1616 4238 1336 4038 
Q 1056 3838 1056 3469 
Q 1056 3159 1242 3001 
Q 1428 2844 1947 2747 
L 2328 2669 
Q 3034 2534 3370 2195 
Q 3706 1856 3706 1288 
Q 3706 609 3251 259 
Q 2797 -91 1919 -91 
Q 1588 -91 1214 -16 
Q 841 59 441 206 
L 441 856 
Q 825 641 1194 531 
Q 1563 422 1919 422 
Q 2459 422 2753 634 
Q 3047 847 3047 1241 
Q 3047 1584 2836 1778 
Q 2625 1972 2144 2069 
L 1759 2144 
Q 1053 2284 737 2584 
Q 422 2884 422 3419 
Q 422 4038 858 4394 
Q 1294 4750 2059 4750 
Q 2388 4750 2728 4690 
Q 3069 4631 3425 4513 
z
" transform="scale(0.015625)"/>
       <path id="DejaVuSans-74" d="M 1172 4494 
L 1172 3500 
L 2356 3500 
L 2356 3053 
L 1172 3053 
L 1172 1153 
Q 1172 725 1289 603 
Q 1406 481 1766 481 
L 2356 481 
L 2356 0 
L 1766 0 
Q 1100 0 847 248 
Q 594 497 594 1153 
L 594 3053 
L 172 3053 
L 172 3500 
L 594 3500 
L 594 4494 
L 1172 4494 
z
" transform="scale(0.015625)"/>
       <path id="DejaVuSans-61" d="M 2194 1759 
Q 1497 1759 1228 1600 
Q 959 1441 959 1056 
Q 959 750 1161 570 
Q 1363 391 1709 391 
Q 2188 391 2477 730 
Q 2766 1069 2766 1631 
L 2766 1759 
L 2194 1759 
z
M 3341 1997 
L 3341 0 
L 2766 0 
L 2766 531 
Q 2569 213 2275 61 
Q 1981 -91 1556 -91 
Q 1019 -91 701 211 
Q 384 513 384 1019 
Q 384 1609 779 1909 
Q 1175 2209 1959 2209 
L 2766 2209 
L 2766 2266 
Q 2766 2663 2505 2880 
Q 2244 3097 1772 3097 
Q 1472 3097 1187 3025 
Q 903 2953 641 2809 
L 641 3341 
Q 956 3463 1253 3523 
Q 1550 3584 1831 3584 
Q 2591 3584 2966 3190 
Q 3341 2797 3341 1997 
z
" transform="scale(0.015625)"/>
       <path id="DejaVuSans-6e" d="M 3513 2113 
L 3513 0 
L 2938 0 
L 2938 2094 
Q 2938 2591 2744 2837 
Q 2550 3084 2163 3084 
Q 1697 3084 1428 2787 
Q 1159 2491 1159 1978 
L 1159 0 
L 581 0 
L 581 3500 
L 1159 3500 
L 1159 2956 
Q 1366 3272 1645 3428 
Q 1925 3584 2291 3584 
Q 2894 3584 3203 3211 
Q 3513 2838 3513 2113 
z
" transform="scale(0.015625)"/>
       <path id="DejaVuSans-64" d="M 2906 2969 
L 2906 4863 
L 3481 4863 
L 3481 0 
L 2906 0 
L 2906 525 
Q 2725 213 2448 61 
Q 2172 -91 1784 -91 
Q 1150 -91 751 415 
Q 353 922 353 1747 
Q 353 2572 751 3078 
Q 1150 3584 1784 3584 
Q 2172 3584 2448 3432 
Q 2725 3281 2906 2969 
z
M 947 1747 
Q 947 1113 1208 752 
Q 1469 391 1925 391 
Q 2381 391 2643 752 
Q 2906 1113 2906 1747 
Q 2906 2381 2643 2742 
Q 2381 3103 1925 3103 
Q 1469 3103 1208 2742 
Q 947 2381 947 1747 
z
" transform="scale(0.015625)"/>
       <path id="DejaVuSans-72" d="M 2631 2963 
Q 2534 3019 2420 3045 
Q 2306 3072 2169 3072 
Q 1681 3072 1420 2755 
Q 1159 2438 1159 1844 
L 1159 0 
L 581 0 
L 581 3500 
L 1159 3500 
L 1159 2956 
Q 1341 3275 1631 3429 
Q 1922 3584 2338 3584 
Q 2397 3584 2469 3576 
Q 2541 3569 2628 3553 
L 2631 2963 
z
" transform="scale(0.015625)"/>
       <path id="DejaVuSans-20" transform="scale(0.015625)"/>
       <path id="DejaVuSans-44" d="M 1259 4147 
L 1259 519 
L 2022 519 
Q 2988 519 3436 956 
Q 3884 1394 3884 2338 
Q 3884 3275 3436 3711 
Q 2988 4147 2022 4147 
L 1259 4147 
z
M 628 4666 
L 1925 4666 
Q 3281 4666 3915 4102 
Q 4550 3538 4550 2338 
Q 4550 1131 3912 565 
Q 3275 0 1925 0 
L 628 0 
L 628 4666 
z
" transform="scale(0.015625)"/>
       <path id="DejaVuSans-65" d="M 3597 1894 
L 3597 1613 
L 953 1613 
Q 991 1019 1311 708 
Q 1631 397 2203 397 
Q 2534 397 2845 478 
Q 3156 559 3463 722 
L 3463 178 
Q 3153 47 2828 -22 
Q 2503 -91 2169 -91 
Q 1331 -91 842 396 
Q 353 884 353 1716 
Q 353 2575 817 3079 
Q 1281 3584 2069 3584 
Q 2775 3584 3186 3129 
Q 3597 2675 3597 1894 
z
M 3022 2063 
Q 3016 2534 2758 2815 
Q 2500 3097 2075 3097 
Q 1594 3097 1305 2825 
Q 1016 2553 972 2059 
L 3022 2063 
z
" transform="scale(0.015625)"/>
       <path id="DejaVuSans-76" d="M 191 3500 
L 800 3500 
L 1894 563 
L 2988 3500 
L 3597 3500 
L 2284 0 
L 1503 0 
L 191 3500 
z
" transform="scale(0.015625)"/>
       <path id="DejaVuSans-69" d="M 603 3500 
L 1178 3500 
L 1178 0 
L 603 0 
L 603 3500 
z
M 603 4863 
L 1178 4863 
L 1178 4134 
L 603 4134 
L 603 4863 
z
" transform="scale(0.015625)"/>
       <path id="DejaVuSans-6f" d="M 1959 3097 
Q 1497 3097 1228 2736 
Q 959 2375 959 1747 
Q 959 1119 1226 758 
Q 1494 397 1959 397 
Q 2419 397 2687 759 
Q 2956 1122 2956 1747 
Q 2956 2369 2687 2733 
Q 2419 3097 1959 3097 
z
M 1959 3584 
Q 2709 3584 3137 3096 
Q 3566 2609 3566 1747 
Q 3566 888 3137 398 
Q 2709 -91 1959 -91 
Q 1206 -91 779 398 
Q 353 888 353 1747 
Q 353 2609 779 3096 
Q 1206 3584 1959 3584 
z
" transform="scale(0.015625)"/>
       <path id="DejaVuSans-66" d="M 2375 4863 
L 2375 4384 
L 1825 4384 
Q 1516 4384 1395 4259 
Q 1275 4134 1275 3809 
L 1275 3500 
L 2222 3500 
L 2222 3053 
L 1275 3053 
L 1275 0 
L 697 0 
L 697 3053 
L 147 3053 
L 147 3500 
L 697 3500 
L 697 3744 
Q 697 4328 969 4595 
Q 1241 4863 1831 4863 
L 2375 4863 
z
" transform="scale(0.015625)"/>
       <path id="DejaVuSans-50" d="M 1259 4147 
L 1259 2394 
L 2053 2394 
Q 2494 2394 2734 2622 
Q 2975 2850 2975 3272 
Q 2975 3691 2734 3919 
Q 2494 4147 2053 4147 
L 1259 4147 
z
M 628 4666 
L 2053 4666 
Q 2838 4666 3239 4311 
Q 3641 3956 3641 3272 
Q 3641 2581 3239 2228 
Q 2838 1875 2053 1875 
L 1259 1875 
L 1259 0 
L 628 0 
L 628 4666 
z
" transform="scale(0.015625)"/>
       <path id="DejaVuSans-63" d="M 3122 3366 
L 3122 2828 
Q 2878 2963 2633 3030 
Q 2388 3097 2138 3097 
Q 1578 3097 1268 2742 
Q 959 2388 959 1747 
Q 959 1106 1268 751 
Q 1578 397 2138 397 
Q 2388 397 2633 464 
Q 2878 531 3122 666 
L 3122 134 
Q 2881 22 2623 -34 
Q 2366 -91 2075 -91 
Q 1284 -91 818 406 
Q 353 903 353 1747 
Q 353 2603 823 3093 
Q 1294 3584 2113 3584 
Q 2378 3584 2631 3529 
Q 2884 3475 3122 3366 
z
" transform="scale(0.015625)"/>
       <path id="DejaVuSans-56" d="M 1831 0 
L 50 4666 
L 709 4666 
L 2188 738 
L 3669 4666 
L 4325 4666 
L 2547 0 
L 1831 0 
z
" transform="scale(0.015625)"/>
       <path id="DejaVuSans-6c" d="M 603 4863 
L 1178 4863 
L 1178 0 
L 603 0 
L 603 4863 
z
" transform="scale(0.015625)"/>
       <path id="DejaVuSans-75" d="M 544 1381 
L 544 3500 
L 1119 3500 
L 1119 1403 
Q 1119 906 1312 657 
Q 1506 409 1894 409 
Q 2359 409 2629 706 
Q 2900 1003 2900 1516 
L 2900 3500 
L 3475 3500 
L 3475 0 
L 2900 0 
L 2900 538 
Q 2691 219 2414 64 
Q 2138 -91 1772 -91 
Q 1169 -91 856 284 
Q 544 659 544 1381 
z
M 1991 3584 
L 1991 3584 
z
" transform="scale(0.015625)"/>
       <path id="DejaVuSans-73" d="M 2834 3397 
L 2834 2853 
Q 2591 2978 2328 3040 
Q 2066 3103 1784 3103 
Q 1356 3103 1142 2972 
Q 928 2841 928 2578 
Q 928 2378 1081 2264 
Q 1234 2150 1697 2047 
L 1894 2003 
Q 2506 1872 2764 1633 
Q 3022 1394 3022 966 
Q 3022 478 2636 193 
Q 2250 -91 1575 -91 
Q 1294 -91 989 -36 
Q 684 19 347 128 
L 347 722 
Q 666 556 975 473 
Q 1284 391 1588 391 
Q 1994 391 2212 530 
Q 2431 669 2431 922 
Q 2431 1156 2273 1281 
Q 2116 1406 1581 1522 
L 1381 1569 
Q 847 1681 609 1914 
Q 372 2147 372 2553 
Q 372 3047 722 3315 
Q 1072 3584 1716 3584 
Q 2034 3584 2315 3537 
Q 2597 3491 2834 3397 
z
" transform="scale(0.015625)"/>
      </defs>
      <use xlink:href="#DejaVuSans-53"/>
      <use xlink:href="#DejaVuSans-74" x="63.476562"/>
      <use xlink:href="#DejaVuSans-61" x="102.685547"/>
      <use xlink:href="#DejaVuSans-6e" x="163.964844"/>
      <use xlink:href="#DejaVuSans-64" x="227.34375"/>
      <use xlink:href="#DejaVuSans-61" x="290.820312"/>
      <use xlink:href="#DejaVuSans-72" x="352.099609"/>
      <use xlink:href="#DejaVuSans-64" x="391.462891"/>
      <use xlink:href="#DejaVuSans-20" x="454.939453"/>
      <use xlink:href="#DejaVuSans-44" x="486.726562"/>
      <use xlink:href="#DejaVuSans-65" x="563.728516"/>
      <use xlink:href="#DejaVuSans-76" x="625.251953"/>
      <use xlink:href="#DejaVuSans-69" x="684.431641"/>
      <use xlink:href="#DejaVuSans-61" x="712.214844"/>
      <use xlink:href="#DejaVuSans-74" x="773.494141"/>
      <use xlink:href="#DejaVuSans-69" x="812.703125"/>
      <use xlink:href="#DejaVuSans-6f" x="840.486328"/>
      <use xlink:href="#DejaVuSans-6e" x="901.667969"/>
      <use xlink:href="#DejaVuSans-20" x="965.046875"/>
      <use xlink:href="#DejaVuSans-6f" x="996.833984"/>
      <use xlink:href="#DejaVuSans-66" x="1058.015625"/>
      <use xlink:href="#DejaVuSans-20" x="1093.220703"/>
      <use xlink:href="#DejaVuSans-50" x="1125.007812"/>
      <use xlink:href="#DejaVuSans-72" x="1183.560547"/>
      <use xlink:href="#DejaVuSans-65" x="1222.423828"/>
      <use xlink:href="#DejaVuSans-64" x="1283.947266"/>
      <use xlink:href="#DejaVuSans-69" x="1347.423828"/>
      <use xlink:href="#DejaVuSans-63" x="1375.207031"/>
      <use xlink:href="#DejaVuSans-74" x="1430.1875"/>
      <use xlink:href="#DejaVuSans-65" x="1469.396484"/>
      <use xlink:href="#DejaVuSans-64" x="1530.919922"/>
      <use xlink:href="#DejaVuSans-20" x="1594.396484"/>
      <use xlink:href="#DejaVuSans-56" x="1626.183594"/>
      <use xlink:href="#DejaVuSans-61" x="1686.841797"/>
      <use xlink:href="#DejaVuSans-6c" x="1748.121094"/>
      <use xlink:href="#DejaVuSans-75" x="1775.904297"/>
      <use xlink:href="#DejaVuSans-65" x="1839.283203"/>
      <use xlink:href="#DejaVuSans-73" x="1900.806641"/>
     </g>
    </g>
   </g>
   <g id="matplotlib.axis_2">
    <g id="ytick_1">
     <g id="line2d_18">
      <path d="M 440.4276 619.6536 
C 440.4276 619.6536 440.4276 619.6536 440.4276 619.6536 
C 440.4276 619.6536 440.4276 619.6536 440.4276 619.6536 
" clip-path="url(#pac6474da6f)" style="fill: none; stroke: #b0b0b0; stroke-width: 0.8; stroke-linecap: square"/>
     </g>
     <g id="text_19">
      <!-- 0.0 -->
      <g transform="translate(429.295412 637.291412) scale(0.14 -0.14)">
       <use xlink:href="#DejaVuSans-30"/>
       <use xlink:href="#DejaVuSans-2e" x="63.623047"/>
       <use xlink:href="#DejaVuSans-30" x="95.410156"/>
      </g>
     </g>
    </g>
    <g id="ytick_2">
     <g id="line2d_19">
      <path d="M 504.39177 619.6536 
C 504.39177 602.695754 497.648106 586.41511 485.657098 574.424102 
C 473.66609 562.433094 457.385446 555.68943 440.4276 555.68943 
" clip-path="url(#pac6474da6f)" style="fill: none; stroke: #b0b0b0; stroke-width: 0.8; stroke-linecap: square"/>
     </g>
     <g id="text_20">
      <!-- 0.1 -->
      <g transform="translate(493.259582 637.291412) scale(0.14 -0.14)">
       <use xlink:href="#DejaVuSans-30"/>
       <use xlink:href="#DejaVuSans-2e" x="63.623047"/>
       <use xlink:href="#DejaVuSans-31" x="95.410156"/>
      </g>
     </g>
    </g>
    <g id="ytick_3">
     <g id="line2d_20">
      <path d="M 568.35594 619.6536 
C 568.35594 585.737907 554.868613 553.17662 530.886596 529.194604 
C 506.90458 505.212587 474.343293 491.72526 440.4276 491.72526 
" clip-path="url(#pac6474da6f)" style="fill: none; stroke: #b0b0b0; stroke-width: 0.8; stroke-linecap: square"/>
     </g>
     <g id="text_21">
      <!-- 0.2 -->
      <g transform="translate(557.223752 637.291412) scale(0.14 -0.14)">
       <use xlink:href="#DejaVuSans-30"/>
       <use xlink:href="#DejaVuSans-2e" x="63.623047"/>
       <use xlink:href="#DejaVuSans-32" x="95.410156"/>
      </g>
     </g>
    </g>
    <g id="ytick_4">
     <g id="line2d_21">
      <path d="M 632.320109 619.6536 
C 632.320109 568.780061 612.089119 519.93813 576.116095 483.965105 
C 540.14307 447.992081 491.301139 427.761091 440.4276 427.761091 
" clip-path="url(#pac6474da6f)" style="fill: none; stroke: #b0b0b0; stroke-width: 0.8; stroke-linecap: square"/>
     </g>
     <g id="text_22">
      <!-- 0.3 -->
      <g transform="translate(621.187922 637.291412) scale(0.14 -0.14)">
       <use xlink:href="#DejaVuSans-30"/>
       <use xlink:href="#DejaVuSans-2e" x="63.623047"/>
       <use xlink:href="#DejaVuSans-33" x="95.410156"/>
      </g>
     </g>
    </g>
    <g id="ytick_5">
     <g id="line2d_22">
      <path d="M 696.284279 619.6536 
C 696.284279 551.822214 669.309625 486.69964 621.345593 438.735607 
C 573.38156 390.771575 508.258986 363.796921 440.4276 363.796921 
" clip-path="url(#pac6474da6f)" style="fill: none; stroke: #b0b0b0; stroke-width: 0.8; stroke-linecap: square"/>
     </g>
     <g id="text_23">
      <!-- 0.4 -->
      <g transform="translate(685.152092 637.291412) scale(0.14 -0.14)">
       <use xlink:href="#DejaVuSans-30"/>
       <use xlink:href="#DejaVuSans-2e" x="63.623047"/>
       <use xlink:href="#DejaVuSans-34" x="95.410156"/>
      </g>
     </g>
    </g>
    <g id="ytick_6">
     <g id="line2d_23">
      <path d="M 760.248449 619.6536 
C 760.248449 534.864368 726.530132 453.46115 666.575091 393.506109 
C 606.62005 333.551068 525.216832 299.832751 440.4276 299.832751 
" clip-path="url(#pac6474da6f)" style="fill: none; stroke: #b0b0b0; stroke-width: 0.8; stroke-linecap: square"/>
     </g>
     <g id="text_24">
      <!-- 0.5 -->
      <g transform="translate(749.116261 637.291412) scale(0.14 -0.14)">
       <use xlink:href="#DejaVuSans-30"/>
       <use xlink:href="#DejaVuSans-2e" x="63.623047"/>
       <use xlink:href="#DejaVuSans-35" x="95.410156"/>
      </g>
     </g>
    </g>
    <g id="ytick_7">
     <g id="line2d_24">
      <path d="M 824.212619 619.6536 
C 824.212619 517.906522 783.750638 420.22266 711.804589 348.276611 
C 639.85854 276.330562 542.174678 235.868581 440.4276 235.868581 
" clip-path="url(#pac6474da6f)" style="fill: none; stroke: #b0b0b0; stroke-width: 0.8; stroke-linecap: square"/>
     </g>
     <g id="text_25">
      <!-- 0.6 -->
      <g transform="translate(813.080431 637.291412) scale(0.14 -0.14)">
       <use xlink:href="#DejaVuSans-30"/>
       <use xlink:href="#DejaVuSans-2e" x="63.623047"/>
       <use xlink:href="#DejaVuSans-36" x="95.410156"/>
      </g>
     </g>
    </g>
    <g id="ytick_8">
     <g id="line2d_25">
      <path d="M 888.176788 619.6536 
C 888.176788 500.948675 840.971145 386.98417 757.034087 303.047113 
C 673.09703 219.110055 559.132525 171.904412 440.4276 171.904412 
" clip-path="url(#pac6474da6f)" style="fill: none; stroke: #b0b0b0; stroke-width: 0.8; stroke-linecap: square"/>
     </g>
     <g id="text_26">
      <!-- 0.7 -->
      <g transform="translate(877.044601 637.291412) scale(0.14 -0.14)">
       <use xlink:href="#DejaVuSans-30"/>
       <use xlink:href="#DejaVuSans-2e" x="63.623047"/>
       <use xlink:href="#DejaVuSans-37" x="95.410156"/>
      </g>
     </g>
    </g>
    <g id="ytick_9">
     <g id="line2d_26">
      <path d="M 952.140958 619.6536 
C 952.140958 483.990829 898.191651 353.74568 802.263586 257.817614 
C 706.33552 161.889549 576.090371 107.940242 440.4276 107.940242 
" clip-path="url(#pac6474da6f)" style="fill: none; stroke: #b0b0b0; stroke-width: 0.8; stroke-linecap: square"/>
     </g>
     <g id="text_27">
      <!-- 0.8 -->
      <g transform="translate(941.008771 637.291412) scale(0.14 -0.14)">
       <use xlink:href="#DejaVuSans-30"/>
       <use xlink:href="#DejaVuSans-2e" x="63.623047"/>
       <use xlink:href="#DejaVuSans-38" x="95.410156"/>
      </g>
     </g>
    </g>
    <g id="text_28">
     <!-- Standard Deviation of Observed Values -->
     <g transform="translate(386.38385 489.127138) rotate(-90) scale(0.14 -0.14)">
      <defs>
       <path id="DejaVuSans-4f" d="M 2522 4238 
Q 1834 4238 1429 3725 
Q 1025 3213 1025 2328 
Q 1025 1447 1429 934 
Q 1834 422 2522 422 
Q 3209 422 3611 934 
Q 4013 1447 4013 2328 
Q 4013 3213 3611 3725 
Q 3209 4238 2522 4238 
z
M 2522 4750 
Q 3503 4750 4090 4092 
Q 4678 3434 4678 2328 
Q 4678 1225 4090 567 
Q 3503 -91 2522 -91 
Q 1538 -91 948 565 
Q 359 1222 359 2328 
Q 359 3434 948 4092 
Q 1538 4750 2522 4750 
z
" transform="scale(0.015625)"/>
       <path id="DejaVuSans-62" d="M 3116 1747 
Q 3116 2381 2855 2742 
Q 2594 3103 2138 3103 
Q 1681 3103 1420 2742 
Q 1159 2381 1159 1747 
Q 1159 1113 1420 752 
Q 1681 391 2138 391 
Q 2594 391 2855 752 
Q 3116 1113 3116 1747 
z
M 1159 2969 
Q 1341 3281 1617 3432 
Q 1894 3584 2278 3584 
Q 2916 3584 3314 3078 
Q 3713 2572 3713 1747 
Q 3713 922 3314 415 
Q 2916 -91 2278 -91 
Q 1894 -91 1617 61 
Q 1341 213 1159 525 
L 1159 0 
L 581 0 
L 581 4863 
L 1159 4863 
L 1159 2969 
z
" transform="scale(0.015625)"/>
      </defs>
      <use xlink:href="#DejaVuSans-53"/>
      <use xlink:href="#DejaVuSans-74" x="63.476562"/>
      <use xlink:href="#DejaVuSans-61" x="102.685547"/>
      <use xlink:href="#DejaVuSans-6e" x="163.964844"/>
      <use xlink:href="#DejaVuSans-64" x="227.34375"/>
      <use xlink:href="#DejaVuSans-61" x="290.820312"/>
      <use xlink:href="#DejaVuSans-72" x="352.099609"/>
      <use xlink:href="#DejaVuSans-64" x="391.462891"/>
      <use xlink:href="#DejaVuSans-20" x="454.939453"/>
      <use xlink:href="#DejaVuSans-44" x="486.726562"/>
      <use xlink:href="#DejaVuSans-65" x="563.728516"/>
      <use xlink:href="#DejaVuSans-76" x="625.251953"/>
      <use xlink:href="#DejaVuSans-69" x="684.431641"/>
      <use xlink:href="#DejaVuSans-61" x="712.214844"/>
      <use xlink:href="#DejaVuSans-74" x="773.494141"/>
      <use xlink:href="#DejaVuSans-69" x="812.703125"/>
      <use xlink:href="#DejaVuSans-6f" x="840.486328"/>
      <use xlink:href="#DejaVuSans-6e" x="901.667969"/>
      <use xlink:href="#DejaVuSans-20" x="965.046875"/>
      <use xlink:href="#DejaVuSans-6f" x="996.833984"/>
      <use xlink:href="#DejaVuSans-66" x="1058.015625"/>
      <use xlink:href="#DejaVuSans-20" x="1093.220703"/>
      <use xlink:href="#DejaVuSans-4f" x="1125.007812"/>
      <use xlink:href="#DejaVuSans-62" x="1203.71875"/>
      <use xlink:href="#DejaVuSans-73" x="1267.195312"/>
      <use xlink:href="#DejaVuSans-65" x="1319.294922"/>
      <use xlink:href="#DejaVuSans-72" x="1380.818359"/>
      <use xlink:href="#DejaVuSans-76" x="1421.931641"/>
      <use xlink:href="#DejaVuSans-65" x="1481.111328"/>
      <use xlink:href="#DejaVuSans-64" x="1542.634766"/>
      <use xlink:href="#DejaVuSans-20" x="1606.111328"/>
      <use xlink:href="#DejaVuSans-56" x="1637.898438"/>
      <use xlink:href="#DejaVuSans-61" x="1698.556641"/>
      <use xlink:href="#DejaVuSans-6c" x="1759.835938"/>
      <use xlink:href="#DejaVuSans-75" x="1787.619141"/>
      <use xlink:href="#DejaVuSans-65" x="1850.998047"/>
      <use xlink:href="#DejaVuSans-73" x="1912.521484"/>
     </g>
    </g>
   </g>
   <g id="line2d_27">
    <defs>
     <path id="m6fc77b0e54" d="M -5 5 
L 5 5 
L 5 -5 
L -5 -5 
z
" style="stroke: #1f77b4; stroke-linejoin: miter"/>
    </defs>
    <g clip-path="url(#pac6474da6f)">
     <use xlink:href="#m6fc77b0e54" x="738.922226" y="558.000112" style="fill: #1f77b4; stroke: #1f77b4; stroke-linejoin: miter"/>
    </g>
   </g>
   <g id="line2d_28">
    <defs>
     <path id="mac8d702c53" d="M -5 0 
L 5 0 
M 0 5 
L 0 -5 
" style="stroke: #000000"/>
    </defs>
    <g clip-path="url(#pac6474da6f)">
     <use xlink:href="#mac8d702c53" x="749.550655" y="526.025717" style="stroke: #000000"/>
    </g>
   </g>
   <g id="line2d_29">
    <defs>
     <path id="md171b740cf" d="M 0 -5 
L -5 5 
L 5 5 
z
" style="stroke: #ff7f0e; stroke-linejoin: miter"/>
    </defs>
    <g clip-path="url(#pac6474da6f)">
     <use xlink:href="#md171b740cf" x="737.273156" y="498.174152" style="fill: #ff7f0e; stroke: #ff7f0e; stroke-linejoin: miter"/>
    </g>
   </g>
   <g id="line2d_30">
    <defs>
     <path id="m99226547cd" d="M 0 7.071068 
L 7.071068 0 
L 0 -7.071068 
L -7.071068 0 
z
" style="stroke: #2ca02c; stroke-linejoin: miter"/>
    </defs>
    <g clip-path="url(#pac6474da6f)">
     <use xlink:href="#m99226547cd" x="736.385937" y="495.505853" style="fill: #2ca02c; stroke: #2ca02c; stroke-linejoin: miter"/>
    </g>
   </g>
   <g id="line2d_31">
    <defs>
     <path id="m844a6a285b" d="M -5 5 
L 5 -5 
M -5 -5 
L 5 5 
" style="stroke: #d62728"/>
    </defs>
    <g clip-path="url(#pac6474da6f)">
     <use xlink:href="#m844a6a285b" x="719.132166" y="486.681619" style="fill: #d62728; stroke: #d62728"/>
    </g>
   </g>
   <g id="line2d_32">
    <defs>
     <path id="mf80e3637d3" d="M 0 -5 
L -1.12257 -1.545085 
L -4.755283 -1.545085 
L -1.816356 0.59017 
L -2.938926 4.045085 
L -0 1.90983 
L 2.938926 4.045085 
L 1.816356 0.59017 
L 4.755283 -1.545085 
L 1.12257 -1.545085 
z
" style="stroke: #9467bd; stroke-linejoin: bevel"/>
    </defs>
    <g clip-path="url(#pac6474da6f)">
     <use xlink:href="#mf80e3637d3" x="766.922715" y="474.26451" style="fill: #9467bd; stroke: #9467bd; stroke-linejoin: bevel"/>
    </g>
   </g>
   <g id="line2d_33">
    <defs>
     <path id="m4f84fa81cb" d="M 0 -5 
L -4.755283 -1.545085 
L -2.938926 4.045085 
L 2.938926 4.045085 
L 4.755283 -1.545085 
z
" style="stroke: #8c564b; stroke-linejoin: miter"/>
    </defs>
    <g clip-path="url(#pac6474da6f)">
     <use xlink:href="#m4f84fa81cb" x="696.300906" y="494.31677" style="fill: #8c564b; stroke: #8c564b; stroke-linejoin: miter"/>
    </g>
   </g>
   <g id="line2d_34">
    <defs>
     <path id="m609055708e" d="M -1.666667 5 
L 1.666667 5 
L 1.666667 1.666667 
L 5 1.666667 
L 5 -1.666667 
L 1.666667 -1.666667 
L 1.666667 -5 
L -1.666667 -5 
L -1.666667 -1.666667 
L -5 -1.666667 
L -5 1.666667 
L -1.666667 1.666667 
z
" style="stroke: #e377c2; stroke-linejoin: miter"/>
    </defs>
    <g clip-path="url(#pac6474da6f)">
     <use xlink:href="#m609055708e" x="769.555406" y="488.315698" style="fill: #e377c2; stroke: #e377c2; stroke-linejoin: miter"/>
    </g>
   </g>
   <g id="line2d_35">
    <defs>
     <path id="m376f84cfd4" d="M -2.5 5 
L 0 2.5 
L 2.5 5 
L 5 2.5 
L 2.5 0 
L 5 -2.5 
L 2.5 -5 
L 0 -2.5 
L -2.5 -5 
L -5 -2.5 
L -2.5 0 
L -5 2.5 
z
" style="stroke: #7f7f7f; stroke-linejoin: miter"/>
    </defs>
    <g clip-path="url(#pac6474da6f)">
     <use xlink:href="#m376f84cfd4" x="735.952443" y="594.655377" style="fill: #7f7f7f; stroke: #7f7f7f; stroke-linejoin: miter"/>
    </g>
   </g>
   <g id="line2d_36">
    <defs>
     <path id="mdb8576354c" d="M 0 7.071068 
L 4.242641 0 
L 0 -7.071068 
L -4.242641 0 
z
" style="stroke: #bcbd22; stroke-linejoin: miter"/>
    </defs>
    <g clip-path="url(#pac6474da6f)">
     <use xlink:href="#mdb8576354c" x="730.537071" y="579.912837" style="fill: #bcbd22; stroke: #bcbd22; stroke-linejoin: miter"/>
    </g>
   </g>
   <g id="line2d_37">
    <defs>
     <path id="m60833e94b3" d="M 0 -5 
L -4.330127 -2.5 
L -4.330127 2.5 
L -0 5 
L 4.330127 2.5 
L 4.330127 -2.5 
z
" style="stroke: #17becf; stroke-linejoin: miter"/>
    </defs>
    <g clip-path="url(#pac6474da6f)">
     <use xlink:href="#m60833e94b3" x="735.529392" y="579.086678" style="fill: #17becf; stroke: #17becf; stroke-linejoin: miter"/>
    </g>
   </g>
   <g id="line2d_38">
    <defs>
     <path id="mad2cc8c90e" d="M 0 0 
L 0 5 
M 0 0 
L 4 -2.5 
M 0 0 
L -4 -2.5 
" style="stroke: #1f77b4"/>
    </defs>
    <g clip-path="url(#pac6474da6f)">
     <use xlink:href="#mad2cc8c90e" x="719.742169" y="575.175774" style="fill: #1f77b4; stroke: #1f77b4"/>
    </g>
   </g>
   <g id="line2d_39">
    <defs>
     <path id="m7d23f102ae" d="M 0 5 
C 1.326016 5 2.597899 4.473168 3.535534 3.535534 
C 4.473168 2.597899 5 1.326016 5 0 
C 5 -1.326016 4.473168 -2.597899 3.535534 -3.535534 
C 2.597899 -4.473168 1.326016 -5 0 -5 
C -1.326016 -5 -2.597899 -4.473168 -3.535534 -3.535534 
C -4.473168 -2.597899 -5 -1.326016 -5 0 
C -5 1.326016 -4.473168 2.597899 -3.535534 3.535534 
C -2.597899 4.473168 -1.326016 5 0 5 
z
" style="stroke: #ff7f0e"/>
    </defs>
    <g clip-path="url(#pac6474da6f)">
     <use xlink:href="#m7d23f102ae" x="749.346307" y="585.050494" style="fill: #ff7f0e; stroke: #ff7f0e"/>
    </g>
   </g>
   <g id="line2d_40">
    <defs>
     <path id="mca975cfc58" d="M 0 5 
C 1.326016 5 2.597899 4.473168 3.535534 3.535534 
C 4.473168 2.597899 5 1.326016 5 0 
C 5 -1.326016 4.473168 -2.597899 3.535534 -3.535534 
C 2.597899 -4.473168 1.326016 -5 0 -5 
C -1.326016 -5 -2.597899 -4.473168 -3.535534 -3.535534 
C -4.473168 -2.597899 -5 -1.326016 -5 0 
C -5 1.326016 -4.473168 2.597899 -3.535534 3.535534 
C -2.597899 4.473168 -1.326016 5 0 5 
z
" style="stroke: #2ca02c"/>
    </defs>
    <g clip-path="url(#pac6474da6f)">
     <use xlink:href="#mca975cfc58" x="730.943254" y="619.6536" style="fill: #2ca02c; stroke: #2ca02c"/>
    </g>
   </g>
   <g id="QuadContourSet_1">
    <path clip-path="url(#pac6474da6f)" style="fill: none; stroke: #0000ff; stroke-width: 1.5"/>
    <path d="M 603.014915 619.6536 
L 605.213021 596.052849 
L 606.079852 592.449347 
L 607.658984 585.519451 
L 609.235468 580.511805 
L 610.404634 576.828642 
L 612.501256 571.436189 
L 613.526371 568.895981 
L 615.877106 563.828276 
L 617.136902 561.255971 
L 619.356949 557.150262 
L 621.403786 553.604832 
L 622.936023 551.132901 
L 626.580333 545.667984 
L 626.611844 545.623074 
L 630.403541 540.574131 
L 633.308225 537.017654 
L 634.285384 535.858861 
L 638.274703 531.474524 
L 642.358812 527.360117 
L 642.875782 526.880188 
L 646.549478 523.518294 
L 650.839417 519.915612 
L 655.229311 516.540817 
L 659.72016 513.386647 
L 663.429777 511.011533 
L 664.31249 510.447522 
L 669.00621 507.718803 
L 673.800712 505.196676 
L 678.696152 502.880487 
L 683.692635 500.770883 
L 686.927747 499.563806 
L 688.790084 498.869423 
L 693.988104 497.178197 
L 699.287048 495.701993 
L 704.687104 494.446416 
L 710.188431 493.418198 
L 715.791074 492.625069 
L 718.132528 492.393214 
L 721.494152 492.074057 
L 723.489451 491.963501 
M 753.414908 493.737187 
L 756.017657 494.223668 
L 757.834123 494.587189 
L 764.247491 496.14901 
L 770.75494 498.083042 
L 772.19665 498.571719 
L 777.373268 500.470279 
L 784.085171 503.306424 
L 787.54041 504.942236 
L 790.902732 506.679416 
L 797.822229 510.646697 
L 802.355892 513.525647 
L 804.837869 515.276056 
L 811.968272 520.750696 
L 816.801945 524.827757 
L 819.186165 527.135534 
L 826.528508 534.825724 
L 830.98889 539.934847 
L 833.975928 544.154732 
L 841.517893 555.807874 
L 844.994016 561.711149 
L 849.839245 577.70378 
L 857.292803 610.287866 
L 858.871594 619.6536 
" clip-path="url(#pac6474da6f)" style="fill: none; stroke: #0000ff; stroke-width: 1.5"/>
    <path d="M 475.086575 619.6536 
L 475.292101 609.430309 
L 475.305528 609.199682 
M 480.057256 569.530342 
L 481.010174 564.971383 
L 482.588205 558.189874 
L 484.020402 552.669304 
L 484.9139 549.467497 
L 487.238028 541.771315 
L 488.849498 536.904557 
L 490.976848 530.910523 
L 491.238747 530.186665 
L 494.204257 522.648109 
L 495.276346 520.035973 
L 497.446538 515.050321 
L 501.630518 506.191094 
L 502.089609 505.24798 
L 504.562615 500.429256 
L 507.136548 495.664872 
L 510.206662 490.292004 
L 512.587228 486.29952 
L 515.463906 481.699384 
L 518.441539 477.155259 
L 523.238955 470.273616 
L 524.699821 468.239039 
L 527.980146 463.86909 
L 532.205788 458.529962 
L 534.843972 455.312711 
L 540.206974 449.138853 
L 542.111575 447.01102 
L 547.802301 441.005649 
L 549.782855 438.977572 
L 555.18915 433.731736 
L 557.857805 431.227359 
L 562.480415 427.09069 
L 569.703912 421.008816 
L 570.727793 420.169564 
L 576.925901 415.36165 
L 579.811833 413.201555 
L 584.506226 409.846714 
L 591.460414 405.175278 
L 594.195576 403.405427 
L 599.192821 400.326032 
L 606.209464 396.273981 
L 613.693225 392.252781 
L 614.787557 391.682505 
L 621.252465 388.510941 
L 628.890549 385.04275 
L 631.290658 384.000076 
L 636.994516 381.669579 
L 644.45181 378.86853 
L 652.371354 376.170598 
L 654.708596 375.417111 
L 660.816136 373.594761 
L 668.514783 371.537406 
L 676.734292 369.6155 
L 679.741545 368.971448 
L 686.252578 367.729738 
L 693.50075 366.554628 
L 702.033296 365.443779 
L 710.679608 364.60886 
L 713.304322 364.405249 
L 720.319862 364.017456 
L 728.304297 363.813953 
L 737.274499 363.882484 
L 746.359726 364.269159 
L 749.390992 364.463499 
L 756.910875 365.118659 
L 764.872173 366.057721 
L 774.289061 367.500567 
L 783.821867 369.327364 
L 788.002283 370.243568 
L 796.026889 372.216238 
L 804.151278 374.495659 
L 813.110531 377.351546 
L 823.097312 380.973628 
L 833.200558 385.125123 
L 837.669462 387.129132 
L 846.299591 391.287397 
L 855.028061 395.90648 
L 864.206584 401.242911 
L 874.769161 408.051338 
L 885.448594 415.719361 
L 890.978763 420.056676 
L 896.244758 424.367618 
L 900.217575 427.833829 
L 907.157521 434.153768 
L 909.552333 436.490713 
L 918.978961 446.163213 
L 929.331029 458.084284 
L 940.591015 472.991068 
L 947.959142 484.283996 
L 951.968032 490.773262 
L 957.846462 501.716445 
L 963.461948 512.895334 
L 967.868727 523.662903 
L 967.868727 523.662903 
" clip-path="url(#pac6474da6f)" style="fill: none; stroke: #0000ff; stroke-width: 1.5"/>
    <path d="M 440.4276 368.878767 
L 442.270711 366.753786 
M 465.834012 342.15724 
L 468.655498 339.481619 
L 468.895945 339.258464 
L 472.107925 336.296162 
L 473.953647 334.612869 
L 475.391221 333.330575 
L 478.746369 330.368253 
L 479.354535 329.83535 
L 482.173014 327.420486 
L 484.855503 325.149875 
L 485.674446 324.472108 
L 489.249568 321.538984 
L 490.457331 320.557769 
L 492.899966 318.618148 
L 496.161138 316.060584 
L 496.62815 315.702655 
L 500.432013 312.811046 
L 501.964267 311.659298 
L 504.314575 309.933524 
L 507.870187 307.356141 
L 508.277764 307.067594 
L 512.319048 304.231153 
L 513.875105 303.151986 
L 516.441819 301.414373 
L 519.982608 299.049389 
L 520.647902 298.615751 
L 524.935162 295.849557 
L 526.18988 295.049548 
L 529.305819 293.112064 
L 532.498595 291.154833 
L 533.762325 290.39964 
L 538.303962 287.720302 
L 538.908819 287.367345 
L 542.929817 285.081853 
L 545.418506 283.688629 
L 547.643914 282.475765 
L 552.031143 280.122016 
L 552.447023 279.904927 
L 557.336139 277.383229 
L 558.742791 276.668605 
L 562.31464 274.90499 
L 565.556019 273.331694 
L 567.384352 272.469855 
L 572.471739 270.11423 
L 572.545965 270.08088 
L 577.795532 267.752991 
L 579.48574 267.017315 
L 583.138175 265.477109 
L 586.601881 264.045199 
L 588.574739 263.255915 
L 593.820155 261.200859 
L 594.105846 261.092677 
L 599.728202 258.999536 
L 601.137437 258.48601 
L 605.445578 256.972087 
L 608.556129 255.904837 
L 611.259349 255.011944 
L 616.076683 253.460892 
L 617.170071 253.122651 
L 623.176845 251.310721 
L 623.698005 251.15714 
L 629.278688 249.582558 
L 631.4191 248.996668 
L 635.479179 247.935615 
L 639.241864 246.984197 
L 641.778818 246.373788 
L 647.166147 245.123631 
L 648.17809 244.901069 
L 654.676084 243.523979 
L 655.191115 243.418653 
L 661.272013 242.248655 
L 663.316173 241.873223 
L 667.969091 241.074468 
L 671.542647 240.492631 
L 674.767752 240.005907 
L 679.870404 239.28158 
L 681.668417 239.047599 
L 688.299309 238.245002 
L 688.671498 238.204324 
L 695.774748 237.484984 
L 696.828522 237.387603 
L 702.980399 236.8917 
L 705.4587 236.715338 
L 710.289785 236.428345 
L 714.190024 236.23418 
L 717.703275 236.10047 
L 723.022371 235.950226 
L 725.221224 235.91385 
L 731.955617 235.869915 
L 732.843979 235.874509 
L 740.57092 235.989965 
L 740.989719 236.000136 
L 748.401407 236.267916 
L 750.124961 236.348464 
L 756.337849 236.71255 
L 759.361207 236.922624 
L 764.380557 237.331152 
L 768.698347 237.730866 
L 772.529833 238.131393 
L 778.136265 238.781999 
L 780.785973 239.121371 
L 787.674838 240.085444 
L 789.149261 240.309657 
L 797.313933 241.651307 
L 797.619976 241.70534 
L 806.196759 243.319769 
L 807.055118 243.492121 
L 814.881062 245.161931 
L 816.897745 245.619268 
L 823.673743 247.24224 
L 826.841188 248.045076 
" clip-path="url(#pac6474da6f)" style="fill: none; stroke: #0000ff; stroke-width: 1.5"/>
    <path d="M 440.4276 198.405883 
L 442.074674 197.271211 
L 444.712366 195.483417 
L 448.91258 192.677609 
M 476.165196 175.877192 
L 476.417676 175.732934 
L 481.199014 173.025139 
L 482.703053 172.184589 
L 486.045058 170.350586 
L 490.956914 167.705677 
L 491.133141 167.611731 
L 495.934288 165.099914 
L 499.661088 163.188794 
L 500.978782 162.525931 
L 506.090305 159.990738 
L 508.290964 158.917493 
L 511.269748 157.493412 
L 516.518033 155.033454 
L 517.023596 154.799463 
L 521.834771 152.618347 
L 525.854926 150.835665 
L 527.221774 150.24233 
L 532.678739 147.912044 
L 534.787695 147.0283 
L 538.206574 145.627226 
L 543.806519 143.386463 
L 543.823643 143.379702 
L 549.477478 141.199202 
L 552.95682 139.890683 
L 555.221741 139.059322 
L 561.039304 136.97127 
L 562.193412 136.564858 
L 566.930134 134.939205 
L 571.530184 133.4039 
L 572.896049 132.960106 
L 578.936468 131.040241 
L 580.967727 130.41052 
L 585.05233 129.180082 
L 590.50731 127.587842 
L 591.245013 127.378926 
L 597.513469 125.644142 
L 600.146161 124.937955 
L 603.859411 123.974017 
L 609.887967 122.465125 
L 610.283863 122.369428 
L 616.785474 120.838207 
L 619.728489 120.171225 
L 623.36643 119.37782 
L 629.672112 118.061264 
" clip-path="url(#pac6474da6f)" style="fill: none; stroke: #0000ff; stroke-width: 1.5"/>
    <path clip-path="url(#pac6474da6f)" style="fill: none; stroke: #0000ff; stroke-width: 1.5"/>
   </g>
   <g id="line2d_41">
    <path d="M 730.943254 619.6536 
L 730.906687 615.044289 
L 730.796992 610.436139 
L 730.614199 605.830309 
L 730.358352 601.227958 
L 730.029518 596.630247 
L 729.627777 592.038331 
L 729.153232 587.453368 
L 728.606002 582.87651 
L 727.986224 578.308912 
L 727.294055 573.751721 
L 726.529669 569.206086 
L 725.693258 564.673151 
L 724.785033 560.154057 
L 723.805223 555.649941 
L 722.754074 551.161939 
L 721.63185 546.691178 
L 720.438835 542.238786 
L 719.175329 537.805882 
L 717.84165 533.393583 
L 716.438133 529.002999 
L 714.965131 524.635237 
L 713.423017 520.291394 
L 711.812177 515.972566 
L 710.133018 511.679838 
L 708.385961 507.414293 
L 706.571448 503.177003 
L 704.689934 498.969036 
L 702.741894 494.79145 
L 700.727818 490.645297 
L 698.648212 486.531622 
L 696.503601 482.45146 
L 694.294524 478.405837 
L 692.021537 474.395773 
L 689.685213 470.422276 
L 687.286139 466.486348 
L 684.824921 462.588979 
L 682.302176 458.73115 
L 679.718541 454.913833 
L 677.074666 451.137987 
L 674.371216 447.404565 
L 671.608872 443.714505 
L 668.788329 440.068738 
L 665.910298 436.468179 
L 662.975503 432.913737 
L 659.984682 429.406305 
L 656.938589 425.946767 
L 653.837991 422.535994 
L 650.683668 419.174844 
L 647.476414 415.864164 
L 644.217036 412.604786 
L 640.906356 409.397532 
L 637.545206 406.243209 
L 634.134433 403.142611 
L 630.674895 400.096518 
L 627.167463 397.105697 
L 623.613021 394.170902 
L 620.012462 391.292871 
L 616.366695 388.472328 
L 612.676635 385.709984 
L 608.943213 383.006534 
L 605.167367 380.362659 
L 601.35005 377.779024 
L 597.492221 375.256279 
L 593.594852 372.795061 
L 589.658924 370.395987 
L 585.685427 368.059663 
L 581.675363 365.786676 
L 577.62974 363.577599 
L 573.549578 361.432988 
L 569.435903 359.353382 
L 565.28975 357.339306 
L 561.112164 355.391266 
L 556.904197 353.509752 
L 552.666907 351.695239 
L 548.401362 349.948182 
L 544.108634 348.269023 
L 539.789806 346.658183 
L 535.445963 345.116069 
L 531.078201 343.643067 
L 526.687617 342.23955 
L 522.275318 340.905871 
L 517.842414 339.642365 
L 513.390022 338.44935 
L 508.919261 337.327126 
L 504.431259 336.275977 
L 499.927143 335.296167 
L 495.408049 334.387942 
L 490.875114 333.551531 
L 486.329479 332.787145 
L 481.772288 332.094976 
L 477.20469 331.475198 
L 472.627832 330.927968 
L 468.042869 330.453423 
L 463.450953 330.051682 
L 458.853242 329.722848 
L 454.250891 329.467001 
L 449.645061 329.284208 
L 445.036911 329.174513 
L 440.4276 329.137946 
" clip-path="url(#pac6474da6f)" style="fill: none; stroke-dasharray: 5.55,2.4; stroke-dashoffset: 0; stroke: #000000; stroke-width: 1.5"/>
   </g>
   <g id="patch_3">
    <path d="M 976.5324 619.6536 
C 976.5324 477.524297 920.011533 341.070854 819.51094 240.57026 
C 719.010346 140.069667 582.556903 83.5488 440.4276 83.5488 
" style="fill: none; stroke: #000000; stroke-width: 0.8; stroke-linejoin: miter; stroke-linecap: square"/>
   </g>
   <g id="patch_4">
    <path d="M 440.4276 619.6536 
L 976.5324 619.6536 
" style="fill: none; stroke: #000000; stroke-width: 0.8; stroke-linejoin: miter; stroke-linecap: square"/>
   </g>
   <g id="patch_5">
    <path d="M 440.4276 619.6536 
L 440.4276 83.5488 
" style="fill: none; stroke: #000000; stroke-width: 0.8; stroke-linejoin: miter; stroke-linecap: square"/>
   </g>
   <g id="text_29">
    <!-- Standard Deviation: 0.45 -->
    <g transform="translate(599.595148 371.872314) rotate(-315) scale(0.1 -0.1)">
     <defs>
      <path id="DejaVuSans-3a" d="M 750 794 
L 1409 794 
L 1409 0 
L 750 0 
L 750 794 
z
M 750 3309 
L 1409 3309 
L 1409 2516 
L 750 2516 
L 750 3309 
z
" transform="scale(0.015625)"/>
     </defs>
     <use xlink:href="#DejaVuSans-53"/>
     <use xlink:href="#DejaVuSans-74" x="63.476562"/>
     <use xlink:href="#DejaVuSans-61" x="102.685547"/>
     <use xlink:href="#DejaVuSans-6e" x="163.964844"/>
     <use xlink:href="#DejaVuSans-64" x="227.34375"/>
     <use xlink:href="#DejaVuSans-61" x="290.820312"/>
     <use xlink:href="#DejaVuSans-72" x="352.099609"/>
     <use xlink:href="#DejaVuSans-64" x="391.462891"/>
     <use xlink:href="#DejaVuSans-20" x="454.939453"/>
     <use xlink:href="#DejaVuSans-44" x="486.726562"/>
     <use xlink:href="#DejaVuSans-65" x="563.728516"/>
     <use xlink:href="#DejaVuSans-76" x="625.251953"/>
     <use xlink:href="#DejaVuSans-69" x="684.431641"/>
     <use xlink:href="#DejaVuSans-61" x="712.214844"/>
     <use xlink:href="#DejaVuSans-74" x="773.494141"/>
     <use xlink:href="#DejaVuSans-69" x="812.703125"/>
     <use xlink:href="#DejaVuSans-6f" x="840.486328"/>
     <use xlink:href="#DejaVuSans-6e" x="901.667969"/>
     <use xlink:href="#DejaVuSans-3a" x="965.046875"/>
     <use xlink:href="#DejaVuSans-20" x="998.738281"/>
     <use xlink:href="#DejaVuSans-30" x="1030.525391"/>
     <use xlink:href="#DejaVuSans-2e" x="1094.148438"/>
     <use xlink:href="#DejaVuSans-34" x="1125.935547"/>
     <use xlink:href="#DejaVuSans-35" x="1189.558594"/>
    </g>
   </g>
   <g id="text_30">
    <!-- Correlation Coefficient -->
    <g transform="translate(779.761356 161.444698) rotate(-315) scale(0.15 -0.15)">
     <defs>
      <path id="DejaVuSans-43" d="M 4122 4306 
L 4122 3641 
Q 3803 3938 3442 4084 
Q 3081 4231 2675 4231 
Q 1875 4231 1450 3742 
Q 1025 3253 1025 2328 
Q 1025 1406 1450 917 
Q 1875 428 2675 428 
Q 3081 428 3442 575 
Q 3803 722 4122 1019 
L 4122 359 
Q 3791 134 3420 21 
Q 3050 -91 2638 -91 
Q 1578 -91 968 557 
Q 359 1206 359 2328 
Q 359 3453 968 4101 
Q 1578 4750 2638 4750 
Q 3056 4750 3426 4639 
Q 3797 4528 4122 4306 
z
" transform="scale(0.015625)"/>
     </defs>
     <use xlink:href="#DejaVuSans-43"/>
     <use xlink:href="#DejaVuSans-6f" x="69.824219"/>
     <use xlink:href="#DejaVuSans-72" x="131.005859"/>
     <use xlink:href="#DejaVuSans-72" x="170.369141"/>
     <use xlink:href="#DejaVuSans-65" x="209.232422"/>
     <use xlink:href="#DejaVuSans-6c" x="270.755859"/>
     <use xlink:href="#DejaVuSans-61" x="298.539062"/>
     <use xlink:href="#DejaVuSans-74" x="359.818359"/>
     <use xlink:href="#DejaVuSans-69" x="399.027344"/>
     <use xlink:href="#DejaVuSans-6f" x="426.810547"/>
     <use xlink:href="#DejaVuSans-6e" x="487.992188"/>
     <use xlink:href="#DejaVuSans-20" x="551.371094"/>
     <use xlink:href="#DejaVuSans-43" x="583.158203"/>
     <use xlink:href="#DejaVuSans-6f" x="652.982422"/>
     <use xlink:href="#DejaVuSans-65" x="714.164062"/>
     <use xlink:href="#DejaVuSans-66" x="775.6875"/>
     <use xlink:href="#DejaVuSans-66" x="810.892578"/>
     <use xlink:href="#DejaVuSans-69" x="846.097656"/>
     <use xlink:href="#DejaVuSans-63" x="873.880859"/>
     <use xlink:href="#DejaVuSans-69" x="928.861328"/>
     <use xlink:href="#DejaVuSans-65" x="956.644531"/>
     <use xlink:href="#DejaVuSans-6e" x="1018.167969"/>
     <use xlink:href="#DejaVuSans-74" x="1081.546875"/>
    </g>
   </g>
   <g id="text_31">
    <!-- Taylor Diagram -->
    <g transform="translate(644.955 42.774112) scale(0.168 -0.168)">
     <defs>
      <path id="DejaVuSans-54" d="M -19 4666 
L 3928 4666 
L 3928 4134 
L 2272 4134 
L 2272 0 
L 1638 0 
L 1638 4134 
L -19 4134 
L -19 4666 
z
" transform="scale(0.015625)"/>
      <path id="DejaVuSans-79" d="M 2059 -325 
Q 1816 -950 1584 -1140 
Q 1353 -1331 966 -1331 
L 506 -1331 
L 506 -850 
L 844 -850 
Q 1081 -850 1212 -737 
Q 1344 -625 1503 -206 
L 1606 56 
L 191 3500 
L 800 3500 
L 1894 763 
L 2988 3500 
L 3597 3500 
L 2059 -325 
z
" transform="scale(0.015625)"/>
      <path id="DejaVuSans-67" d="M 2906 1791 
Q 2906 2416 2648 2759 
Q 2391 3103 1925 3103 
Q 1463 3103 1205 2759 
Q 947 2416 947 1791 
Q 947 1169 1205 825 
Q 1463 481 1925 481 
Q 2391 481 2648 825 
Q 2906 1169 2906 1791 
z
M 3481 434 
Q 3481 -459 3084 -895 
Q 2688 -1331 1869 -1331 
Q 1566 -1331 1297 -1286 
Q 1028 -1241 775 -1147 
L 775 -588 
Q 1028 -725 1275 -790 
Q 1522 -856 1778 -856 
Q 2344 -856 2625 -561 
Q 2906 -266 2906 331 
L 2906 616 
Q 2728 306 2450 153 
Q 2172 0 1784 0 
Q 1141 0 747 490 
Q 353 981 353 1791 
Q 353 2603 747 3093 
Q 1141 3584 1784 3584 
Q 2172 3584 2450 3431 
Q 2728 3278 2906 2969 
L 2906 3500 
L 3481 3500 
L 3481 434 
z
" transform="scale(0.015625)"/>
      <path id="DejaVuSans-6d" d="M 3328 2828 
Q 3544 3216 3844 3400 
Q 4144 3584 4550 3584 
Q 5097 3584 5394 3201 
Q 5691 2819 5691 2113 
L 5691 0 
L 5113 0 
L 5113 2094 
Q 5113 2597 4934 2840 
Q 4756 3084 4391 3084 
Q 3944 3084 3684 2787 
Q 3425 2491 3425 1978 
L 3425 0 
L 2847 0 
L 2847 2094 
Q 2847 2600 2669 2842 
Q 2491 3084 2119 3084 
Q 1678 3084 1418 2786 
Q 1159 2488 1159 1978 
L 1159 0 
L 581 0 
L 581 3500 
L 1159 3500 
L 1159 2956 
Q 1356 3278 1631 3431 
Q 1906 3584 2284 3584 
Q 2666 3584 2933 3390 
Q 3200 3197 3328 2828 
z
" transform="scale(0.015625)"/>
     </defs>
     <use xlink:href="#DejaVuSans-54"/>
     <use xlink:href="#DejaVuSans-61" x="44.583984"/>
     <use xlink:href="#DejaVuSans-79" x="105.863281"/>
     <use xlink:href="#DejaVuSans-6c" x="165.042969"/>
     <use xlink:href="#DejaVuSans-6f" x="192.826172"/>
     <use xlink:href="#DejaVuSans-72" x="254.007812"/>
     <use xlink:href="#DejaVuSans-20" x="295.121094"/>
     <use xlink:href="#DejaVuSans-44" x="326.908203"/>
     <use xlink:href="#DejaVuSans-69" x="403.910156"/>
     <use xlink:href="#DejaVuSans-61" x="431.693359"/>
     <use xlink:href="#DejaVuSans-67" x="492.972656"/>
     <use xlink:href="#DejaVuSans-72" x="556.449219"/>
     <use xlink:href="#DejaVuSans-61" x="597.5625"/>
     <use xlink:href="#DejaVuSans-6d" x="658.841797"/>
    </g>
   </g>
   <g id="text_32">
    <g clip-path="url(#pac6474da6f)">
     <!-- 0.2 -->
     <g style="fill: #0000ff" transform="translate(732.029706 493.879125) rotate(-357.443744) scale(0.08 -0.08)">
      <use xlink:href="#DejaVuSans-30"/>
      <use xlink:href="#DejaVuSans-2e" x="63.623047"/>
      <use xlink:href="#DejaVuSans-32" x="95.410156"/>
     </g>
    </g>
   </g>
   <g id="text_33">
    <g clip-path="url(#pac6474da6f)">
     <!-- 0.4 -->
     <g style="fill: #0000ff" transform="translate(478.078849 595.829581) rotate(-80.850862) scale(0.08 -0.08)">
      <use xlink:href="#DejaVuSans-30"/>
      <use xlink:href="#DejaVuSans-2e" x="63.623047"/>
      <use xlink:href="#DejaVuSans-34" x="95.410156"/>
     </g>
    </g>
   </g>
   <g id="text_34">
    <g clip-path="url(#pac6474da6f)">
     <!-- 0.6 -->
     <g style="fill: #0000ff" transform="translate(450.189638 359.760284) rotate(-37.872235) scale(0.08 -0.08)">
      <use xlink:href="#DejaVuSans-30"/>
      <use xlink:href="#DejaVuSans-2e" x="63.623047"/>
      <use xlink:href="#DejaVuSans-36" x="95.410156"/>
     </g>
    </g>
   </g>
   <g id="text_35">
    <g clip-path="url(#pac6474da6f)">
     <!-- 0.8 -->
     <g style="fill: #0000ff" transform="translate(457.597251 188.69648) rotate(-24.668396) scale(0.08 -0.08)">
      <use xlink:href="#DejaVuSans-30"/>
      <use xlink:href="#DejaVuSans-2e" x="63.623047"/>
      <use xlink:href="#DejaVuSans-38" x="95.410156"/>
     </g>
    </g>
   </g>
   <g id="legend_1">
    <g id="patch_6">
     <path d="M 889.418337 297.04255 
L 969.5324 297.04255 
Q 971.5324 297.04255 971.5324 295.04255 
L 971.5324 90.5488 
Q 971.5324 88.5488 969.5324 88.5488 
L 889.418337 88.5488 
Q 887.418337 88.5488 887.418337 90.5488 
L 887.418337 295.04255 
Q 887.418337 297.04255 889.418337 297.04255 
z
" style="fill: #ffffff; opacity: 0.8; stroke: #cccccc; stroke-linejoin: miter"/>
    </g>
    <g id="line2d_42">
     <g>
      <use xlink:href="#m6fc77b0e54" x="901.418337" y="96.647238" style="fill: #1f77b4; stroke: #1f77b4; stroke-linejoin: miter"/>
     </g>
    </g>
    <g id="text_36">
     <!-- SVR -->
     <g transform="translate(919.418337 100.147238) scale(0.1 -0.1)">
      <defs>
       <path id="DejaVuSans-52" d="M 2841 2188 
Q 3044 2119 3236 1894 
Q 3428 1669 3622 1275 
L 4263 0 
L 3584 0 
L 2988 1197 
Q 2756 1666 2539 1819 
Q 2322 1972 1947 1972 
L 1259 1972 
L 1259 0 
L 628 0 
L 628 4666 
L 2053 4666 
Q 2853 4666 3247 4331 
Q 3641 3997 3641 3322 
Q 3641 2881 3436 2590 
Q 3231 2300 2841 2188 
z
M 1259 4147 
L 1259 2491 
L 2053 2491 
Q 2509 2491 2742 2702 
Q 2975 2913 2975 3322 
Q 2975 3731 2742 3939 
Q 2509 4147 2053 4147 
L 1259 4147 
z
" transform="scale(0.015625)"/>
      </defs>
      <use xlink:href="#DejaVuSans-53"/>
      <use xlink:href="#DejaVuSans-56" x="63.476562"/>
      <use xlink:href="#DejaVuSans-52" x="131.884766"/>
     </g>
    </g>
    <g id="line2d_43">
     <g>
      <use xlink:href="#mac8d702c53" x="901.418337" y="111.325363" style="stroke: #000000"/>
     </g>
    </g>
    <g id="text_37">
     <!-- KNN -->
     <g transform="translate(919.418337 114.825363) scale(0.1 -0.1)">
      <defs>
       <path id="DejaVuSans-4b" d="M 628 4666 
L 1259 4666 
L 1259 2694 
L 3353 4666 
L 4166 4666 
L 1850 2491 
L 4331 0 
L 3500 0 
L 1259 2247 
L 1259 0 
L 628 0 
L 628 4666 
z
" transform="scale(0.015625)"/>
       <path id="DejaVuSans-4e" d="M 628 4666 
L 1478 4666 
L 3547 763 
L 3547 4666 
L 4159 4666 
L 4159 0 
L 3309 0 
L 1241 3903 
L 1241 0 
L 628 0 
L 628 4666 
z
" transform="scale(0.015625)"/>
      </defs>
      <use xlink:href="#DejaVuSans-4b"/>
      <use xlink:href="#DejaVuSans-4e" x="65.576172"/>
      <use xlink:href="#DejaVuSans-4e" x="140.380859"/>
     </g>
    </g>
    <g id="line2d_44">
     <g>
      <use xlink:href="#md171b740cf" x="901.418337" y="126.003488" style="fill: #ff7f0e; stroke: #ff7f0e; stroke-linejoin: miter"/>
     </g>
    </g>
    <g id="text_38">
     <!-- RF -->
     <g transform="translate(919.418337 129.503488) scale(0.1 -0.1)">
      <defs>
       <path id="DejaVuSans-46" d="M 628 4666 
L 3309 4666 
L 3309 4134 
L 1259 4134 
L 1259 2759 
L 3109 2759 
L 3109 2228 
L 1259 2228 
L 1259 0 
L 628 0 
L 628 4666 
z
" transform="scale(0.015625)"/>
      </defs>
      <use xlink:href="#DejaVuSans-52"/>
      <use xlink:href="#DejaVuSans-46" x="69.482422"/>
     </g>
    </g>
    <g id="line2d_45">
     <g>
      <use xlink:href="#m99226547cd" x="901.418337" y="140.681613" style="fill: #2ca02c; stroke: #2ca02c; stroke-linejoin: miter"/>
     </g>
    </g>
    <g id="text_39">
     <!-- Ext -->
     <g transform="translate(919.418337 144.181613) scale(0.1 -0.1)">
      <defs>
       <path id="DejaVuSans-45" d="M 628 4666 
L 3578 4666 
L 3578 4134 
L 1259 4134 
L 1259 2753 
L 3481 2753 
L 3481 2222 
L 1259 2222 
L 1259 531 
L 3634 531 
L 3634 0 
L 628 0 
L 628 4666 
z
" transform="scale(0.015625)"/>
       <path id="DejaVuSans-78" d="M 3513 3500 
L 2247 1797 
L 3578 0 
L 2900 0 
L 1881 1375 
L 863 0 
L 184 0 
L 1544 1831 
L 300 3500 
L 978 3500 
L 1906 2253 
L 2834 3500 
L 3513 3500 
z
" transform="scale(0.015625)"/>
      </defs>
      <use xlink:href="#DejaVuSans-45"/>
      <use xlink:href="#DejaVuSans-78" x="63.183594"/>
      <use xlink:href="#DejaVuSans-74" x="122.363281"/>
     </g>
    </g>
    <g id="line2d_46">
     <g>
      <use xlink:href="#m844a6a285b" x="901.418337" y="155.359738" style="fill: #d62728; stroke: #d62728"/>
     </g>
    </g>
    <g id="text_40">
     <!-- AdaBt -->
     <g transform="translate(919.418337 158.859738) scale(0.1 -0.1)">
      <defs>
       <path id="DejaVuSans-41" d="M 2188 4044 
L 1331 1722 
L 3047 1722 
L 2188 4044 
z
M 1831 4666 
L 2547 4666 
L 4325 0 
L 3669 0 
L 3244 1197 
L 1141 1197 
L 716 0 
L 50 0 
L 1831 4666 
z
" transform="scale(0.015625)"/>
       <path id="DejaVuSans-42" d="M 1259 2228 
L 1259 519 
L 2272 519 
Q 2781 519 3026 730 
Q 3272 941 3272 1375 
Q 3272 1813 3026 2020 
Q 2781 2228 2272 2228 
L 1259 2228 
z
M 1259 4147 
L 1259 2741 
L 2194 2741 
Q 2656 2741 2882 2914 
Q 3109 3088 3109 3444 
Q 3109 3797 2882 3972 
Q 2656 4147 2194 4147 
L 1259 4147 
z
M 628 4666 
L 2241 4666 
Q 2963 4666 3353 4366 
Q 3744 4066 3744 3513 
Q 3744 3084 3544 2831 
Q 3344 2578 2956 2516 
Q 3422 2416 3680 2098 
Q 3938 1781 3938 1306 
Q 3938 681 3513 340 
Q 3088 0 2303 0 
L 628 0 
L 628 4666 
z
" transform="scale(0.015625)"/>
      </defs>
      <use xlink:href="#DejaVuSans-41"/>
      <use xlink:href="#DejaVuSans-64" x="66.658203"/>
      <use xlink:href="#DejaVuSans-61" x="130.134766"/>
      <use xlink:href="#DejaVuSans-42" x="191.414062"/>
      <use xlink:href="#DejaVuSans-74" x="260.017578"/>
     </g>
    </g>
    <g id="line2d_47">
     <g>
      <use xlink:href="#mf80e3637d3" x="901.418337" y="170.037863" style="fill: #9467bd; stroke: #9467bd; stroke-linejoin: bevel"/>
     </g>
    </g>
    <g id="text_41">
     <!-- Grd -->
     <g transform="translate(919.418337 173.537863) scale(0.1 -0.1)">
      <defs>
       <path id="DejaVuSans-47" d="M 3809 666 
L 3809 1919 
L 2778 1919 
L 2778 2438 
L 4434 2438 
L 4434 434 
Q 4069 175 3628 42 
Q 3188 -91 2688 -91 
Q 1594 -91 976 548 
Q 359 1188 359 2328 
Q 359 3472 976 4111 
Q 1594 4750 2688 4750 
Q 3144 4750 3555 4637 
Q 3966 4525 4313 4306 
L 4313 3634 
Q 3963 3931 3569 4081 
Q 3175 4231 2741 4231 
Q 1884 4231 1454 3753 
Q 1025 3275 1025 2328 
Q 1025 1384 1454 906 
Q 1884 428 2741 428 
Q 3075 428 3337 486 
Q 3600 544 3809 666 
z
" transform="scale(0.015625)"/>
      </defs>
      <use xlink:href="#DejaVuSans-47"/>
      <use xlink:href="#DejaVuSans-72" x="77.490234"/>
      <use xlink:href="#DejaVuSans-64" x="116.853516"/>
     </g>
    </g>
    <g id="line2d_48">
     <g>
      <use xlink:href="#m4f84fa81cb" x="901.418337" y="184.715988" style="fill: #8c564b; stroke: #8c564b; stroke-linejoin: miter"/>
     </g>
    </g>
    <g id="text_42">
     <!-- Bag -->
     <g transform="translate(919.418337 188.215988) scale(0.1 -0.1)">
      <use xlink:href="#DejaVuSans-42"/>
      <use xlink:href="#DejaVuSans-61" x="68.603516"/>
      <use xlink:href="#DejaVuSans-67" x="129.882812"/>
     </g>
    </g>
    <g id="line2d_49">
     <g>
      <use xlink:href="#m609055708e" x="901.418337" y="199.394113" style="fill: #e377c2; stroke: #e377c2; stroke-linejoin: miter"/>
     </g>
    </g>
    <g id="text_43">
     <!-- CAT -->
     <g transform="translate(919.418337 202.894113) scale(0.1 -0.1)">
      <use xlink:href="#DejaVuSans-43"/>
      <use xlink:href="#DejaVuSans-41" x="69.824219"/>
      <use xlink:href="#DejaVuSans-54" x="130.482422"/>
     </g>
    </g>
    <g id="line2d_50">
     <g>
      <use xlink:href="#m376f84cfd4" x="901.418337" y="214.072238" style="fill: #7f7f7f; stroke: #7f7f7f; stroke-linejoin: miter"/>
     </g>
    </g>
    <g id="text_44">
     <!-- Model0 -->
     <g transform="translate(919.418337 217.572238) scale(0.1 -0.1)">
      <defs>
       <path id="DejaVuSans-4d" d="M 628 4666 
L 1569 4666 
L 2759 1491 
L 3956 4666 
L 4897 4666 
L 4897 0 
L 4281 0 
L 4281 4097 
L 3078 897 
L 2444 897 
L 1241 4097 
L 1241 0 
L 628 0 
L 628 4666 
z
" transform="scale(0.015625)"/>
      </defs>
      <use xlink:href="#DejaVuSans-4d"/>
      <use xlink:href="#DejaVuSans-6f" x="86.279297"/>
      <use xlink:href="#DejaVuSans-64" x="147.460938"/>
      <use xlink:href="#DejaVuSans-65" x="210.9375"/>
      <use xlink:href="#DejaVuSans-6c" x="272.460938"/>
      <use xlink:href="#DejaVuSans-30" x="300.244141"/>
     </g>
    </g>
    <g id="line2d_51">
     <g>
      <use xlink:href="#mdb8576354c" x="901.418337" y="228.750363" style="fill: #bcbd22; stroke: #bcbd22; stroke-linejoin: miter"/>
     </g>
    </g>
    <g id="text_45">
     <!-- Model1 -->
     <g transform="translate(919.418337 232.250363) scale(0.1 -0.1)">
      <use xlink:href="#DejaVuSans-4d"/>
      <use xlink:href="#DejaVuSans-6f" x="86.279297"/>
      <use xlink:href="#DejaVuSans-64" x="147.460938"/>
      <use xlink:href="#DejaVuSans-65" x="210.9375"/>
      <use xlink:href="#DejaVuSans-6c" x="272.460938"/>
      <use xlink:href="#DejaVuSans-31" x="300.244141"/>
     </g>
    </g>
    <g id="line2d_52">
     <g>
      <use xlink:href="#m60833e94b3" x="901.418337" y="243.428488" style="fill: #17becf; stroke: #17becf; stroke-linejoin: miter"/>
     </g>
    </g>
    <g id="text_46">
     <!-- Model2 -->
     <g transform="translate(919.418337 246.928488) scale(0.1 -0.1)">
      <use xlink:href="#DejaVuSans-4d"/>
      <use xlink:href="#DejaVuSans-6f" x="86.279297"/>
      <use xlink:href="#DejaVuSans-64" x="147.460938"/>
      <use xlink:href="#DejaVuSans-65" x="210.9375"/>
      <use xlink:href="#DejaVuSans-6c" x="272.460938"/>
      <use xlink:href="#DejaVuSans-32" x="300.244141"/>
     </g>
    </g>
    <g id="line2d_53">
     <g>
      <use xlink:href="#mad2cc8c90e" x="901.418337" y="258.106613" style="fill: #1f77b4; stroke: #1f77b4"/>
     </g>
    </g>
    <g id="text_47">
     <!-- Model3 -->
     <g transform="translate(919.418337 261.606613) scale(0.1 -0.1)">
      <use xlink:href="#DejaVuSans-4d"/>
      <use xlink:href="#DejaVuSans-6f" x="86.279297"/>
      <use xlink:href="#DejaVuSans-64" x="147.460938"/>
      <use xlink:href="#DejaVuSans-65" x="210.9375"/>
      <use xlink:href="#DejaVuSans-6c" x="272.460938"/>
      <use xlink:href="#DejaVuSans-33" x="300.244141"/>
     </g>
    </g>
    <g id="line2d_54">
     <g>
      <use xlink:href="#m7d23f102ae" x="901.418337" y="272.784738" style="fill: #ff7f0e; stroke: #ff7f0e"/>
     </g>
    </g>
    <g id="text_48">
     <!-- Model4 -->
     <g transform="translate(919.418337 276.284738) scale(0.1 -0.1)">
      <use xlink:href="#DejaVuSans-4d"/>
      <use xlink:href="#DejaVuSans-6f" x="86.279297"/>
      <use xlink:href="#DejaVuSans-64" x="147.460938"/>
      <use xlink:href="#DejaVuSans-65" x="210.9375"/>
      <use xlink:href="#DejaVuSans-6c" x="272.460938"/>
      <use xlink:href="#DejaVuSans-34" x="300.244141"/>
     </g>
    </g>
    <g id="line2d_55">
     <g>
      <use xlink:href="#mca975cfc58" x="901.418337" y="287.462863" style="fill: #2ca02c; stroke: #2ca02c"/>
     </g>
    </g>
    <g id="text_49">
     <!-- Observed -->
     <g transform="translate(919.418337 290.962863) scale(0.1 -0.1)">
      <use xlink:href="#DejaVuSans-4f"/>
      <use xlink:href="#DejaVuSans-62" x="78.710938"/>
      <use xlink:href="#DejaVuSans-73" x="142.1875"/>
      <use xlink:href="#DejaVuSans-65" x="194.287109"/>
      <use xlink:href="#DejaVuSans-72" x="255.810547"/>
      <use xlink:href="#DejaVuSans-76" x="296.923828"/>
      <use xlink:href="#DejaVuSans-65" x="356.103516"/>
      <use xlink:href="#DejaVuSans-64" x="417.626953"/>
     </g>
    </g>
   </g>
  </g>
 </g>
 <defs>
  <clipPath id="pac6474da6f">
   <path d="M 976.5324 619.6536 
C 976.5324 477.524297 920.011533 341.070854 819.51094 240.57026 
C 719.010346 140.069667 582.556903 83.5488 440.4276 83.5488 
L 440.4276 619.6536 
C 440.4276 619.6536 440.4276 619.6536 440.4276 619.6536 
C 440.4276 619.6536 440.4276 619.6536 440.4276 619.6536 
z
"/>
  </clipPath>
 </defs>
</svg>
